<?xml version="1.0" encoding="utf-8"?>
<!-- Generator: Adobe Illustrator 23.0.3, SVG Export Plug-In . SVG Version: 6.00 Build 0)  -->
<svg version="1.1" id="Layer_1" xmlns="http://www.w3.org/2000/svg" xmlns:xlink="http://www.w3.org/1999/xlink" x="0px" y="0px"
	 viewBox="0 0 192.5 250" style="enable-background:new 0 0 192.5 250;" xml:space="preserve">
<style type="text/css">
	.st0{fill:#F2D95C;}
	.st1{fill:#D9699E;}
	.st2{fill:#BFA573;}
	.st3{fill:#161616;}
	.st4{fill:#01594F;}
	.st5{fill:#FEFEFE;}
</style>
<g>
	<path class="st0" d="M76.8,5.1c3.5-3.2,8.2-5.7,13.1-5c1,2,1.8,4,2.2,6.2c1,4.6,0.8,9.5-0.4,14c5.6-0.5,11.3,0.8,16.1,3.8
		c5.4,3.4,9.4,9,11,15.2c2.5-2.4,5-4.9,8-6.8c2.1,3.9,3,8.3,3.5,12.6c0.5,5.2,0,10.6-1.4,15.7c-1.2-1.2-2.2-2.9-2-4.7
		c0.2-2.5,0.3-5.2-1-7.4c-0.6-1.1-2-1.6-3.2-1c-2,0.9-3.3,2.9-4.3,4.8c-1.5,2.9-2.1,6.1-2.7,9.2c-0.5,3.1-0.9,6.4,0.4,9.3
		c0.4,1,1.3,2,2.5,1.9c1.1-0.1,2-0.8,2.7-1.6c1.6-1.8,2.4-4.2,3.1-6.5c0.2,1.4,0.6,2.7,1.3,3.9c-1.2,2-2.5,3.9-4.1,5.6
		c0.2,1.3,0.1,2.7-0.6,3.7c-1.9,2.9-5.5,4.2-8.9,4.1c-1.7,0-3.3-0.7-4.6-1.7c-0.7,0.7-1.4,1.3-1.8,2.2c-0.4,0.8-0.3,1.6-0.3,2.4
		c-0.2,0.1-0.5,0.2-0.7,0.2c-0.6-2.3,0.9-4.6,2.3-6.4c-1.5-1.8-2.3-4.1-2.3-6.5c-0.1,0-0.4,0-0.5,0c-1.1,1.7-2.1,3.6-2.1,5.7
		c-0.2,2.6,0.9,5.2,2.6,7.2c-4.2,1-8.5,0.9-12.7,0c0.2-0.4,0.4-0.7,0.5-1.1c0.1-0.8-0.8-1-1.4-1.3c-4.5-1.6-8.4-4.6-11.6-8.1
		c-4.3-4.7-7.4-10.7-7.9-17.2c-0.2,0-0.5-0.1-0.6-0.1c-0.1,4.1,1.2,8,2.9,11.7c2.1,4.2,5.1,8,8.7,11.1c1,0.8,2,1.5,3.1,2.3
		c-3.7,3.5-6.3,8-8.1,12.7c-1.7,4.7-2.7,9.6-2.6,14.6c0,4.2,1,8.4,2.9,12.2c1.8,6.3,7.9,10.7,14.3,11.2c3.2,0.3,6.8-0.6,9-3.1
		c1.5-1.6,2-3.8,2-5.9c-2.3,1.3-5,2.7-7.8,2.1c-2.1-0.4-3.5-2.3-4.2-4.2c-1.3-4.3-0.6-8.9,0.2-13.2c0.8,1.6,1.4,3.3,2.4,4.8
		c1,1.5,2.3,2.9,4,3.5c0.9,0.4,2,0.2,2.9,0.1c3,3.8,6.8,6.9,10.9,9.4c2.8,1.7,5.9,3.3,9.2,4c1.4,0.2,3,0.4,4.1-0.5
		c1-0.9,0.9-2.4,0.5-3.5c-1.1-2.8-3.3-4.9-5.3-7c3.1,1.3,6.3,2.6,9.5,3.4c1,6.5,0.1,13.2-2.7,19.1c1.5,0.5,3.1,0.7,4.5,1.3
		c1.7,0.8,2.3,2.9,1.5,4.6c-2.9,6.4-4.8,13.2-5.5,20.1c-0.3,3.2-0.6,6.6,0.1,9.8c0.3,1.7,0.6,3.4,1.1,5c-2.9,4.4-6.3,8.4-10.4,11.6
		c-5.2-5.4-7.4-13.1-7-20.5c0.2-4.6,1.4-9.1,3.7-13.1c0.7-1.3,1.7-2.5,2.6-3.7c-0.1-0.1-0.3-0.4-0.4-0.5c-1.4,0.2-2.7,0.3-4.1,0.3
		c-4.3,0-8.5-1.9-11.5-5c-3.1-3.1-4.9-7.6-4.7-12c0-1.7,0.5-3.4,0.7-5c-0.2,0-0.7-0.1-0.9-0.1c-1,2.7-1.1,5.6-0.7,8.4
		c-5-1.1-9.7-3-14.1-5.5c-4.7-2.6-9.1-5.8-12.7-9.8c1.3-0.2,2.7-0.2,4-0.6c1-1.1,2-2.4,2.4-3.9c-0.3-0.1-0.5-0.3-0.8-0.4
		c-0.7,1.1-1.3,2.3-2.2,3.2c-0.7,0.4-1.5,0.3-2.3,0.5c-5.7,0.5-11.5,0.3-17-1.1c-0.6-0.1-1.1-0.3-1.7-0.3c-0.7,0.2-0.8,0.9-0.9,1.5
		c-1.1,5.3-1.1,10.8,0,16.1c0.2,1.2,0.7,2.4,0.4,3.6c-1.3,5-4.2,9.5-8.1,12.9c-3.1,2.7-7,4.8-11.2,4.8c-0.9-2.6-1.6-5.2-2-7.8
		c-0.5-2.7-0.6-5.5-1-8.3c-0.8-9.5,1-19.3,5.2-27.9c2-4,4.6-7.6,7.9-10.7c0.5-0.4,1.2-0.5,1.8-0.4c2.1,0.1,4.2,0.2,6.2,0.4
		c-3.1-2.7-6.1-5.3-9.2-8c-4.3,2.7-8.3,5.8-11.9,9.4c-1.4,1.4-2.6,3-4.4,3.9c-1.1,0.5-2.3,1-3.5,0.9c-5.1-0.1-10.4-0.8-15-3
		c-2.5-1.2-4.9-3.2-5.5-6c1.7-3.4,4.3-6.2,7.2-8.6c4.3-3.6,9.2-6.4,14.4-8.7c5.1-2.2,10.5-3.8,16-4.5c-0.7-1.2-1.6-2.8-0.7-4.1
		c1-1.3,2.9-1.5,4.5-1.5c0.5,0.5,1.1,0.8,1.8,1c0-0.2,0-0.7,0.1-0.9c-4-3-7.7-6.4-10.5-10.5c-2.5-3.6-4.5-7.9-3.8-12.4
		c3.6,3.3,7.2,6.7,10.8,10.1c0.8,0.7,1.6,1.5,2.6,2c0.4,0.3,0.8-0.2,1.1-0.4c-1.3-1.2-2.8-2.2-4-3.4c-2.7-2.7-4.9-5.8-6.8-9.1
		c-2.8-5-4.7-10.6-5.2-16.3c-0.3-3.4,0-7,1.6-10.1c3.4,5.9,6.5,11.9,9.8,17.8c1.3,2.3,2.4,4.7,3.9,6.9c0.3-0.4,1.1-0.7,0.7-1.3
		c-2.8-5.2-3.7-11.2-3.7-17c0-5.7,1-11.4,3.4-16.5c1.7-3.5,4.1-7.1,7.9-8.4c0.6,13.6,1.3,27.3,2,40.9C49.3,65.1,48.6,79.5,52,93
		c0.2,0.5,0.3,1.5,1,1.1c1.9-14.2,6.3-27.9,12.8-40.7c1.8-3.8,2.9-8,2.7-12.2c-0.1-2.3-0.6-4.6-2-6.5c-0.4-0.6-0.9-1.1-0.9-1.9
		c-0.3-2.6-0.2-5.2,0.2-7.8C67.3,17.5,71.1,10.3,76.8,5.1 M87.4,9c0.4,4.1-0.2,8.2-1.7,12c-1.2,3-3,5.9-5.9,7.5
		c-0.1-3.5-0.9-6.9-0.6-10.4c0.2-3.3,1.2-6.5,3.3-9.1c-0.1-0.1-0.4-0.3-0.5-0.4c-1.4,1.1-2.4,2.7-3.1,4.4c-1.7,4.2-1.9,8.9-1.2,13.3
		c0.5,2.3,0.6,4.7,0.3,7c-0.2,1.1-0.7,2-0.9,3.1c0.1,0.1,0.3,0.3,0.4,0.4c1-1.6,1.6-3.4,2-5.2c3.3-1.5,5.5-4.7,6.9-7.9
		c2.1-4.9,2.8-10.4,2-15.7c0-0.5-0.3-0.9-0.5-1.3C86.9,7.2,87.3,8.2,87.4,9 M91.8,40.4c-2.3,1.4-5.1,2.3-7.7,1.6
		c-1.1-0.3-1.9-1.2-2.3-2.3c-0.1,1,0,2.1,0.7,2.8c1.2,1.2,3.1,1.2,4.6,1.1c-1.1,0.8-2.5,0.8-3.8,1c-2.6,0.2-5.6-0.4-7-2.8
		c0.3,0.8,0.6,1.6,1.2,2.2c1.6,1.5,4,2,6.1,2.2C80,47,75.6,47,72.6,44.3c0.5,1.1,1.2,2.2,2.3,2.9c2.1,1.3,4.7,1.3,7,0.8
		c-0.6,2-0.7,4.2-0.5,6.3c-2.4-1.3-5.2-0.2-7.3,1.2c2.4-0.6,5.3-1,7.5,0.4c0.1,0.3,0.1,0.6,0.2,0.9c-2.9,0.3-5.9,1.9-6.8,4.8
		c1.6-2.3,4.4-3.5,7.2-3.4c0.3,0.7,0.5,1.4,0.8,2.1c-1.9,1-3.8,2.6-4.3,4.8c1.2-1.7,2.8-3,4.8-3.6c1,1.6,1.9,3.5,3.4,4.7
		c1.6,1.8,4,3.1,6.4,2.6c3.7-0.6,6.7-3.1,9.1-5.8c1.1-1.1,2-2.3,2.7-3.6c3-4.9,4.4-11.3,2.2-16.8c-0.9-2.1-2.6-4-4.9-4.4
		C98.7,37.4,95,38.7,91.8,40.4 M111.6,76.1c0.6,0.6,1.4,0.4,2.2,0.3c-0.5-0.3-1.1-0.5-1.6-0.9c-0.7-0.6-0.6-1.5-0.6-2.3
		C110.8,74,110.7,75.4,111.6,76.1 M110.8,130.5c-1,0.9-0.9,2.4-0.8,3.7c-0.1-0.1-0.4-0.2-0.6-0.3c-0.2-0.9-0.3-1.7-0.4-2.6
		c0.2,0.1,0.6,0.3,0.7,0.4c-0.2-0.4-0.5-0.7-0.7-1.1c-0.7,0.9-0.1,2.1-0.1,3.1c-0.8-0.6-1.6-1.4-2.6-1.5c0.1,0.4,0.2,0.8,0.4,1.1
		l0.3-0.7c0.7,0.5,1.4,1,2,1.5l0.1,0.4c-1.1-0.8-2.4-1.2-3.7-0.9c-0.6,0.1-1,0.7-0.7,1.3c0.5,1.3,2,2,3.2,2.5
		c-0.4,1.2-0.5,3,0.8,3.8c1.6,0.5,2.6-1.5,2.4-2.8c0.3,0.5,0.6,0.8,1,1.2c-0.1-0.3-0.2-0.9-0.3-1.2c1.1,0.2,2.8,0.3,3.1-1.1
		c0.1-1.5-1.5-2.2-2.7-2.5c0.1-1.2,0.1-2.5-0.4-3.6C111.6,130.9,111.3,130.4,110.8,130.5 M120.5,135.2c0.3-0.1,0.7-0.3,1-0.5
		c0,0.9-0.2,1.7-0.4,2.6c-0.1-0.1-0.3-0.4-0.4-0.6l0,0l0-0.3c-0.3-0.8-0.6-2.1-1.7-2c-1.1,0.7-0.9,2.2-0.9,3.4
		c-1,0.2-2.2,0.5-2.9,1.5c-0.3,0.4-0.3,1,0.2,1.3c1,0.6,2.2,0.4,3.2,0.2c-0.1,0.3-0.3,0.8-0.3,1.1c0.3-0.3,0.7-0.5,1-0.8l-0.2,0.2
		c0.2,0.8,0.3,1.8,1.1,2.2c0.4,0.3,1-0.1,1.2-0.5c0.5-0.9,0.3-2,0.2-3c1.1-0.5,2.7-0.9,3-2.2c-0.4-0.7-1.5-0.4-2.2-0.3
		c-0.2,0.1-0.7,0.2-0.9,0.2c0.3-1,1.3-1.3,2.1-1.7c0,0.2-0.1,0.7-0.1,0.9c0.3-0.3,0.8-1.1,0.1-1.2c-0.7,0-1.3,0.6-1.8,0.9
		c0.1-0.7,0.3-1.5,0.1-2.2C121.2,134.1,120.8,134.8,120.5,135.2z"/>
	<path class="st0" d="M126.4,60.4c0.6,0.7,1.3,1.3,2.1,1.8c-0.3,0.8-0.6,1.7-0.9,2.5C126.8,63.5,126.4,62,126.4,60.4z"/>
	<path class="st0" d="M126,64.7c0.4,0.5,0.7,1,1.1,1.4c-0.2,0.5-0.5,1-0.7,1.5C126.1,66.6,126,65.6,126,64.7z"/>
	<path class="st0" d="M165.3,72.9c2.1-1.8,3.9-4,6-5.9c1.5,1.3,2.6,3,2.8,5c0.3,3.3-1.2,6.4-3,9.1c-2.4,3.4-5.4,6.2-8.8,8.7
		c-4.3,3.1-9.1,5.6-14,7.5c-3.4,1.2-6.9,2.2-10.5,2.6c2.2-1.8,4.4-3.9,4.9-6.8c0.3-1.5-0.2-3-1-4.2
		C150.2,84.5,158.3,79.4,165.3,72.9z"/>
	<path class="st0" d="M139.9,89.7c0.3-0.1,0.6-0.4,0.9-0.1c1.1,1.3,1.1,3.2,0.4,4.6c-1.1,2.3-3,4-5,5.4c-4.2,3-9.2,4.7-14.2,5.9
		c0,0.2,0,0.6,0,0.8c0.8,0.1,1.7,0.2,2.4,0.5c2.4,0.9,4.8,2.2,6,4.6c-0.9,1.1-2.2,1.9-3.6,2.1c-4.3,0.6-8.6-0.7-12.5-2.5
		c0,0.2-0.1,0.6-0.1,0.9c1,1,2,2.1,2.3,3.5c0.1,0.7,0.2,1.6-0.4,2c-1.2,1.1-3,1.1-4.4,0.6c-2.7-0.9-5.1-2.7-7.1-4.7
		c-0.7-0.7-1.4-1.6-2.2-2.2c-0.4-0.1-0.8,0-0.7,0.5c0.4,0.8,1,1.3,1.6,2c-0.9,1.5-2.5,3.2-4.4,2.8c-2.3-0.6-3.8-2.8-4.9-4.8
		c-0.8-1.7-1.7-3.5-1.7-5.4c0.7-1.9,1.6-3.6,2.7-5.3c6.7,0.1,13.5-0.8,20-2.4C123.5,96.6,131.9,93.6,139.9,89.7z"/>
	<path class="st0" d="M146.7,99.2c9.8-1.8,19.6-3.6,29.3-5.4c0.7,1.8,0.7,3.8-0.3,5.5c-1.6,2.8-4.4,4.5-7.2,5.9
		c-5.2,2.6-10.9,4-16.6,5c-6.8,1.1-13.7,1.6-20.6,1.3c-1-2.9-3.8-4.4-6.5-5.6c3.5-1,6.9-2.3,10-4.2c1.2-0.8,2.7-0.7,4.1-0.9
		C141.7,100.4,144.2,99.6,146.7,99.2z"/>
	<path class="st0" d="M127.4,114.5c1.3-0.2,2.5-0.9,3.5-1.8c1.5,0,3,0,4.5,0c1.2,0,2.4,0.4,3.6,0.8c5.9,1.6,11.7,3.2,17.6,4.8
		c-2.1,3.4-6.2,4.7-10,5.3c-7.6,1-15.4-0.6-22.5-3.3c-2.2-0.9-4.6-1.7-6.4-3.3c-0.3-1.3-0.5-2.6-1.1-3.7
		C120.1,114.3,123.8,115.3,127.4,114.5z"/>
	<path class="st0" d="M103.9,114.5c2.5,2.2,5.3,4.4,8.6,5c1.5,0.3,3-0.2,4.2-1.1c1.7,1.3,3.3,2.8,4.7,4.3c1.2,1.4,2.5,2.9,3.1,4.7
		c0.2,0.7,0.3,1.8-0.5,2.2c-1.3,0.7-2.9,0.2-4.2-0.1c-4-1.2-7.6-3.3-10.9-5.8c-2.6-2-5.2-4.2-7.1-6.8
		C102.6,116.2,103.3,115.4,103.9,114.5z"/>
	<path class="st0" d="M86.7,141.6c2.9,1.4,6,2.3,9.2,3c0.6,1.7,1.1,3.5,2.1,5c2.5,4.3,6.9,7.4,11.8,8.3c1.7,0.4,3.4,0.3,5,0.4
		c-6.3,8-7.8,19.4-4.5,28.9c1.3,3.8,3.5,7.3,6.6,9.9c-0.6,0.8-1.2,1.7-1.8,2.4c-4.2,5.2-9.3,10-15.7,12.4c-2.9-3.2-4.5-7.4-5.4-11.6
		c-0.3-1.9-0.5-3.8-0.6-5.7c-0.4-11.4,3-22.7,8.5-32.5c-4.7-1.1-9.1-3.6-11.9-7.5C87.2,151,86,146.2,86.7,141.6z"/>
</g>
<g>
	<path class="st1" d="M101.8,3.6c11.8-1.3,23.9,0.2,35.3,3.8c8.5,2.8,16.8,6.9,23.6,12.9c3.8,3.4,7.2,7.4,9.1,12.1
		c0.6,1.4,1,2.9,1.5,4.4c1.2,3.8,0.8,7.9-0.4,11.6c-1.6,4.9-4.5,9.2-7.9,13c-5.1,5.7-11.4,10.3-18.2,14c-4.5,2.4-9.1,4.4-13.9,5.9
		c-3.4,0.9-6.6,2.2-9.9,3.3c-8.6,3.4-16.7,8-23.8,14c-0.6,0.5-1.1,1-1.5,1.6c-0.2,0.3-0.5,0.6-0.7,0.9c-1.1,1.6-2,3.4-2.7,5.3
		c-0.3,0.9-0.5,1.8-0.7,2.7c-0.8,4.3-1.5,8.9-0.2,13.2c0.6,1.9,2.1,3.8,4.2,4.2c2.8,0.6,5.4-0.8,7.8-2.1c0,2.1-0.5,4.3-2,5.9
		c-2.2,2.5-5.8,3.4-9,3.1c-6.4-0.5-12.5-4.9-14.3-11.2c0.1-0.2,0.3-0.5,0.5-0.7c-2.1-5.5-2.2-11.6-1.2-17.4c1.4-7.6,4.6-15,10-20.6
		c1.6,0.7,3.1,1.5,4.8,1.9c4.2,0.9,8.5,1,12.7,0c0.2-0.1,0.5-0.1,0.7-0.2c0-0.8-0.1-1.7,0.3-2.4c0.4-0.9,1.1-1.6,1.8-2.2
		c1.3,1,2.9,1.7,4.6,1.7c3.3,0.1,7-1.2,8.9-4.1c0.8-1.1,0.8-2.5,0.6-3.7c1.6-1.7,2.9-3.6,4.1-5.6c0.9,1.4,2.2,2.5,3.9,2.9
		c-1.4-1.1-2.6-2.5-3.2-4.2c0.2-0.5,0.5-1,0.7-1.5c0.9,1,2.3,1.7,3.7,1.7c-1.3-0.7-2.5-1.7-3.2-3c0.3-0.8,0.6-1.7,0.9-2.5
		c1,0.4,2,0.4,2.9-0.1c-0.9-0.3-1.8-0.6-2.5-1.3c1.4-5.1,1.9-10.4,1.4-15.7c-0.4-4.3-1.4-8.7-3.5-12.6c-3,1.8-5.5,4.3-8,6.8
		c-1.6-6.2-5.6-11.7-11-15.2c-4.7-3-10.5-4.4-16.1-3.8c1.2-4.6,1.4-9.4,0.4-14c0-0.3,0-0.7,0-1C95.3,4.6,98.5,3.9,101.8,3.6z"/>
	<path class="st1" d="M53.7,48.5c2.6-8.4,6.4-16.6,12.1-23.5c-0.4,2.6-0.6,5.2-0.2,7.8c0.1,0.7,0.5,1.3,0.9,1.9
		c1.4,1.9,1.9,4.2,2,6.5c0.2,4.2-0.9,8.4-2.7,12.2C59.3,66.1,54.9,79.9,53,94.1c-0.8,0.4-0.8-0.6-1-1.1c-3.4-13.5-2.7-27.8,0.8-41.2
		C53.1,50.7,53.5,49.6,53.7,48.5z"/>
	<path class="st1" d="M103.3,83.2c-1.1-2.1-1.4-4.6-0.8-6.9C104.2,78.2,104.5,81,103.3,83.2z"/>
	<path class="st1" d="M145.1,112.1c5-0.5,9.9-1.3,14.7-2.5c12.9,7.3,23.1,19.2,28.4,33c3.1,8,4.6,16.6,4.3,25.2
		c-0.1,1.3,0.1,2.7-0.1,4c-0.8,5.4-1.8,10.9-3.7,16.1c-1.9,5.4-4.6,10.5-7.8,15.2c-2.2,3.3-4.9,6.2-7.5,9.1
		c-11.9,13-28.5,21.7-46,23.9c-12.2,1.6-24.8,0.1-36.3-4.3c-4.8-1.5-9.5-3.3-14.3-4.8c-6.3-1.9-12.6-4-19.2-4.3
		c-4.7-0.2-9.5-0.1-14.2,0.7c-6.1,1.3-11.4,4.8-16.2,8.4c-1.7,1.3-3,3.3-2.8,5.5c-0.1,1.2,0.9,2,1.8,2.7c2.6,1.9,6,2.3,9.1,1.7
		c3-0.6,5.9-2.2,7.6-4.8c1.1-1.7,1.5-3.9,0.6-5.8c-0.3-0.8-0.9-1.4-1.4-2.1c0-0.4,0.4-0.7,0.8-0.6c0.8,0.1,1.4,0.6,2.1,0.9
		c2.6,1.7,5,3.9,6.1,6.9c0.9,2.3,0.8,5-0.5,7.2c-1.4,2.6-4.1,4.3-6.8,5.3c-4.6,1.7-9.8,1.7-14.6,0.5c-3.5-0.4-7-1.7-9.8-3.8
		c-4.9-3.5-8-9.4-8.2-15.4c-0.3-5.7,2.1-11.5,6.3-15.4c2.6-2.3,5.5-4.1,8.4-5.9c6.9-4.2,14.6-7.2,22.4-9.3c14.7-4,30-5.3,45.1-4.7
		c0.2,1.9,0.3,3.8,0.6,5.7c1,4.2,2.5,8.4,5.4,11.6c6.4-2.4,11.4-7.2,15.7-12.4c8.1-2.8,15.3-7.8,20.9-14.4
		c4.3-5.2,7.6-11.2,9.4-17.7c3.1-10.6,2.4-22.2-2.1-32.3c-1.6-3.8-3.8-7.4-6.4-10.7l0.5,0c4.3,0.7,8.8,0.5,12.9-0.8
		c3.2-0.9,6.3-2.9,7.6-6.1c-6-1.8-12.1-3.2-18.1-5.1C141.6,112.3,143.4,112.3,145.1,112.1z"/>
	<path class="st1" d="M61.6,128.1c2,0.1,3.9,0.1,5.9,0c3.6,4.3,8.1,7.6,12.9,10.4l0.1,0.1c0.9,3.4,1.3,6.8,1.6,10.3
		c0.4,4.9,0.3,9.9-1.5,14.5c-0.9,2.3-2.3,4.4-4.4,5.8c-0.9,0.6-2,1-3,1.5c-3,1.5-6.7,1.5-9.7,0c-3.2-1.6-5.5-4.8-6-8.3
		c-0.4-3.4,0.7-7.1,3.4-9.4c-0.3,1-1,1.9-1.1,3c-0.3,2.4,0.2,5.1,2,6.9c1.2,1.2,3,1.8,4.6,1.3c2.1-0.6,3.6-2.5,4.3-4.5
		c1-3.4,0.6-6.9,0-10.3C69,141.9,65.5,134.8,61.6,128.1z"/>
	<path class="st1" d="M110.8,130.5c0.5-0.1,0.8,0.4,1,0.8c0.5,1.1,0.5,2.4,0.4,3.6c1.2,0.3,2.8,1,2.7,2.5c-0.3,1.4-2,1.3-3.1,1.1
		c-0.5-1.5-1.4-2.8-1.8-4.3C109.9,133,109.8,131.5,110.8,130.5z"/>
	<path class="st1" d="M104.6,135c-0.2-0.6,0.2-1.2,0.7-1.3c1.3-0.3,2.7,0.2,3.7,0.9c0.8,1.2,1.3,2.5,2,3.8c0.1,1.3-0.9,3.3-2.4,2.8
		c-1.3-0.8-1.2-2.5-0.8-3.8C106.6,137,105.1,136.4,104.6,135z"/>
	<path class="st1" d="M118.1,137.8c0-1.1-0.2-2.7,0.9-3.4c1.1-0.1,1.3,1.3,1.7,2l0,0.3c-0.1,0.4-0.1,0.8-0.2,1.2
		c-0.7,0.9-1.4,1.8-1.9,2.9c-1.1,0.2-2.3,0.5-3.2-0.2c-0.5-0.3-0.5-0.9-0.2-1.3C115.9,138.3,117.1,138.1,118.1,137.8z"/>
	<path class="st1" d="M122.3,137.5c0.7-0.1,1.8-0.5,2.2,0.3c-0.3,1.3-1.9,1.7-3,2.2c0.1,1,0.3,2.1-0.2,3c-0.2,0.4-0.7,0.8-1.2,0.5
		c-0.8-0.5-0.9-1.5-1.1-2.2l0.2-0.2C120.3,139.8,120.6,137.9,122.3,137.5z"/>
</g>
<g>
	<path class="st2" d="M87.4,9c-0.1-0.8-0.5-1.8,0.5-2.2c0.2,0.4,0.5,0.8,0.5,1.3c0.8,5.3,0.1,10.8-2,15.7c-1.4,3.2-3.6,6.4-6.9,7.9
		c-0.5,1.8-1,3.6-2,5.2c-0.1-0.1-0.3-0.3-0.4-0.4c0.2-1,0.7-2,0.9-3.1c0.4-2.3,0.2-4.7-0.3-7c-0.7-4.4-0.5-9.1,1.2-13.3
		c0.7-1.7,1.7-3.3,3.1-4.4c0.1,0.1,0.4,0.3,0.5,0.4c-2.1,2.6-3.1,5.8-3.3,9.1c-0.3,3.5,0.5,6.9,0.6,10.4c2.9-1.5,4.7-4.5,5.9-7.5
		C87.2,17.2,87.8,13.1,87.4,9z"/>
	<path class="st2" d="M44.8,14.1c1.6-2.1,3.8-3.9,6.4-4.5c0.4-0.2,0.7,0.3,0.7,0.6c0.6,12.8,1.2,25.5,1.8,38.3
		c-0.3,1.1-0.6,2.1-0.9,3.2c-0.7-13.6-1.4-27.3-2-40.9c-3.8,1.3-6.3,4.9-7.9,8.4c-2.4,5.2-3.3,10.9-3.4,16.5c0,5.8,0.9,11.8,3.7,17
		c0.4,0.6-0.3,1-0.7,1.3c-1.5-2.2-2.6-4.6-3.9-6.9c-3.3-5.9-6.4-11.9-9.8-17.8c-1.6,3.1-1.9,6.7-1.6,10.1c0.5,5.7,2.4,11.3,5.2,16.3
		c1.8,3.3,4.1,6.4,6.8,9.1c1.2,1.3,2.7,2.2,4,3.4c-0.3,0.2-0.7,0.6-1.1,0.4c-1-0.5-1.8-1.3-2.6-2C36,63.3,32.4,60,28.8,56.7
		c-0.7,4.5,1.4,8.8,3.8,12.4c2.8,4.1,6.5,7.5,10.5,10.5c0,0.2,0,0.7-0.1,0.9c-0.7-0.2-1.3-0.5-1.8-1c-3.5-2.8-6.7-5.8-9.3-9.5
		c-2.1-3-3.8-6.4-4.3-10.1c-0.1-1.8-0.1-3.6,0.6-5.3c1.7,1.6,3.4,3.2,5.1,4.8c-3.6-5.6-6.2-12-7.1-18.6c-0.5-4.1-0.3-8.6,1.8-12.3
		c0.2-0.3,0.5-0.9,0.9-0.7c0.4,0.2,0.5,0.6,0.7,0.9c3.3,6,6.7,11.9,10,17.9c-1.7-7-1.7-14.3,0-21.3C40.7,21.3,42.3,17.4,44.8,14.1z"
		/>
	<path class="st2" d="M71,57.7c0.2,0,0.5,0.1,0.6,0.1c0.5,6.4,3.6,12.4,7.9,17.2c3.2,3.5,7.1,6.5,11.6,8.1c0.6,0.2,1.5,0.5,1.4,1.3
		c-0.1,0.4-0.3,0.7-0.5,1.1c-1.7-0.4-3.2-1.1-4.8-1.9c-5.4,5.6-8.7,13-10,20.6c-1,5.8-0.9,11.9,1.2,17.4c-0.1,0.2-0.3,0.5-0.5,0.7
		c-1.9-3.8-2.9-8-2.9-12.2c-0.1-5,0.9-9.9,2.6-14.6c1.8-4.7,4.4-9.2,8.1-12.7c-1-0.8-2.1-1.5-3.1-2.3c-3.6-3-6.6-6.8-8.7-11.1
		C72.2,65.8,70.9,61.8,71,57.7z"/>
	<path class="st2" d="M161.9,74.6c3.3-2.7,6.2-5.9,9.3-9c1.8,1.2,3.2,2.9,3.7,5c0.7,2.7,0,5.6-1.2,8.1c-1.8,3.7-4.7,6.9-7.8,9.6
		c-4.5,3.8-9.6,6.8-15,9.1c8.4-1.5,16.9-3.1,25.3-4.6c0.5-0.2,0.6,0.5,0.8,0.8c1,2.2,0.7,4.9-0.6,6.8c-2,2.9-5.1,4.8-8.2,6.3
		c-2.7,1.3-5.5,2.2-8.4,3c-4.8,1.3-9.8,2.1-14.7,2.5c-1.7,0.2-3.4,0.2-5.1,0.4c6,1.9,12.1,3.3,18.1,5.1c-1.3,3.2-4.4,5.1-7.6,6.1
		c-4.2,1.2-8.6,1.4-12.9,0.8l-0.5,0c-2.5-0.2-4.9-0.8-7.3-1.3c-3.3-0.8-6.4-2-9.5-3.4c2.1,2.1,4.2,4.2,5.3,7
		c0.4,1.1,0.6,2.6-0.5,3.5c-1.2,0.9-2.8,0.8-4.1,0.5c-3.3-0.7-6.3-2.2-9.2-4c-4.1-2.5-7.9-5.6-10.9-9.4c-1,0.1-2,0.3-2.9-0.1
		c-1.7-0.6-3-2-4-3.5c-1-1.5-1.6-3.2-2.4-4.8c0.2-0.9,0.4-1.8,0.7-2.7c0,1.9,1,3.7,1.7,5.4c1.1,2,2.5,4.2,4.9,4.8
		c2,0.4,3.5-1.3,4.4-2.8c-0.6-0.6-1.2-1.2-1.6-2c-0.1-0.5,0.3-0.6,0.7-0.5c0.8,0.6,1.4,1.5,2.2,2.2c2,2,4.4,3.8,7.1,4.7
		c1.5,0.5,3.3,0.5,4.4-0.6c0.6-0.5,0.5-1.3,0.4-2c-0.3-1.4-1.3-2.6-2.3-3.5c0-0.2,0.1-0.6,0.1-0.9c3.9,1.7,8.2,3.1,12.5,2.5
		c1.4-0.2,2.7-0.9,3.6-2.1c-1.2-2.4-3.6-3.7-6-4.6c-0.8-0.3-1.6-0.4-2.4-0.5c0-0.2,0-0.6,0-0.8c5-1.1,10-2.9,14.2-5.9
		c2-1.5,4-3.2,5-5.4c0.7-1.5,0.7-3.4-0.4-4.6c-0.3-0.3-0.6,0-0.9,0.1c-8,3.9-16.4,6.9-25.1,9c-6.6,1.5-13.3,2.5-20,2.4
		c0.2-0.3,0.4-0.6,0.7-0.9c3.8-0.2,7.7-0.3,11.4-1c10.3-1.6,20.3-4.8,29.9-9.1C145.8,86,154.3,80.9,161.9,74.6 M165.3,72.9
		c-7,6.4-15.1,11.6-23.6,15.9c0.8,1.2,1.3,2.7,1,4.2c-0.6,2.8-2.8,5-4.9,6.8c3.6-0.4,7.1-1.3,10.5-2.6c5-1.8,9.8-4.3,14-7.5
		c3.3-2.4,6.4-5.3,8.8-8.7c1.8-2.7,3.3-5.8,3-9.1c-0.2-2-1.3-3.8-2.8-5C169.2,68.9,167.5,71.1,165.3,72.9 M146.7,99.2
		c-2.6,0.4-5,1.3-7.6,1.6c-1.4,0.3-2.9,0.1-4.1,0.9c-3.1,1.9-6.5,3.2-10,4.2c2.6,1.2,5.5,2.7,6.5,5.6c6.9,0.3,13.8-0.1,20.6-1.3
		c5.7-1,11.4-2.4,16.6-5c2.8-1.4,5.6-3.2,7.2-5.9c1-1.7,1-3.7,0.3-5.5C166.3,95.5,156.5,97.4,146.7,99.2 M127.4,114.5
		c-3.6,0.8-7.3-0.2-10.8-1.3c0.6,1.2,0.8,2.5,1.1,3.7c1.8,1.6,4.2,2.4,6.4,3.3c7.1,2.7,14.9,4.3,22.5,3.3c3.7-0.6,7.8-1.9,10-5.3
		c-5.9-1.6-11.7-3.2-17.6-4.8c-1.2-0.3-2.4-0.8-3.6-0.8c-1.5,0-3,0-4.5,0C129.9,113.6,128.7,114.2,127.4,114.5 M103.9,114.5
		c-0.6,0.9-1.3,1.7-2.1,2.4c2,2.7,4.5,4.9,7.1,6.8c3.3,2.4,6.9,4.6,10.9,5.8c1.3,0.3,2.9,0.8,4.2,0.1c0.8-0.4,0.7-1.5,0.5-2.2
		c-0.6-1.8-1.8-3.3-3.1-4.7c-1.4-1.6-3-3.1-4.7-4.3c-1.2,0.9-2.7,1.4-4.2,1.1C109.2,118.9,106.4,116.7,103.9,114.5z"/>
	<path class="st2" d="M111.6,76.1c-0.9-0.7-0.9-2.1-0.1-2.9c0.1,0.8,0,1.7,0.6,2.3c0.5,0.4,1.1,0.5,1.6,0.9
		C113.1,76.6,112.2,76.7,111.6,76.1z"/>
	<path class="st2" d="M74.4,123.2c0.3,0.1,0.5,0.2,0.8,0.4c-0.4,1.5-1.4,2.8-2.4,3.9c-1.3,0.5-2.6,0.4-4,0.6c3.6,4,8,7.2,12.7,9.8
		c4.4,2.4,9.2,4.4,14.1,5.5c-0.4-2.8-0.3-5.7,0.7-8.4c0.2,0,0.7,0.1,0.9,0.1c-0.2,1.7-0.7,3.3-0.7,5c-0.1,4.4,1.6,8.9,4.7,12
		c3,3.1,7.2,4.9,11.5,5c1.4,0,2.8-0.1,4.1-0.3c0.1,0.1,0.3,0.4,0.4,0.5c-0.8,1.3-1.8,2.4-2.6,3.7c-2.3,3.9-3.5,8.5-3.7,13.1
		c-0.4,7.4,1.8,15.1,7,20.5c0.1,0.1,0.2,0.2,0.2,0.3c-0.5,0.7-1,1.4-1.5,2.1c-3.1-2.6-5.3-6.1-6.6-9.9c-3.3-9.6-1.8-20.9,4.5-28.9
		c-1.7,0-3.4,0-5-0.4c-4.9-1-9.2-4.1-11.8-8.3c-1-1.6-1.5-3.3-2.1-5c-3.2-0.7-6.3-1.6-9.2-3c-2.1-0.9-4.2-2-6.3-3.1
		c-4.8-2.8-9.3-6.1-12.9-10.4c-2,0.1-3.9,0.1-5.9,0c-3.4-0.2-6.8-0.7-10-1.6c-1.3,5.7-1.2,11.7,0.1,17.4c0.2,0.8,0.5,1.6,0.3,2.4
		c-1,4.4-3.2,8.4-6.2,11.7c-3.6,3.9-8.4,7.2-13.8,7.4c-0.1-0.4-0.3-0.7-0.4-1.1c4.2,0,8.1-2.1,11.2-4.8c3.9-3.4,6.8-7.9,8.1-12.9
		c0.3-1.2-0.2-2.4-0.4-3.6c-1.1-5.3-1.1-10.8,0-16.1c0.1-0.6,0.3-1.3,0.9-1.5c0.6,0,1.1,0.2,1.7,0.3c5.6,1.4,11.3,1.6,17,1.1
		c0.8-0.1,1.6-0.1,2.3-0.5C73.2,125.5,73.7,124.3,74.4,123.2z"/>
</g>
<g>
	<path class="st3" d="M91.8,40.4c3.2-1.7,6.9-3,10.6-2.4c2.3,0.4,4,2.3,4.9,4.4c2.2,5.5,0.8,11.9-2.2,16.8c-1.6,1.8-3.4,3.7-5.9,4.1
		c-2.4,0.5-4.8-0.9-6.1-3c-1.9-3.2-2.2-7.2-1.5-10.7c-0.1,1.7,0,3.7,1.2,5c0.8,0.9,2.2,0.9,3.3,0.4c1.7-0.9,2.8-2.4,3.6-4.1
		c1.1-2.3,1.6-4.9,0.9-7.4c-0.3-1.3-1.4-2.5-2.9-2.4c-1.8,0.1-3.1,1.5-4.1,2.8c0.8-2.2,2.7-3.9,4.6-5.2c-4.3,1.9-7.1,6-8.8,10.3
		c0.3-1.8,0.8-3.6,1.4-5.3c-2.3,1.7-4.8,3-7.4,3.9c-0.9,4.5-0.8,9.2,0.7,13.6c0.6,1.8,1.4,3.4,2.6,4.9c-1.6-1.2-2.5-3-3.4-4.7
		c-1.9,0.7-3.6,2-4.8,3.6c0.5-2.2,2.3-3.8,4.3-4.8c-0.3-0.7-0.5-1.4-0.8-2.1c-2.8-0.1-5.6,1.1-7.2,3.4c1-2.8,4-4.5,6.8-4.8
		c-0.1-0.3-0.1-0.6-0.2-0.9c-2.2-1.4-5.1-1-7.5-0.4c2.1-1.4,4.9-2.5,7.3-1.2c-0.2-2.1-0.1-4.3,0.5-6.3c-2.3,0.4-4.9,0.5-7-0.8
		c-1.1-0.7-1.8-1.7-2.3-2.9c3,2.7,7.4,2.7,11.1,1.9c-2.2-0.2-4.5-0.6-6.1-2.2c-0.7-0.6-1-1.4-1.2-2.2c1.4,2.4,4.5,3,7,2.8
		c1.3-0.1,2.7-0.1,3.8-1c-1.6,0.1-3.5,0.2-4.6-1.1c-0.8-0.7-0.8-1.8-0.7-2.8c0.4,1,1.1,2,2.3,2.3C86.7,42.8,89.5,41.8,91.8,40.4
		 M101.4,54.4c-1,0.7-1.5,2.2-1.1,3.3c0.2,0.6,1,0.6,1.4,0.2c0.9-0.8,1.3-2.2,0.8-3.3C102.4,54.2,101.8,54.1,101.4,54.4z"/>
	<path class="st3" d="M122.7,47.8c1.1-0.5,2.5,0,3.2,1c1.4,2.2,1.2,4.9,1,7.4c-0.1,1.8,0.8,3.4,2,4.7c0.7,0.6,1.6,1,2.5,1.3
		c-0.9,0.5-2,0.6-2.9,0.1c-0.8-0.5-1.5-1.2-2.1-1.8c0,1.5,0.3,3.1,1.1,4.4c0.7,1.3,1.9,2.2,3.2,3c-1.4,0-2.7-0.7-3.7-1.7
		c-0.4-0.5-0.7-0.9-1.1-1.4c0,1,0.1,2,0.4,2.9c0.6,1.7,1.8,3.1,3.2,4.2c-1.6-0.4-3-1.5-3.9-2.9c-0.7-1.2-1.1-2.5-1.3-3.9
		c0-0.2,0-0.5,0-0.7c-0.1,0.3-0.2,0.5-0.3,0.8c-1.3,1.3-2.3,3.1-4.2,3.6c-1.1,0.3-2.3-0.2-2.8-1.1c-1.1-1.7-1.1-3.8-1.3-5.8
		c0.5-3.2,1.1-6.4,2.7-9.2C119.4,50.7,120.6,48.7,122.7,47.8 M121.6,50.2c-1.3,0.6-2.1,1.9-2.7,3.2c-0.9,2-1.5,4.2-1.2,6.3
		c0.1,0.8,0.5,1.7,1.3,1.9c0.9,0.1,1.7-0.6,2.3-1.2c1.4-1.7,2.2-3.9,2.6-6c0.1-1.2,0.2-2.6-0.5-3.7C123,50,122.2,49.8,121.6,50.2
		 M121.8,63.5c-1.1,0.6-1.8,2.5-0.9,3.5c1-0.2,1.4-1.4,1.5-2.3C122.5,64.3,122.5,63.4,121.8,63.5z"/>
	<path class="st3" d="M104.2,72.6c0.1,0,0.4,0,0.5,0c0,2.3,0.8,4.6,2.3,6.5c-1.4,1.7-2.9,4-2.3,6.4c-1.7-2-2.8-4.6-2.6-7.2
		C102.2,76.2,103.1,74.3,104.2,72.6 M103.3,83.2c1.1-2.2,0.8-5-0.8-6.9C102,78.6,102.2,81.1,103.3,83.2z"/>
	<path class="st3" d="M109,133.8c-0.1-1-0.7-2.2,0.1-3.1c0.2,0.3,0.5,0.7,0.7,1.1c-0.2-0.1-0.6-0.3-0.7-0.4c0.1,0.9,0.2,1.8,0.4,2.6
		c0.1,0.1,0.4,0.2,0.6,0.3c0.4,1.5,1.3,2.8,1.8,4.3c0.1,0.3,0.2,0.9,0.3,1.2c-0.4-0.4-0.7-0.8-1-1.2c-0.7-1.3-1.2-2.6-2-3.8
		l-0.1-0.4c-0.6-0.6-1.3-1.1-2-1.5l-0.3,0.7c-0.1-0.4-0.3-0.7-0.4-1.1C107.4,132.4,108.2,133.2,109,133.8z"/>
	<path class="st3" d="M120.5,135.2c0.3-0.3,0.6-1,1.2-0.7c0.3,0.7,0,1.4-0.1,2.2c0.6-0.4,1.1-0.9,1.8-0.9c0.7,0.1,0.2,0.9-0.1,1.2
		c0-0.2,0.1-0.7,0.1-0.9c-0.8,0.4-1.8,0.8-2.1,1.7c0.2-0.1,0.7-0.2,0.9-0.2c-1.7,0.4-2,2.4-3.1,3.5c-0.3,0.3-0.6,0.6-1,0.8
		c0.1-0.3,0.3-0.8,0.3-1.1c0.5-1,1.2-2,1.9-2.9c0.1-0.4,0.2-0.8,0.2-1.2l0,0c0.1,0.1,0.3,0.4,0.4,0.6c0.2-0.8,0.3-1.7,0.4-2.6
		C121.2,134.9,120.9,135,120.5,135.2z"/>
</g>
<g>
	<path class="st4" d="M89.6,49c1.7-4.2,4.5-8.4,8.8-10.3c-1.9,1.3-3.8,3-4.6,5.2c-1.1,1.7-1.8,3.6-2.1,5.7
		c-0.8,3.6-0.5,7.6,1.5,10.7c1.2,2,3.7,3.5,6.1,3c2.5-0.4,4.3-2.3,5.9-4.1c-0.7,1.3-1.6,2.6-2.7,3.6c-1.7,1.6-3.8,3-6.2,3.3
		c-1.9,0.2-3.8-0.5-5.1-1.9c-1.5-1.6-2.3-3.8-2.6-5.9C88,55.2,88.6,52,89.6,49z"/>
	<path class="st4" d="M115.7,61.8c0.3,1.9,0.2,4.1,1.3,5.8c0.6,0.9,1.7,1.5,2.8,1.1c1.9-0.5,2.9-2.3,4.2-3.6c-0.8,2-1.9,3.8-3.2,5.4
		c-0.8,0.8-1.7,1.7-2.8,1.7c-0.8,0.1-1.4-0.6-1.9-1.1C114.8,68.2,115.2,64.9,115.7,61.8z"/>
</g>
<g>
	<path class="st5" d="M93.8,44c1-1.3,2.3-2.7,4.1-2.8c1.4-0.1,2.5,1.2,2.9,2.4c0.7,2.5,0.2,5.1-0.9,7.4c-0.8,1.6-2,3.2-3.6,4.1
		c-1,0.5-2.4,0.5-3.3-0.4c-1.3-1.3-1.3-3.3-1.2-5C91.9,47.6,92.7,45.7,93.8,44z"/>
	<path class="st5" d="M83.6,47.6c2.7-0.9,5.2-2.2,7.4-3.9c-0.6,1.7-1.1,3.5-1.4,5.3c-1,3-1.5,6.2-1.1,9.3c0.3,2.2,1.1,4.3,2.6,5.9
		c1.3,1.4,3.3,2.1,5.1,1.9c2.4-0.2,4.5-1.6,6.2-3.3c-2.4,2.7-5.4,5.2-9.1,5.8c-2.5,0.5-4.9-0.8-6.4-2.6c-1.2-1.4-2-3.1-2.6-4.9
		C82.8,56.9,82.7,52.1,83.6,47.6z"/>
	<path class="st5" d="M121.6,50.2c0.6-0.3,1.4-0.2,1.8,0.4c0.7,1.1,0.6,2.5,0.5,3.7c-0.3,2.2-1.1,4.3-2.6,6
		c-0.6,0.6-1.3,1.3-2.3,1.2c-0.8-0.2-1.2-1.1-1.3-1.9c-0.3-2.2,0.2-4.4,1.2-6.3C119.5,52.1,120.3,50.8,121.6,50.2z"/>
	<path class="st5" d="M101.4,54.4c0.4-0.3,1-0.2,1.2,0.3c0.5,1.1,0,2.5-0.8,3.3c-0.4,0.4-1.2,0.4-1.4-0.2
		C100,56.5,100.4,55.1,101.4,54.4z"/>
	<path class="st5" d="M121.8,63.5c0.7-0.1,0.7,0.8,0.6,1.2c-0.1,0.9-0.5,2-1.5,2.3C120,66.1,120.7,64.1,121.8,63.5z"/>
	<path class="st5" d="M124,65.1c0.1-0.3,0.2-0.5,0.3-0.8c0,0.2,0,0.5,0,0.7c-0.7,2.3-1.5,4.6-3.1,6.5c-0.7,0.8-1.6,1.5-2.7,1.6
		c-1.2,0-2-0.9-2.5-1.9c0.5,0.6,1.1,1.2,1.9,1.1c1.2-0.1,2.1-0.9,2.8-1.7C122.2,68.9,123.3,67.1,124,65.1z"/>
</g>
</svg>
