<?xml version="1.0" encoding="utf-8"?>
<!-- Generator: Adobe Illustrator 23.0.3, SVG Export Plug-In . SVG Version: 6.00 Build 0)  -->
<svg version="1.1" id="Layer_1" xmlns="http://www.w3.org/2000/svg" xmlns:xlink="http://www.w3.org/1999/xlink" x="0px" y="0px"
	 viewBox="0 0 246.4 250" style="enable-background:new 0 0 246.4 250;" xml:space="preserve">
<style type="text/css">
	.st0{fill:#8D1760;}
	.st1{fill:#E938A6;}
	.st2{fill:#FFA5BD;}
	.st3{fill:#161616;}
	.st4{fill:#FEFEFE;}
	.st5{fill:#80D1F2;}
	.st6{fill:#D9699E;}
	.st7{fill:#FFE11A;}
</style>
<g>
	<path class="st0" d="M196.6,0.4c4.8-1,9.8,0,14.1,2.1c6.2,3,11.2,7.9,15.1,13.5c5.1,7.4,8.3,16.1,9.6,25.1c4.2-5.7,7.2-12.7,7-20
		c-0.1-0.7,1.1-1.2,1.4-0.5c0.8,1.9,1.3,3.9,1.8,5.9c1.1,5.4,1.1,11.1-0.3,16.4c-1,3.5-2.7,6.9-5.5,9.3c-2.2,1.8-5.2,2.6-8,1.8
		c-3.6-0.9-6.4-3.7-8.4-6.7c-1.2-1.6-1.7-3.6-2.7-5.4c-1.6-3.1-3.5-6.2-6.4-8.3c-1.8-1.3-4.2-1.9-6.3-0.9c-2.7,1.1-4.4,3.6-5.7,6.1
		c-0.9,1.7-1.5,3.5-2.1,5.3c2.4-1.7,5-3.1,7.8-3.9c0.4-0.2,0.6,0.3,0.8,0.6c2.6,3.8,3.5,8.6,3.1,13.2c-0.2,3.3-1.2,6.4-2.5,9.5
		c1.2,0.9,2.4,2,3.5,3.1c-0.2,0.4-0.5,0.8-0.8,1.1c-0.1-0.1-0.3-0.2-0.4-0.3c-3.7-3.9-8.7-6.5-13.9-7.5c0,2.5-0.1,4.9,0.1,7.4
		c0,0.6,0.1,1.4-0.5,1.7c-0.6,0.3-1-0.4-1.4-0.7c-3.2-3.7-7.4-6.5-12.1-7.9c-8-2.5-17-0.7-23.6,4.5c0.3,2.4,0.6,4.8,0.4,7.2
		c-0.1,0.7-1.3,0.7-1.4,0c-0.2-1.8-0.1-3.5-0.3-5.3c-0.6-5-2.2-9.9-4.5-14.4c-2.5-4.8-6-9.3-10.8-11.9c-6.1,5.8-9.6,13.8-11.2,22
		c-1.7,9.3-1.1,19.3,2.9,27.9c4.3,0.5,8.7,2,11.9,5c2.7,2.5,4.3,6.1,4.3,9.8c0.1,4.5-1.8,8.7-4.2,12.3c4.6,0.3,9.1,1.6,13,4.2
		c3.4,2.2,6.1,5.5,7.4,9.3c1.5,4.3,1.1,9.2-0.9,13.3c-2.4,5.2-6.9,9.2-12,11.8c2,1.7,3.8,3.8,4.4,6.5c0.4,1.7-0.1,3.7-1.3,5
		c-1.4,1.5-3.5,2.3-5.5,2.5c-4.2,0.4-8.4-0.9-12-3.1c-2.6-1.6-5-3.9-6-6.8c-0.4-1.1-0.4-2.2-0.2-3.3c1.3,1,2.1,2.6,3.5,3.5
		c1.9,1.3,4.3,2.5,6.7,2.1c0.8-0.1,0.8-1.1,0.5-1.7c-0.8-1.6-2.3-2.7-3.7-3.6c-1.7-1-3.7-1.3-5.4-2.2c-4-2.1-8.1-4.4-11.1-8
		c-2.8-3.5-7.3-5.6-11.7-5.5c-3.5,0-6.8,1.2-9.7,3.1c-4,2.5-7.2,6.2-9.7,10.2c0.1,0.1,0.4,0.2,0.5,0.3c-0.1-0.1-0.4-0.2-0.5-0.2
		c-1.1,1.8-2,3.6-2.7,5.6c-1.7,4.5-2.6,9.2-2.6,14c0,1.2,0.2,2.4,0.1,3.6c-0.4,0.5-1.3,0.3-1.3-0.3c-0.4-2.4-0.2-4.9,0-7.3
		c-1.6-1.4-3.4-2.7-5.5-3.2c-1.1-0.2-2.4-0.3-3.3,0.4c-0.8,0.5-1.1,1.5-1.3,2.4c-1.8,8.9-5.4,17.5-10.8,24.8
		c-2.7,3.6-5.9,6.8-9.6,9.3c-1.6,5.6-1.7,11.5-0.8,17.2c0.7,3.9,1.9,7.8,3.8,11.4c0.3,0.8,1.2,0.8,1.9,1c3.5,0.6,7.1-0.3,10.1-2
		c4-2.3,7.1-5.7,9.7-9.5c5.7-8.6,8.5-18.9,9-29.1c0.1-0.6-0.1-1.1-0.6-1.4c-2.7-2.1-4.5-5.2-5.4-8.4c-0.3-0.7,0.4-1.2,1.1-0.9
		c0.5,0.9,0.7,1.9,1.1,2.8c1.3,3,3.7,5.7,6.8,6.9c2.8,1.1,6,0.7,8.6-0.6c3.5-1.6,6.2-4.5,8.2-7.8c2.5-4.1,3.8-8.9,3.9-13.7
		c0-0.5,0.2-1.3,0.8-1.1c0.7,0,0.6,0.8,0.7,1.3c-0.1,5.8-2,11.7-5.5,16.4c6.1,4.6,13.4,7.3,20.8,8.8c4.6,0.9,9.4,1.2,14.1,0.8
		c-0.1-1.9-0.2-3.8-0.4-5.7c0-0.8-0.2-1.6-0.1-2.4c0.2-0.5,0.9-0.5,1.2-0.2c0.2,0.4,0.2,0.8,0.3,1.2c0.2,2,0.2,4.1,0.4,6.1
		c0.1,1.6,1.7,2.5,3,3.2c3.1,1.3,6.5,1.5,9.8,1.3c4.2-0.2,8.3-1.1,12.2-2.4c0.1-1.7-0.1-3.3-0.1-5c-0.1-0.5,0.5-1,1-0.7
		c0.4,0.2,0.4,0.6,0.5,1c0.7,9.7-1.2,19.6-6,28.1c3.1,9.9,9.7,18.6,18.3,24.3c5.8-7.9,9.7-17.3,11-27c1.9-13.9-1.6-28.5-9.5-40.1
		c-9.3-0.2-18.6,2.8-26.5,7.6c-0.6,0.5-1.4,0-1.2-0.8c0.7-0.7,1.6-1.1,2.5-1.6c5-2.8,10.5-4.8,16.2-5.9c0.8-0.1,1.1-0.8,1.4-1.4
		c3.6-7,5.3-15,4.5-22.9c-0.1-1-0.3-2-0.6-3c-1.6-4.9-1.9-10.1-1.3-15.2c-2.8-0.8-5.6-1.8-8.1-3.2c-0.5-0.2-0.7-0.8-0.3-1.2
		c0.4-0.2,0.8,0,1.2,0.1c2.1,1,4.4,1.4,6.7,1.9c10.3,1.9,21.1,0.9,30.8-3.2c0.3-1.8,0.7-3.6,1.4-5.3c0.4-0.9,1.3-1.5,1.9-2.2
		c1.5-1.5,2.7-3.3,3.6-5.3c-1.8,0.1-3.7-0.2-5.4-0.8c-1.6,3.5-2.6,7.3-2.9,11.1c0,1.1-1.2,1.5-2.1,1.8c-1,0.2-2.4,0.5-3.2-0.4
		c-2.3-2.5-3.2-6-3.4-9.3c-0.4-5.6,0.8-11.2,3.2-16.2c0.3-0.5,0.5-1.1,1.1-1.3c0.4-0.1,0.7,0.1,1.1,0.2c-0.4,2.6-0.2,5.3,1.1,7.6
		c1.5,2.8,4.2,4.9,7.3,5.6c3.5,0.9,7.4-0.3,10-2.8c2.4-2.3,3.7-5.7,3.3-9c-0.1-1.5-0.6-2.8-1.3-4.1c-3.1-0.5-6.1,0.4-8.9,1.6
		c-3.6-2.3-5.8-6.3-7.1-10.3c1.2,2.6,2.8,5.2,5.2,6.9c0.8,0.6,1.4,1.6,2.4,1.7c1-0.5,2-0.8,3.1-1.1c1-4.8,0.5-9.8-0.6-14.6
		c1,1.5,1.7,3.2,2.4,5c0.4,3.1,0.3,6.3-0.3,9.3c1.6-0.1,3.3-0.3,4.8,0.5c1,1.4,1.5,3.2,1.7,5c0.5,4.1-1.3,8.4-4.5,11
		c-1.6,1.3-3.5,2.1-5.4,2.5c-1.1,3.1-3.1,5.7-5.5,7.8c-1.1,1.8-1.3,4-1.7,6.1c-2,1.5-4.2,2.5-6.5,3.4c-7.5,2.8-15.7,3.3-23.5,1.6
		c-0.5,5-0.3,10.1,1.3,14.8c0.3,0.9,0.4,1.8,0.5,2.7c0.6,5.7-0.1,11.5-1.8,17c5.4-3.6,11.5-6.1,17.9-6.9c1.8-0.2,3.6-0.3,5.4-0.2
		c0.7,0,0.9,0.8,1.3,1.3c6.5,12.2,9.4,26.3,8.4,40.1c0,1.7-0.9,3.2-1.6,4.7c-3.3,7.1-8,13.4-13.8,18.7c-0.3,0.2-0.6,0.5-0.9,0.6
		c-1.3-0.3-2.6-0.8-3.8-1.4c-2,7-5.3,13.6-9.6,19.5c-0.3,0.6-1.2,0.8-1.7,0.3c-7.7-5-13.8-12.4-17.5-20.8c-0.6-1.6-1.4-3.3-1.7-5
		c3.8-6.6,5.8-14.1,6.1-21.6c-5.9,1.9-12.3,3-18.4,2c-2.6-0.4-5.3-1.3-7.1-3.3c-5.8,0.7-11.8,0.1-17.5-1.2c-1.1,3.4-3.6,6.4-6.9,7.7
		c-2.8,1.2-6,1.2-8.8,0.3c1.6,8.3,1.5,17-0.6,25.2c-1.2,4.7-3.1,9.2-6,13.1c-2.2,3-5.1,5.6-8.7,6.9c-1.7,0.6-3.5,1.1-5.3,0.7
		c-2.2-2.1-3.7-4.7-4.9-7.4c-2.1-4.7-3.1-10-2.7-15.2c0.1-0.6,0.1-1.3,0.5-1.9c6.4-9.3,10.1-20.5,9.9-31.8c-1-0.2-2-0.6-3-1
		c-0.4,8.8-2.5,17.5-6.5,25.4c-2.3,4.5-5.3,8.7-9.2,12c-3,2.5-6.6,4.5-10.6,4.9c-1.9,0.2-3.8,0.1-5.6-0.4c-0.5-0.2-1.1-0.3-1.3-0.8
		c-2.4-4.3-3.8-9-4.5-13.9c-0.7-5.4-0.5-11,1-16.3c0.2-1.1,1.4-1.4,2.1-2c6.6-5,11.4-12.2,14.6-19.8c1.7-4,2.9-8.1,3.8-12.4
		c0.2-1.2,0.8-2.5,1.8-3.3c1.2-0.9,2.9-1.1,4.3-0.8c2.1,0.4,4,1.6,5.6,2.9c1.4-9.2,5.8-18.1,13.2-23.9c-0.6-9.9-5.3-19.8-13.4-25.8
		c1.8,4.2,2.7,8.9,1.8,13.5c-0.7,3.9-3,7.4-6.1,9.8c-3.3,2.5-7.5,3.6-11.7,3.7c1.8,5.8,1.6,12.1-0.5,17.7c-2.6,7.1-8.2,13-15.2,15.9
		c-3.1,1.3-6.4,2.1-9.8,2.2c2.8,1.2,5.6,2.9,6.9,5.7c1.1,2.2,0.9,4.9-0.3,7c-1.6,3.4-4.5,6.1-7.8,7.9c-5.3,2.9-11.6,3.7-17.6,2.8
		c-4.8-0.8-9.6-2.8-13.1-6.4c-2.8-2.8-4.5-6.8-3.9-10.8c0.1-0.6,0.1-1.5,0.8-1.5c0.5-0.2,1.1,0.1,1.2,0.7c1.3,3.7,4.2,6.7,7.6,8.6
		c3.8,2.1,8.4,3.2,12.7,2.1c1.4-0.4,2.9-1,3.9-2.1c0.8-0.9,0.9-2.3,0.3-3.3c-1-1.8-2.7-3-4.5-3.9c-2-1-4.1-1.7-6.3-1.8
		c-3.9-0.4-7.5-3.1-9-6.7c-1.6-3.7-1-8.3,1.6-11.4c-3.8-0.7-7.5-2.4-10-5.3c-2.3-2.6-3.5-6.1-3.3-9.6c0.2-4,2-7.8,4.4-10.9
		c2.3-2.9,5.2-5.1,8.5-6.9C11.1,131.2,6.1,125,3,118c-2.5-5.9-3.7-12.5-2.6-18.9c0.8-4.5,3-8.9,6.5-12c3.3-3,7.6-4.7,12-5.1
		c6.2-0.5,12.4,1.3,17.8,4.4c4.4,2.5,8.3,5.9,11.5,9.8c1-5.3,3.3-10.5,7.1-14.4c3.5-3.6,8.2-5.9,13.2-6.5c5.7-0.7,11.5,0.6,16.6,3
		c7.1,3.4,13.2,8.9,17.8,15.2c2.4,3.3,4.3,6.8,6,10.5c1.9-1.4,4.1-2.4,6.3-3.4c-7.8-4.1-13.9-10.9-17.8-18.7
		c-3.9-7.8-5.9-16.8-4.7-25.5c0.7-4.9,2.4-9.7,5.5-13.5c2.7-3.4,6.6-5.9,10.9-6.8c3.5-0.8,7.3-0.6,10.8,0.4c-1.8-2.8-2.9-6.1-3-9.5
		c-0.2-4.4,1.1-8.9,3.8-12.4c2.8-3.7,7-6.3,11.5-7.2c4.3-0.9,9-0.1,12.9,2c2.1,1.3,4.3,2.4,6.1,4.1c3.5,3.1,6,7.2,7.3,11.7
		c0.9-4.2,2.1-8.5,4.5-12.1c1.4-2.1,3.2-4.1,5.7-5.1c2.1-0.9,4.5-0.7,6.5,0.2c2.3,1.1,4.1,3,5.6,5.1c1.4-2.5,3.1-4.7,5-6.8
		C188.5,3.5,192.4,1.2,196.6,0.4 M195.9,2c-3.8,1-7.2,3.2-9.8,6.2c-1.8,2-3.4,4.1-4.6,6.5c2.2,3.6,3.7,7.7,4.7,11.9
		c0.3,1.3,0.7,2.6,0.5,4c-0.4,2.5-2.9,4.6-5.4,4.4c-2.9,0-5.5-2.6-5.3-5.5c0.4-5.1,1.6-10.1,3.9-14.7c-1.5-2.3-3.5-4.4-6.1-5.4
		c-2.1-0.8-4.5-0.4-6.2,0.9c-2.7,1.9-4.3,4.9-5.6,7.8c-2,5.1-2.9,10.6-3,16.1c0,0.3,0,0.7-0.3,0.9c-0.5,0.4-1.2-0.1-1.1-0.7
		c0-1.4,0.2-2.8,0.2-4.2c0.1-1.5-0.3-3-0.6-4.4c-1.3-4.8-4.2-9.2-8.2-12.2c-1.8-1.5-4-2.3-5.9-3.5c-1.3-0.6-2.7-1.1-4.2-1.2
		c-3.4,1.2-5.9,4.2-7,7.6c-1.4,4.3-0.9,9,0.4,13.2c1.5,4.7,4.1,9.1,7.4,12.7c1.2-1.3,2.3-2.8,3.8-3.8c1,0.3,1.9,0.9,2.7,1.5
		c3.4,2.3,6.1,5.5,8.3,9c2.6,4.3,4.4,9.1,5.5,14.1c1.9-1.3,3.8-2.5,6-3.4c6.3-2.6,13.6-2.8,20-0.4c3.9,1.4,7.4,3.8,10.4,6.8
		c0.1-3.1-0.1-6.1,0.2-9.2c0.2-1.4-0.3-2.8-0.5-4.2c-1.2-7-1.2-14.3,0.9-21.1c1.3-4.1,3.5-8.1,6.9-10.9c2.8-2.2,6.4-3.3,10-2.9
		c3.3,0.3,6.5,1.7,9.2,3.7c3.4,2.3,6.2,5.4,8.6,8.7c-1.6-4.6-3.8-9.1-6.5-13.1c-3.8-5.6-8.8-10.5-14.9-13.4
		C205.7,1.6,200.6,0.7,195.9,2 M127.2,10.8c-1.1,0.6-2.3,1.3-2.9,2.4c-1.8,2.9-2.4,6.4-2,9.7c0.5,4.6,2.3,8.9,4.9,12.6
		c2.7,3.9,6.2,7.4,10.2,9.9c0.6-0.8,1.2-1.7,1.8-2.5c-4.4-4.9-7.8-11.1-8.7-17.7c-0.6-4.2-0.1-8.7,2.2-12.3c1.2-1.8,2.9-3.3,4.7-4.3
		C133.9,8.3,130.3,9,127.2,10.8 M120.5,34.9c0.6,1.3,1.7,2.2,2.3,3.5c0.1,0.5-0.5,0.6-0.9,0.7c-0.5-0.4-0.9-0.8-1.5-1
		c-4.3-1.4-9.1-1.6-13.3,0c-3.8,1.4-7,4.2-9.2,7.6c-1.5,2.2-2,4.9-2,7.6c-0.1,4.8,2.2,9.6,5.8,12.7c3.2,2.8,7.6,4.2,11.9,3.9
		c1.4-0.1,2.7-0.4,4.1-0.7c0.3,3,1.9,5.7,4.3,7.5c2.4,1.9,5.6,2.7,8.7,2.3c-1.5-11.2,0.5-23.1,6.4-32.8c-6.5-4.3-11.9-10.6-14.3-18
		c-1.5-4.4-1.7-9.3,0-13.6C117.6,19.9,116.8,28.5,120.5,34.9 M180.7,16.2c-2,4.1-3,8.5-3.4,13c-0.1,1.3,0.4,2.6,1.4,3.5
		c1.6,1.4,4.3,1.1,5.6-0.6c1-1.1,1-2.6,0.7-4C184.2,24,182.9,19.9,180.7,16.2 M203,22.4c-3.1,3-4.9,7.1-6,11.3
		c-1.6,6.5-1.4,13.3-0.2,19.9c0.2-2.7,0.8-5.3,1.4-7.9c1-3.9,2.5-7.8,5-11c1.7-2.1,4.1-3.9,6.9-3.9c2.4-0.1,4.7,1.1,6.5,2.7
		c3.3,3.1,5.4,7.3,7.1,11.5c0.9,1.9,2.2,3.5,3.7,4.9c1.9,1.8,4.6,3.2,7.3,2.9c2.7-0.2,4.9-2,6.4-4.1c2.3-3.2,3.4-7.2,3.8-11.1
		c0.4-4.4,0-8.9-1.1-13.1c-0.7,6.4-3.5,12.6-7.4,17.7c-0.4,0.7-2.1,1.1-2.1-0.1c-0.3-2-0.6-4.1-1.1-6c-0.4-1.3-0.5-2.8-1.3-4
		c-2.7-4.1-6.1-7.9-10.2-10.5c-2.8-1.8-6.1-3-9.5-3C208.7,18.5,205.4,20,203,22.4 M200,45.9c-0.4,0.3-0.6,0.7-0.7,1.1
		c-0.9,3.7-1.3,7.4-1.5,11.2c3.7,0.6,7.3,2,10.4,4.1c1.2-2.7,2-5.6,2.2-8.5c0.4-4.2-0.4-8.6-2.7-12.2C204.9,42.6,202.3,44,200,45.9
		 M95.1,51.7c-2,6.6-1.8,13.7,0,20.4c0.3,1.1,0.5,2.2,1.1,3.1c2.5,3.7,5.8,6.7,9.7,8.9c7.8,4.5,17.8,5.2,26.1,1.5
		c-0.4-1.9-1-3.8-1.3-5.8c-2,0.1-4.2,0.1-6.1-0.7c-3.9-1.4-6.8-4.9-7.6-8.9c-3.3,0.8-6.9,0.8-10.1-0.4c-3.9-1.3-7.3-4.1-9.4-7.7
		C95.6,58.9,94.9,55.2,95.1,51.7 M67.8,76.9c-4.7,0.8-9.1,3.2-12.2,6.9c-3.3,3.8-5.2,8.6-6,13.5c-0.1,0.6-0.2,1.4-1,1.5
		c-0.8-0.5-1.3-1.3-1.9-2C41,90,33,84.8,24.1,83.6C19.2,83,14,83.9,9.9,86.7c-3.9,2.6-6.6,6.7-7.6,11.2c-1.5,6-0.6,12.5,1.6,18.2
		c3,7.6,8.3,14.2,15,18.8c0.2,0.2,0.6,0.4,0.6,0.7c0.1,0.7-0.7,1-1.2,1.4c-5.3,2.7-9.9,7.3-11.7,13c-1,3.4-0.8,7.2,1.1,10.2
		c2,3.5,5.8,5.6,9.7,6.4c0.8,0.2,1.7,0.2,2.4,0.6c0.6,0.6-0.1,1.2-0.5,1.7c-2.6,2.8-3.2,7.3-1.4,10.7c1.1,2.3,3.2,4.1,5.6,4.9
		c1.5,0.5,3.2,0.3,4.7,0.9c3.3,0.9,6.7,2.5,8.7,5.4c1.2,1.6,1.4,4.1,0,5.7c-1.5,1.7-3.8,2.5-6,2.9c-7.8,1.1-16.1-3-19.9-9.8
		c0.1,2.7,1.3,5.3,3.1,7.4c2.6,2.9,6.1,4.8,9.8,5.9c5.5,1.5,11.4,1.3,16.7-0.7c3.3-1.3,6.5-3.3,8.6-6.1c1-1.6,2.2-3.3,2.3-5.3
		c0.1-1.9-0.9-3.8-2.3-5c-2-1.8-4.5-2.9-7.1-3.7c-1.1-0.4-2.4-0.5-3.5-1c-0.4-0.2-0.7-0.8-0.4-1.1c0.3-0.5,0.9-0.3,1.4-0.2
		c4.3,0.8,8.7,0.5,12.8-0.9c-1.8-0.2-3.7-0.4-5.5-1.1c-3.4-1.3-6.3-4.1-7.3-7.6c-1.2-3.7-0.3-7.8,1.7-11.1c2.2-3.7,5.7-6.4,9.6-8.1
		c-8.5-6.2-16.3-13.5-22.5-22.1c-3-4.3-5.7-8.9-7-14c-0.6-2.7-0.8-5.7,0.5-8.3c1.1-2.1,3.3-3.5,5.6-3.9c3.9-0.8,7.9,0.1,11.7,1.2
		c7.7,2.5,14.8,6.7,21.3,11.5c-1-5.1-1.1-10.7,1.4-15.4c1.6-3.2,4.8-5.5,8.3-6c4.8-0.7,9.6,1,13.7,3.4c7.3,4.4,12.9,11,17.1,18.3
		c0.5-2.4,1.5-4.8,2.9-6.8c1-1.4,2.3-2.6,3.6-3.8c-1.5-3.4-3.2-6.7-5.4-9.7C97.6,88.6,91.4,82.9,84,79.5
		C78.9,77.2,73.3,76,67.8,76.9 M96.9,77.5c0.9,2.6,2.2,5,3.6,7.3c4,6.6,9.8,12.3,17,15.5c0.3,0.1,0.6,0.3,0.8,0.5
		c0.4,0.3,0,0.7,0,1.1c-1.2-0.2-2.6-0.2-3.4,0.9c-2.3,3.3-3.9,7-4.7,10.9c-0.5,2.8-0.6,5.9,0.4,8.6c0.6,1.5,1.8,2.9,3.4,3.4
		c1.9,0.5,3.9-0.3,5.5-1.3c2.6-1.7,4.6-4.3,6.1-7c0.2-0.4,0.6-0.7,1.1-0.8c-0.3,1.5-1.6,2.6-1.6,4.1c-0.2,2.4,1.5,4.4,3.3,5.8
		c3.2,2.4,7.1,3.5,11,4c4.7,0.5,9.6,0,13.9-2c0.1,0.3,0.2,0.6,0.3,0.8c-2.8,1.2-5.4,2.9-7.6,5c-3.3,3.2-6.1,7.1-7.4,11.5
		c-0.5,1.8,0.2,3.6,1.4,4.9c2.7,3.2,6.7,4.9,10.7,5.8c3.2,0.9,5.5,4.2,5.3,7.6c0,1.3-0.5,2.4-1,3.6c0.8-0.5,1.6-1,2.2-1.8
		c1-1.4,0.8-3.3,0.1-4.8c-1-2.3-3-3.9-5-5.4c1.1-0.9,2.4-1.3,3.6-2c4.1-2.4,7.6-5.9,9.7-10.2c1.4-3,2-6.4,1.4-9.6
		c-0.6-3.8-2.7-7.3-5.7-9.8c-4.1-3.5-9.5-5.1-14.8-5.3c-2.6,3.4-6.1,6.2-10,7.9c-1.1,0.6-2.5,0.8-3.7,0.2c-1.9-0.8-2.8-3.3-1.8-5.1
		c0.7-1.6,2.5-2.2,4.1-2.7c3.3-1.1,6.8-1.8,10.4-1.7c2.1-2.9,3.8-6.1,4.4-9.7c0.6-3.4-0.1-7-2.2-9.8c-1.9-2.7-4.9-4.4-8-5.3
		c-4-1.2-8.3-1.2-12.5-0.8c-0.8,0.2-0.8-0.7-0.9-1.2c2.4-0.6,4.9-0.5,7.3-0.5c-0.5-1.2-1-2.5-1.4-3.7c-4.5,1.9-9.4,2.7-14.2,2.3
		c-5.4-0.4-10.7-2.4-15.1-5.5C100.7,81.5,98.8,79.5,96.9,77.5 M70.1,94.7c-3.3,0.6-6.2,3-7.6,6c-1.7,3.7-2,8-1.4,12
		c0.1,1.2,0.5,2.4,0.6,3.7c-0.1,0-0.3,0.1-0.4,0.1c-1.1-0.6-2.1-1.5-3.2-2.2c-4.3-3-8.9-5.7-13.7-7.8c-4.3-1.9-8.9-3.4-13.6-3.5
		c-2.4,0-5,0.5-6.8,2.2c-1.7,1.6-2.2,4-2.1,6.3c0.2,3.5,1.6,6.8,3.1,10c2.2,4.3,5,8.2,8.1,11.8c5.5,6.4,11.8,12.1,18.7,17
		c0.3,0.2,0.5,0.4,0.5,0.8c-1.3,0.7-2.7,1.1-3.9,1.9c-4.3,2.6-7.7,6.9-8.3,12c-0.5,3.4,0.7,6.9,3.2,9.3c2.8,2.7,7,3.8,10.8,3.5
		c1.3,0,2.4-0.8,3.5-1.4c5.2-3.1,9.3-7.9,11.3-13.6c2-5.4,2.1-11.6,0.3-17.1c-7.8-0.4-15.3-3.8-21.2-8.8c-1.7-1.3-2.8-3.4-3-5.5
		c-0.2-1.6,0.8-3.3,2.3-3.9c1.7-0.8,3.7-0.7,5.5-0.2c8.1,2.5,14.7,8.9,17.6,16.9c4.7,0.1,9.5-1.4,12.9-4.8c3-2.9,4.4-7.2,4.2-11.3
		c-0.2-5.5-2.5-10.7-5.8-15c-1.7-2.3-3.7-4.2-5.8-6.1c-0.7-0.7,0.5-1.8,1.1-1c2.7,2.2,5.1,4.9,7.1,7.8c0.7,0.9,1.1,2.2,2.1,2.8
		c2,1.2,3.8,2.7,5.4,4.3c5.8,6,9.3,14.1,10.1,22.4c1.1-0.6,2.2-1.3,3.4-1.8c0.5-0.3,1.1-0.4,1.4-0.9c1.5-2.1,2.6-4.5,3.4-7
		c-2.3-1.7-4.4-3.7-5.9-6c-1.9-2.8-3.1-6.2-3-9.6c0.1-1.4-0.8-2.4-1.4-3.6c-4.2-6.9-9.8-13.1-16.9-17.1
		C78.8,95.3,74.4,93.8,70.1,94.7 M104.7,110.4c-1.9,3-2.8,6.7-2.1,10.2c0.7,4.3,3.4,7.9,6.7,10.7c3.9,3.2,8.6,5.3,13.5,6.4
		c2.6-2.7,6.3-4.2,9.9-4.6c2-0.2,4.3-0.1,5.8,1.2c1.2,1,1,2.9,0.1,4c-0.9,1.3-2.5,1.9-3.9,2.4c-3.8,1.1-8.2,1.3-11.7-0.7
		c0.1,2.5,1.5,4.6,3.2,6.4c2.8,3,6.5,4.9,10.1,6.9c1.6,0.9,3.5,1.1,5.1,2c1.8,0.9,3.4,2.2,4.5,3.9c0.5,0.8,0.9,1.9,0.5,2.9
		c-0.4,1.1-1.5,1.6-2.6,1.6c-2.7,0.1-5.2-1.2-7.3-2.7c3.2,4.7,8.9,7.3,14.4,7.5c1.2-0.1,3,0.1,3.6-1.2c1.7-2.7,1.1-6.6-1.4-8.7
		c-1.4-1.3-3.5-1.4-5.3-2.1c-3.1-1.1-6.2-2.7-8.3-5.3c-1.3-1.6-2.1-3.7-1.4-5.7c1.9-6.1,6.2-11.2,11.4-14.7
		c-2.8,0.6-5.8,0.9-8.7,0.6c-4.4-0.3-8.8-1.5-12.4-4c-2.2-1.5-4.1-3.8-4-6.6c-1.8,2.3-4.1,4.5-6.9,5.4c-1.9,0.7-4.2,0.4-5.7-1.1
		c-2-1.9-2.6-4.9-2.5-7.6c0-5.3,2-10.3,4.8-14.8C110.3,104.4,106.9,107,104.7,110.4 M204.7,104.7c-1.4,3.8-2.3,7.9-2.2,12
		c0.1,0.1,0.4,0.2,0.5,0.3l-0.2,0.1c-0.1,0.1-0.2,0.3-0.2,0.4c0.1,3,0.8,6.2,2.7,8.6c0.5,0.8,1.5,0.4,2.3,0.5
		c1.1-0.1,0.8-1.3,0.9-2.1c0.4-3.5,1.4-6.9,2.9-10C207.6,112.4,205.2,108.7,204.7,104.7 M134,120.9c-1,0.4-1.9,1.2-1.9,2.4
		c-0.1,1.6,1.6,2.9,3.1,2.3c3.7-1.4,6.9-3.9,9.4-6.9C141,118.7,137.4,119.5,134,120.9 M48.5,128.7c-1,0.3-1.9,1.1-1.9,2.2
		c0,1.7,0.9,3.4,2.1,4.5c5.6,4.8,12.6,8.1,20,8.7c-2.8-7.1-8.7-12.8-15.9-15.2C51.4,128.4,49.9,128.3,48.5,128.7 M108.5,140.3
		c4.5-1.2,9.6-0.5,13.5,2.1c-0.3-1.2-0.4-2.4-0.2-3.5c-3.7-0.9-7.3-2.3-10.6-4.4C110.5,136.5,109.6,138.5,108.5,140.3 M131.2,134.7
		c-2.7,0.7-5.5,1.8-7.4,4c1.6,1.1,3.6,1.3,5.5,1.3c2.3,0,4.8-0.2,6.8-1.5c0.8-0.5,1.6-1.2,1.7-2.2c0.1-0.9-0.7-1.4-1.5-1.6
		C134.7,134.2,132.9,134.4,131.2,134.7 M183.3,170.2c-0.7,0.5-1.7,0.9-2,1.9c-0.6,1.5-1.3,2.9-2,4.3c2.4-0.3,4.9-0.5,7.4-0.3
		c1.8,2.3,3.2,4.9,4.6,7.5c0.2-2.4,0.7-4.8,1.7-7c0.2-0.3,0.2-0.8,0.6-0.8c0.7-0.3,1.2,0.6,0.8,1.1c-1.3,3.1-1.9,6.5-1.5,9.8
		c0.1,0.9,0.5,1.7,0.8,2.5c4.3,11.3,5,23.8,2,35.5c1.1,0.4,2.1,1.2,3.3,1.2c3.5-3,6.4-6.6,9-10.4c2.3-3.4,4.3-7,5.7-10.8
		c0.6-3.7,0.5-7.5,0.3-11.3c-0.7-10.5-3.6-20.8-8.6-30C197.4,163.2,189.8,166,183.3,170.2 M95.8,193.8c0.2,10.7-3.1,21.3-8.8,30.3
		c-0.6,1-1.6,1.9-1.6,3.2c-0.6,7.1,1.5,14.5,5.9,20.1c0.4,0.5,0.8,1.3,1.6,1c4.8-0.3,8.9-3.6,11.6-7.5c2.4-3.3,4-7,5.1-10.9
		c2.5-8.7,2.6-18.1,0.7-26.9c-1-0.7-2.1-1.3-2.9-2.3c-0.5-0.5,0.2-1.4,0.8-1.1c0.7,0.4,1.2,1,1.9,1.5c3.1,2.1,7.4,2.4,10.8,0.6
		c2.6-1.3,4.4-3.6,5.4-6.3c-6.3-1.8-12.5-4.3-17.7-8.3C105.4,191.1,100.8,193.9,95.8,193.8z"/>
	<path class="st0" d="M142.1,47.4c0.2-0.4,1.1-0.1,0.6,0.3c-3,3.8-3.1,9-2,13.6c0.6,2.6,1.7,5.1,3.1,7.4c1,1.6,2.3,3,3.2,4.6
		c0.6,0.9,0.9,1.9,1.5,2.8c2.4-3.4,3.4-7.7,3.3-11.9c0-2.9-0.5-5.9-1.6-8.6c-0.3-0.9-0.9-1.7-1.2-2.6c0.1-0.2,0.2-0.5,0.3-0.6
		c1.1,1.5,1.7,3.2,2.3,4.9c1.2,4,1.3,8.4,0.4,12.5c-0.6,2.6-1.6,5.1-3.3,7.3c0.7,2,1.3,4.2,1.5,6.3c0.3,0.5-0.8,0.4-0.7,0
		c-0.3-2-0.7-3.9-1.4-5.8c-0.3-0.8-0.6-1.8-1.3-2.4c-3.2-2.6-5.4-6.3-6.7-10.2c-1.3-4-1.7-8.4-0.7-12.6
		C140,50.7,140.8,48.9,142.1,47.4z"/>
	<path class="st0" d="M215.8,101.6l0.2-0.3c0.5,0.6,0.4,1.6,1,2.2c0.7,0.8,2,1.3,3,0.7c0.4-0.2,0.8-1,1.2-0.3
		c-0.5,1.5-2.3,2.4-3.8,1.8C215.8,105.1,214.9,103,215.8,101.6z"/>
</g>
<g>
	<path class="st1" d="M195.9,2c4.7-1.3,9.9-0.4,14.2,1.7c6.1,2.9,11.1,7.9,14.9,13.4c2.8,4.1,4.9,8.5,6.5,13.1
		c-2.4-3.3-5.2-6.4-8.6-8.7c-2.7-1.9-5.9-3.3-9.2-3.7c-3.5-0.4-7.2,0.7-10,2.9c-3.4,2.7-5.6,6.7-6.9,10.9
		c-2.1,6.8-2.1,14.1-0.9,21.1c0.2,1.4,0.7,2.8,0.5,4.2c-0.3,3.1-0.1,6.1-0.2,9.2c-2.9-2.9-6.4-5.4-10.4-6.8
		c-6.4-2.4-13.7-2.2-20,0.4c-2.1,0.9-4.1,2.1-6,3.4c-1.1-4.9-2.8-9.8-5.5-14.1c-2.1-3.5-4.9-6.7-8.3-9c-0.9-0.6-1.7-1.2-2.7-1.5
		c-1.5,1-2.6,2.4-3.8,3.8c-3.3-3.6-5.9-8-7.4-12.7c-1.3-4.2-1.8-8.9-0.4-13.2c1.1-3.4,3.6-6.4,7-7.6c1.4,0.1,2.8,0.6,4.2,1.2
		c1.9,1.2,4.1,2.1,5.9,3.5c4,3,6.9,7.4,8.2,12.2c0.4,1.4,0.7,2.9,0.6,4.4c0,1.4-0.3,2.8-0.2,4.2c-0.1,0.6,0.7,1.1,1.1,0.7
		c0.3-0.2,0.3-0.6,0.3-0.9c0.2-5.5,1-11,3-16.1c1.2-3,2.9-5.9,5.6-7.8c1.8-1.3,4.2-1.7,6.2-0.9c2.6,1,4.5,3.1,6.1,5.4
		c-2.3,4.6-3.5,9.6-3.9,14.7c-0.2,2.9,2.4,5.6,5.3,5.5c2.6,0.1,5-1.9,5.4-4.4c0.2-1.3-0.2-2.7-0.5-4c-1-4.1-2.5-8.2-4.7-11.9
		c1.2-2.4,2.9-4.5,4.6-6.5C188.7,5.2,192.1,2.9,195.9,2z"/>
	<path class="st1" d="M127.2,10.8c3.1-1.8,6.7-2.5,10.2-2.2c-1.9,1.1-3.6,2.5-4.7,4.3c-2.3,3.6-2.8,8.2-2.2,12.3
		c0.9,6.6,4.3,12.8,8.7,17.7c-0.6,0.8-1.2,1.7-1.8,2.5c-4-2.6-7.5-6-10.2-9.9c-2.6-3.8-4.4-8.1-4.9-12.6c-0.4-3.3,0.2-6.9,2-9.7
		C124.9,12.1,126.1,11.4,127.2,10.8z"/>
	<path class="st1" d="M120.5,34.9c-3.7-6.3-2.8-15,2.2-20.4c-1.7,4.4-1.5,9.2,0,13.6c2.5,7.5,7.8,13.7,14.3,18
		c-5.9,9.7-7.9,21.6-6.4,32.8c-3,0.4-6.2-0.4-8.7-2.3c-2.3-1.8-4-4.5-4.3-7.5c-1.4,0.3-2.7,0.6-4.1,0.7c-4.3,0.3-8.6-1.1-11.9-3.9
		c-3.7-3.1-5.9-7.9-5.8-12.7c0-2.6,0.5-5.4,2-7.6c2.2-3.4,5.4-6.2,9.2-7.6c4.2-1.6,9-1.4,13.3,0c0.6,0.2,1.1,0.6,1.5,1
		c0.3-0.2,0.9-0.2,0.9-0.7C122.2,37.1,121.1,36.1,120.5,34.9z"/>
	<path class="st1" d="M180.7,16.2c2.2,3.7,3.4,7.8,4.4,11.9c0.3,1.3,0.3,2.9-0.7,4c-1.3,1.7-4,1.9-5.6,0.6c-1-0.8-1.6-2.2-1.4-3.5
		C177.8,24.7,178.8,20.3,180.7,16.2z"/>
	<path class="st1" d="M203,22.4c2.4-2.4,5.7-3.9,9.1-3.8c3.4-0.1,6.6,1.2,9.5,3c4.2,2.7,7.5,6.4,10.2,10.5c0.8,1.2,1,2.6,1.3,4
		c0.5,2,0.8,4,1.1,6c0,1.2,1.7,0.8,2.1,0.1c3.9-5.1,6.7-11.2,7.4-17.7c1.2,4.3,1.5,8.7,1.1,13.1c-0.4,3.9-1.5,7.9-3.8,11.1
		c-1.5,2.1-3.7,3.9-6.4,4.1c-2.7,0.3-5.4-1.1-7.3-2.9c-1.5-1.4-2.9-3-3.7-4.9c-1.7-4.2-3.8-8.4-7.1-11.5c-1.8-1.6-4-2.9-6.5-2.7
		c-2.8,0-5.2,1.8-6.9,3.9c-2.5,3.2-3.9,7.1-5,11c-0.6,2.6-1.2,5.2-1.4,7.9c-1.2-6.5-1.3-13.4,0.2-19.9C198,29.5,199.9,25.4,203,22.4
		z"/>
	<path class="st1" d="M95.1,51.7c-0.2,3.6,0.5,7.3,2.3,10.4c2.1,3.6,5.4,6.4,9.4,7.7c3.2,1.1,6.8,1.2,10.1,0.4
		c0.9,4,3.8,7.5,7.6,8.9c1.9,0.8,4,0.8,6.1,0.7c0.3,2,0.8,3.9,1.3,5.8c-8.2,3.8-18.3,3-26.1-1.5c-3.8-2.2-7.2-5.3-9.7-8.9
		c-0.6-0.9-0.8-2.1-1.1-3.1C93.4,65.4,93.1,58.3,95.1,51.7z"/>
	<path class="st1" d="M67.8,76.9c5.5-1,11.2,0.2,16.2,2.5c7.4,3.4,13.6,9.1,18.3,15.8c2.1,3,3.9,6.3,5.4,9.7
		c-1.3,1.2-2.6,2.4-3.6,3.8c-1.5,2-2.5,4.3-2.9,6.8c-4.2-7.3-9.8-14-17.1-18.3c-4.1-2.4-8.9-4.2-13.7-3.4c-3.5,0.5-6.7,2.8-8.3,6
		c-2.5,4.7-2.4,10.3-1.4,15.4c-6.5-4.8-13.6-9-21.3-11.5c-3.8-1.1-7.8-2-11.7-1.2c-2.3,0.4-4.5,1.8-5.6,3.9
		c-1.3,2.5-1.1,5.6-0.5,8.3c1.3,5.1,4,9.7,7,14c6.2,8.6,14,15.9,22.5,22.1c-3.9,1.7-7.4,4.4-9.6,8.1c-2,3.3-2.9,7.4-1.7,11.1
		c1,3.5,3.9,6.3,7.3,7.6c1.7,0.7,3.6,0.9,5.5,1.1c-4.1,1.4-8.6,1.7-12.8,0.9c-0.5,0-1.1-0.3-1.4,0.2c-0.3,0.4-0.1,1,0.4,1.1
		c1.1,0.5,2.3,0.6,3.5,1c2.5,0.8,5.1,1.9,7.1,3.7c1.4,1.3,2.4,3.1,2.3,5c-0.1,2-1.3,3.7-2.3,5.3c-2.1,2.9-5.3,4.9-8.6,6.1
		c-5.3,2-11.3,2.2-16.7,0.7c-3.7-1.1-7.3-2.9-9.8-5.9c-1.8-2-3-4.6-3.1-7.4c3.9,6.8,12.1,11,19.9,9.8c2.2-0.4,4.5-1.2,6-2.9
		c1.4-1.6,1.2-4.1,0-5.7c-2.1-2.9-5.4-4.4-8.7-5.4c-1.5-0.5-3.2-0.3-4.7-0.9c-2.4-0.8-4.5-2.6-5.6-4.9c-1.8-3.4-1.2-7.9,1.4-10.7
		c0.4-0.4,1.1-1.1,0.5-1.7c-0.7-0.4-1.6-0.4-2.4-0.6c-3.9-0.8-7.7-2.9-9.7-6.4c-1.9-3-2.1-6.9-1.1-10.2c1.8-5.8,6.4-10.3,11.7-13
		c0.5-0.3,1.3-0.6,1.2-1.4c0-0.4-0.4-0.5-0.6-0.7c-6.7-4.6-12-11.2-15-18.8c-2.2-5.7-3.1-12.2-1.6-18.2c1.1-4.5,3.8-8.6,7.6-11.2
		c4.1-2.8,9.3-3.7,14.2-3.1C33,84.8,41,90,46.7,96.8c0.6,0.7,1.1,1.6,1.9,2c0.8-0.1,0.9-0.9,1-1.5c0.7-4.9,2.7-9.8,6-13.5
		C58.7,80.2,63.1,77.7,67.8,76.9z"/>
	<path class="st1" d="M96.9,77.5c1.8,2,3.8,4,6,5.6c4.4,3.2,9.7,5.1,15.1,5.5c4.8,0.4,9.7-0.4,14.2-2.3c0.4,1.2,0.9,2.5,1.4,3.7
		c-2.4,0-4.9-0.1-7.3,0.5c0.1,0.5,0.1,1.4,0.9,1.2c4.2-0.5,8.5-0.5,12.5,0.8c3.1,0.9,6.1,2.7,8,5.3c2.1,2.8,2.8,6.4,2.2,9.8
		c-0.6,3.5-2.3,6.8-4.4,9.7c-3.5-0.1-7,0.6-10.4,1.7c-1.5,0.5-3.3,1.1-4.1,2.7c-1,1.8-0.1,4.3,1.8,5.1c1.2,0.6,2.5,0.4,3.7-0.2
		c3.9-1.8,7.4-4.5,10-7.9c5.3,0.2,10.7,1.9,14.8,5.3c3,2.5,5.1,6,5.7,9.8c0.5,3.3,0,6.6-1.4,9.6c-2,4.3-5.6,7.8-9.7,10.2
		c-1.2,0.7-2.5,1.2-3.6,2c1.9,1.5,3.9,3.1,5,5.4c0.7,1.5,0.9,3.4-0.1,4.8c-0.5,0.8-1.4,1.3-2.2,1.8c0.5-1.1,1-2.3,1-3.6
		c0.2-3.3-2.1-6.7-5.3-7.6c-4-0.9-8-2.6-10.7-5.8c-1.1-1.3-1.9-3.2-1.4-4.9c1.3-4.4,4-8.3,7.4-11.5c2.2-2.1,4.8-3.8,7.6-5
		c-0.1-0.3-0.2-0.6-0.3-0.8c-4.3,2.1-9.2,2.6-13.9,2c-3.9-0.5-7.8-1.6-11-4c-1.8-1.4-3.5-3.4-3.3-5.8c0.1-1.6,1.3-2.7,1.6-4.1
		c-0.5,0.1-0.9,0.3-1.1,0.8c-1.5,2.7-3.5,5.2-6.1,7c-1.6,1.1-3.6,1.8-5.5,1.3c-1.6-0.4-2.8-1.8-3.4-3.4c-1.1-2.7-1-5.8-0.4-8.6
		c0.8-3.9,2.4-7.7,4.7-10.9c0.7-1.1,2.2-1.1,3.4-0.9c0-0.4,0.3-0.8,0-1.1c-0.3-0.2-0.5-0.3-0.8-0.5c-7.2-3.1-12.9-8.9-17-15.5
		C99.1,82.4,97.8,80,96.9,77.5z"/>
	<path class="st1" d="M70.1,94.7c4.3-0.9,8.8,0.6,12.6,2.7c7.1,4,12.7,10.2,16.9,17.1c0.6,1.1,1.6,2.2,1.4,3.6
		c-0.1,3.4,1.1,6.8,3,9.6c1.6,2.4,3.6,4.4,5.9,6c-0.8,2.5-1.9,4.8-3.4,7c-0.3,0.5-0.9,0.7-1.4,0.9c-1.2,0.5-2.3,1.2-3.4,1.8
		c-0.8-8.3-4.3-16.4-10.1-22.4c-1.6-1.6-3.4-3.1-5.4-4.3c-1.1-0.6-1.4-1.9-2.1-2.8c-2-2.9-4.4-5.6-7.1-7.8c-0.6-0.8-1.9,0.3-1.1,1
		c2.1,1.9,4.1,3.8,5.8,6.1c3.3,4.3,5.6,9.5,5.8,15c0.2,4.1-1.3,8.4-4.2,11.3c-3.3,3.4-8.2,4.8-12.9,4.8c-2.9-7.9-9.5-14.4-17.6-16.9
		c-1.8-0.4-3.8-0.5-5.5,0.2c-1.5,0.7-2.4,2.3-2.3,3.9c0.2,2.1,1.3,4.2,3,5.5c5.9,5,13.4,8.4,21.2,8.8c1.8,5.5,1.7,11.6-0.3,17.1
		c-2.1,5.7-6.1,10.5-11.3,13.6c-1.1,0.6-2.2,1.4-3.5,1.4c-3.9,0.2-8-0.8-10.8-3.5c-2.5-2.3-3.7-5.9-3.2-9.3c0.6-5.1,4.1-9.4,8.3-12
		c1.2-0.8,2.6-1.3,3.9-1.9c0-0.4-0.3-0.6-0.5-0.8c-6.9-4.9-13.2-10.6-18.7-17c-3.1-3.7-5.9-7.6-8.1-11.8c-1.6-3.1-2.9-6.4-3.1-10
		c-0.1-2.3,0.4-4.7,2.1-6.3c1.8-1.7,4.4-2.2,6.8-2.2c4.7,0.1,9.3,1.6,13.6,3.5c4.8,2.1,9.4,4.8,13.7,7.8c1.1,0.7,2,1.6,3.2,2.2
		c0.1,0,0.3-0.1,0.4-0.1c-0.1-1.2-0.4-2.4-0.6-3.7c-0.6-4-0.4-8.3,1.4-12C63.9,97.7,66.7,95.3,70.1,94.7z"/>
	<path class="st1" d="M104.7,110.4c2.2-3.5,5.6-6,9.3-7.7c-2.8,4.4-4.8,9.5-4.8,14.8c0,2.7,0.5,5.7,2.5,7.6c1.5,1.5,3.8,1.7,5.7,1.1
		c2.8-1,5.1-3.1,6.9-5.4c-0.1,2.8,1.8,5.1,4,6.6c3.6,2.5,8.1,3.7,12.4,4c2.9,0.3,5.8,0,8.7-0.6c-5.2,3.5-9.5,8.7-11.4,14.7
		c-0.7,2,0.1,4.2,1.4,5.7c2.1,2.6,5.2,4.2,8.3,5.3c1.8,0.7,3.8,0.8,5.3,2.1c2.5,2,3.1,5.9,1.4,8.7c-0.6,1.4-2.4,1.1-3.6,1.2
		c-5.6-0.2-11.2-2.8-14.4-7.5c2.2,1.4,4.6,2.8,7.3,2.7c1.1,0,2.2-0.5,2.6-1.6c0.4-1,0-2-0.5-2.9c-1.1-1.7-2.7-3-4.5-3.9
		c-1.6-0.9-3.5-1.1-5.1-2c-3.6-2-7.3-3.9-10.1-6.9c-1.6-1.7-3.1-3.9-3.2-6.4c3.6,2,7.9,1.8,11.7,0.7c1.4-0.5,3-1.1,3.9-2.4
		c0.9-1.2,1-3-0.1-4c-1.6-1.4-3.8-1.4-5.8-1.2c-3.7,0.5-7.4,1.9-9.9,4.6c-4.9-1.1-9.7-3.1-13.5-6.4c-3.3-2.7-5.9-6.4-6.7-10.7
		C101.9,117.1,102.8,113.4,104.7,110.4z"/>
	<path class="st1" d="M202.8,117l0.2-0.1c1.4,0.6,2.5,1.8,3.2,3.1c1.1,1.9,1.4,4.2,1.3,6.5c-0.8-0.1-1.8,0.3-2.3-0.5
		c-1.9-2.4-2.5-5.6-2.7-8.6C202.6,117.3,202.7,117.1,202.8,117z"/>
	<path class="st1" d="M134,120.9c3.4-1.4,7-2.2,10.7-2.2c-2.5,3-5.8,5.4-9.4,6.9c-1.5,0.6-3.2-0.7-3.1-2.3
		C132.1,122.1,133,121.2,134,120.9z"/>
	<path class="st1" d="M48.5,128.7c1.4-0.4,2.9-0.2,4.3,0.2c7.2,2.4,13.2,8.2,15.9,15.2c-7.4-0.6-14.4-3.9-20-8.7
		c-1.3-1.1-2.2-2.8-2.1-4.5C46.6,129.8,47.5,128.9,48.5,128.7z"/>
	<path class="st1" d="M131.2,134.7c1.7-0.4,3.5-0.5,5.2,0c0.7,0.2,1.6,0.8,1.5,1.6c-0.1,1-0.9,1.7-1.7,2.2c-2,1.3-4.5,1.5-6.8,1.5
		c-1.9,0-3.9-0.2-5.5-1.3C125.6,136.5,128.4,135.4,131.2,134.7z"/>
</g>
<g>
	<path class="st2" d="M132.5,62.2c1.6-8.1,5-16.2,11.2-22c4.8,2.7,8.4,7.1,10.8,11.9c2.3,4.5,3.8,9.4,4.5,14.4
		c0.3,1.7,0.2,3.5,0.3,5.3c0,0.7,1.3,0.8,1.4,0c0.2-2.4-0.1-4.8-0.4-7.2c6.5-5.2,15.6-7,23.6-4.5c4.7,1.4,8.9,4.2,12.1,7.9
		c0.4,0.4,0.8,1,1.4,0.7c0.6-0.3,0.5-1.1,0.5-1.7c-0.2-2.5-0.1-4.9-0.1-7.4c5.3,0.9,10.2,3.6,13.9,7.5c0.1,0.1,0.3,0.2,0.3,0.3
		c-1,1.1-2.6,1.9-2.9,3.4c-0.9,3.8-0.7,7.7-0.1,11.4c0.4,2.4,1,4.7,1.9,7c1.2,4,3.4,8,7.1,10.3c2.8-1.2,5.8-2.1,8.9-1.6
		c0.6,1.3,1.1,2.7,1.3,4.1c0.4,3.3-0.9,6.7-3.3,9c-2.6,2.5-6.5,3.6-10,2.8c-3.1-0.7-5.8-2.8-7.3-5.6c-1.3-2.3-1.5-5.1-1.1-7.6
		c-0.4-0.1-0.7-0.2-1.1-0.2c-0.5,0.2-0.8,0.8-1.1,1.3c-2.5,5-3.6,10.7-3.2,16.2c0.3,3.3,1.1,6.8,3.4,9.3c0.8,0.9,2.1,0.6,3.2,0.4
		c0.9-0.2,2.1-0.6,2.1-1.8c0.3-3.9,1.3-7.6,2.9-11.1c1.7,0.6,3.6,0.9,5.4,0.8c-0.9,1.9-2,3.8-3.6,5.3c-0.7,0.7-1.6,1.3-1.9,2.2
		c-0.7,1.7-1.1,3.5-1.4,5.3c-9.6,4.1-20.5,5-30.8,3.2c-2.3-0.5-4.6-0.9-6.7-1.9c-0.4-0.2-0.8-0.4-1.2-0.1c-0.3,0.4-0.1,1,0.3,1.2
		c2.5,1.5,5.3,2.5,8.1,3.2c-0.6,5.1-0.3,10.3,1.3,15.2c0.3,1,0.5,2,0.6,3c0.8,7.9-1,15.9-4.5,22.9c-0.3,0.6-0.6,1.4-1.4,1.4
		c-5.7,1.1-11.1,3.1-16.2,5.9c-0.9,0.5-1.8,0.9-2.5,1.6c-0.2,0.8,0.6,1.3,1.2,0.8c8-4.8,17.2-7.8,26.5-7.6
		c7.9,11.6,11.4,26.1,9.5,40.1c-1.3,9.8-5.1,19.1-11,27c-8.6-5.7-15.3-14.4-18.3-24.3c4.8-8.5,6.7-18.4,6-28.1
		c-0.1-0.3-0.1-0.8-0.5-1c-0.5-0.3-1.1,0.2-1,0.7c0,1.7,0.2,3.3,0.1,5c-3.9,1.3-8,2.2-12.2,2.4c-3.3,0.2-6.7,0-9.8-1.3
		c-1.3-0.6-2.8-1.6-3-3.2c-0.2-2-0.3-4.1-0.4-6.1c0-0.4-0.1-0.9-0.3-1.2c-0.4-0.3-1.1-0.3-1.2,0.2c-0.1,0.8,0,1.6,0.1,2.4
		c0.2,1.9,0.2,3.8,0.4,5.7c-4.7,0.4-9.5,0.1-14.1-0.8c-7.4-1.5-14.7-4.2-20.8-8.8c3.5-4.7,5.4-10.5,5.5-16.4c0-0.5,0-1.3-0.7-1.3
		c-0.6-0.2-0.8,0.6-0.8,1.1c0,4.8-1.3,9.6-3.9,13.7c-2,3.3-4.7,6.1-8.2,7.8c-2.7,1.3-5.8,1.6-8.6,0.6c-3.2-1.1-5.5-3.8-6.8-6.9
		c-0.4-0.9-0.6-1.9-1.1-2.8c-0.6-0.3-1.4,0.2-1.1,0.9c0.9,3.3,2.7,6.3,5.4,8.4c0.5,0.3,0.7,0.8,0.6,1.4c-0.5,10.2-3.3,20.5-9,29.1
		c-2.5,3.8-5.7,7.2-9.7,9.5c-3,1.7-6.6,2.7-10.1,2c-0.7-0.1-1.6-0.2-1.9-1c-1.9-3.5-3.1-7.4-3.8-11.4c-0.9-5.7-0.8-11.6,0.8-17.2
		c3.7-2.5,6.9-5.7,9.6-9.3c5.5-7.3,9.1-15.9,10.8-24.8c0.2-0.9,0.5-1.8,1.3-2.4c0.9-0.7,2.2-0.7,3.3-0.4c2.1,0.5,3.9,1.8,5.5,3.2
		c-0.2,2.4-0.3,4.9,0,7.3c0,0.7,0.9,0.9,1.3,0.3c0.2-1.2-0.1-2.4-0.1-3.6c0-4.8,0.9-9.5,2.6-14c0.3,1.8,1.2,3.6,2.9,4.6
		c-0.1,0.6-0.3,1.2-0.4,1.8c0.1,0,0.4,0,0.6,0c0.8,0.8,1.5,2,1.2,3.2c-0.2,1.5-1.3,2.7-2.4,3.8c-1.2,1.2-1.9,3-1.5,4.7
		c0.2,0.9,1,1.6,1.9,1.3c1.4-0.3,2.5-1.7,2.8-3.1c-0.9,0.9-1.5,2.3-2.9,2.6c-0.7,0.2-1.3-0.4-1.4-1c-0.3-1.7,0.5-3.4,1.7-4.5
		c1.2-1.1,2.2-2.5,2.3-4.1c0.1-1.1-0.5-2-1-2.9c0.5,0,1-0.1,1.5-0.1c-0.3-0.6-0.5-1.3-0.8-1.9c0.9-1.1,1.5-2.5,1.5-3.9
		c0-2.1-0.6-4.7-2.7-5.7c-0.1-0.1-0.4-0.2-0.5-0.3c2.5-4,5.7-7.7,9.7-10.2c2.9-1.8,6.3-3,9.7-3.1c4.5-0.1,9,1.9,11.7,5.5
		c3,3.5,7.1,5.8,11.1,8c1.7,0.9,3.7,1.2,5.4,2.2c1.5,0.9,3,2,3.7,3.6c0.3,0.6,0.3,1.6-0.5,1.7c-2.4,0.5-4.8-0.8-6.7-2.1
		c-1.4-0.9-2.2-2.5-3.5-3.5c-0.1,1.1-0.2,2.3,0.2,3.3c1.1,2.9,3.5,5.2,6,6.8c3.6,2.2,7.8,3.5,12,3.1c2-0.2,4.1-0.9,5.5-2.5
		c1.2-1.3,1.7-3.3,1.3-5c-0.5-2.6-2.4-4.8-4.4-6.5c5.1-2.6,9.6-6.6,12-11.8c2-4.1,2.4-9,0.9-13.3c-1.3-3.8-4.1-7.1-7.4-9.3
		c-3.8-2.6-8.4-3.8-13-4.2c2.5-3.6,4.3-7.9,4.2-12.3c0-3.7-1.6-7.3-4.3-9.8c-3.2-3-7.6-4.5-11.9-5C131.3,81.5,130.7,71.5,132.5,62.2
		 M142.1,47.4c-1.3,1.4-2.1,3.2-2.6,5.1c-1.1,4.1-0.6,8.5,0.7,12.6c1.3,3.9,3.5,7.6,6.7,10.2c0.8,0.6,1,1.5,1.3,2.4
		c0.7,1.9,1.1,3.8,1.4,5.8c-0.1,0.4,0.9,0.5,0.7,0c-0.1-2.2-0.8-4.3-1.5-6.3c1.6-2.1,2.7-4.7,3.3-7.3c0.9-4.1,0.8-8.4-0.4-12.5
		c-0.5-1.7-1.2-3.5-2.3-4.9c-0.1,0.2-0.2,0.5-0.3,0.6c0.3,0.9,0.9,1.7,1.2,2.6c1.1,2.7,1.6,5.7,1.6,8.6c0,4.2-1,8.4-3.3,11.9
		c-0.6-0.9-1-1.9-1.5-2.8c-0.9-1.6-2.2-3-3.2-4.6c-1.4-2.3-2.5-4.8-3.1-7.4c-1.1-4.5-1-9.8,2-13.6C143.1,47.3,142.2,47,142.1,47.4
		 M171.9,73.1c-3.3,1.4-6.1,4-7.8,7.2c-1.3-0.2-2.6-0.6-3.6-1.3c-1.5-0.9-2.4-2.4-3.1-4c0,1.3,0.3,2.6,1,3.8
		c1.1,1.8,2.9,2.9,4.9,3.5c-0.4,1-0.7,2.1-0.9,3.1c-1.7,0.2-3.4,0.1-5-0.6c-1.5-0.6-2.7-1.9-3.7-3.2c1,3.6,4.8,5.7,8.4,5.5
		c-0.1,1.4-0.1,2.8,0,4.2c-3,1-6.4,0.2-8.7-1.9c1.8,3,5.6,4.5,9,3.7c0.9,4.2,3.1,8.1,6.2,11.2c-2,0.6-3.7,2.3-4.3,4.3
		c1.3-1.6,3.2-3,5.3-2.8c1.2,0,2,1.1,3,1.4l0.1,0c-1.1,0.5-2.2,1-3,1.8c-1.2,1.2-1.7,2.9-1.7,4.5c0.5-0.9,1-1.8,1.6-2.6
		c1.1-1.4,2.7-2.3,4.4-2.8c0.9,0.6,1.7,1.1,2.6,1.6c-1.8,1.6-3,4-3.1,6.4c1-2.3,2.4-4.4,4.5-5.8c3.2,1.2,6.6,1.8,10,1
		c4.3-0.8,8-3.8,9.8-7.8c2.1-4.4,1.9-9.4,0.5-14c-0.3-3-1.6-5.9-3.2-8.4c-2.8-4.2-7-7.4-11.9-8.7C179.6,71.4,175.5,71.6,171.9,73.1
		 M215.8,101.6c-0.9,1.4,0,3.6,1.6,4.1c1.5,0.6,3.3-0.3,3.8-1.8c-0.4-0.7-0.8,0.1-1.2,0.3c-1,0.5-2.3,0.1-3-0.7
		c-0.6-0.6-0.5-1.5-1-2.2L215.8,101.6 M103.4,148.5c-1.6,1.4-2.5,3.6-2.4,5.7c0,0.9,0.5,1.7,1,2.4c-0.2,0.4-0.5,0.9-0.7,1.3
		c0.1,0,0.4,0.1,0.6,0.2c0.4,1.4,0.8,2.9,0.3,4.2c-0.4,1-1.4,1.4-2.3,1.7c-1.6,0.5-2.6,2.2-2.4,3.8c0,0.9,0.5,2,1.5,2.1
		c1.3,0.3,2.4-1.2,1.8-2.3c-0.4-0.9-1.4-1-2.2-0.8c0.5,0.3,1,0.4,1.5,0.7c0.6,0.4,0.5,1.4-0.1,1.8c-0.5,0.4-1.3,0.3-1.6-0.3
		c-0.6-1.2-0.4-2.7,0.5-3.7c0.9-1.1,2.6-0.9,3.4-2.1c1.1-1.5,0.5-3.4,0.2-5c0.4,0.1,0.8,0.2,1.2,0.3c0-0.5-0.1-0.9-0.1-1.4
		c2.3-0.7,3.7-3.1,4-5.4c0.1-1.2,0-2.7-1.1-3.5C105.4,147.3,104.2,147.8,103.4,148.5 M106.8,159.2c-1.8,1.1-3.1,3-3.6,5
		c-0.3,1-0.1,2,0.3,2.9c-0.4,0.4-0.9,0.7-1.3,1.1c0.2,0.1,0.6,0.4,0.8,0.5c-1.3,1.5-1.8,3.5-1.7,5.4c0.2,1.3-1.2,2.3-2.4,2.1
		c-1.3-0.2-2.1-1.7-1.6-2.8c0.3-0.9,1.3-1.2,2.1-1.6c-1.7-0.6-3.2,1.6-2.6,3.1c0.5,1.8,2.9,2.4,4.2,1.1c1-0.8,0.7-2.1,0.8-3.2
		c0-1.4,0.7-2.7,1.6-3.8c0.3,0.2,0.6,0.4,0.8,0.6c0.2-0.6,0.4-1.1,0.6-1.7c2.6-0.3,4.4-2.5,5.2-4.9c0.4-1.2,0.6-2.6-0.3-3.7
		C109,158.4,107.7,158.6,106.8,159.2z"/>
	<path class="st2" d="M200,45.9c2.3-1.9,4.9-3.3,7.7-4.3c2.3,3.6,3.2,8,2.7,12.2c-0.2,2.9-1,5.8-2.2,8.5c-3.1-2.1-6.7-3.5-10.4-4.1
		c0.2-3.8,0.7-7.5,1.5-11.2C199.4,46.6,199.6,46.2,200,45.9z"/>
	<path class="st2" d="M183.3,170.2c6.5-4.2,14.2-7,22-6.7c5.1,9.2,7.9,19.5,8.6,30c0.2,3.7,0.3,7.5-0.3,11.3
		c-1.4,3.8-3.5,7.4-5.7,10.8c-2.6,3.8-5.6,7.3-9,10.4c-1.2-0.1-2.2-0.8-3.3-1.2c3-11.7,2.3-24.2-2-35.5c-0.3-0.8-0.7-1.6-0.8-2.5
		c-0.4-3.3,0.2-6.7,1.5-9.8c0.4-0.5-0.1-1.4-0.8-1.1c-0.4,0-0.5,0.5-0.6,0.8c-1,2.2-1.5,4.6-1.7,7c-1.4-2.6-2.7-5.2-4.6-7.5
		c-2.5-0.2-4.9,0-7.4,0.3c0.8-1.4,1.4-2.9,2-4.3C181.6,171.2,182.6,170.7,183.3,170.2z"/>
	<path class="st2" d="M95.8,193.8c5,0.2,9.6-2.7,12.8-6.4c5.2,4,11.4,6.5,17.7,8.3c-0.9,2.7-2.8,5-5.4,6.3
		c-3.4,1.8-7.7,1.5-10.8-0.6c-0.7-0.4-1.2-1.1-1.9-1.5c-0.6-0.3-1.3,0.6-0.8,1.1c0.8,1,1.9,1.6,2.9,2.3c1.9,8.9,1.8,18.2-0.7,26.9
		c-1.2,3.8-2.8,7.6-5.1,10.9c-2.7,3.8-6.8,7.1-11.6,7.5c-0.8,0.2-1.1-0.6-1.6-1c-4.4-5.7-6.4-13-5.9-20.1c0-1.3,1-2.2,1.6-3.2
		C92.7,215.1,96,204.5,95.8,193.8z"/>
</g>
<g>
	<path class="st3" d="M213.6,58.4c2.1,2.8,2.3,6.7,0.7,9.7c3.2-2,5.5-5.3,6.2-9c0.5,4-1.2,8-4.1,10.6c0.3,0.3,0.7,0.7,1,1.1
		c2.6-1.1,4.8-3.1,6.3-5.4c-0.6,3-2.5,5.5-5,7.3c1.8,2.8,2.8,6,3.7,9.2c0.4,1.8,0.9,3.6,0.9,5.5c-0.6-1.7-1.3-3.4-2.4-5
		c-0.9-3-1.9-6-3.7-8.5c-0.9-1.4-2.1-2.7-3.6-3.4c-1-0.6-1.8,0.5-2.4,1.1c-0.8,1.2-1.3,2.5-1.6,3.9c-0.8,3.1,0.2,6.4,1.7,9.1
		c0.8,1.2,1.8,2.6,3.3,2.8c1.5,0,1.8-1.7,2-2.9c1,3.9,1.2,8.3-0.7,12c-2.4-1.7-4-4.2-5.2-6.9c-0.9-2.2-1.5-4.6-1.9-7
		c-0.6-3.8-0.7-7.7,0.1-11.4c0.3-1.6,1.9-2.4,2.9-3.4c-0.1-0.1-0.2-0.2-0.3-0.3c0.1,0.1,0.3,0.2,0.4,0.3c0.3-0.4,0.6-0.7,0.8-1.1
		C214.4,64,214.5,61,213.6,58.4 M213.6,91.9c0.3,0.8,0.8,1.8,1.7,1.9c0.6-0.3,0.6-1,0.5-1.5c-0.1-1.3-0.7-2.7-1.9-3.4
		C212.9,89.6,213.2,91,213.6,91.9z"/>
	<path class="st3" d="M171.9,73.1c3.6-1.5,7.6-1.7,11.4-0.7c4.9,1.3,9.1,4.5,11.9,8.7c1.6,2.5,3,5.4,3.2,8.4
		c-1.5-4.6-4.5-8.7-8.4-11.6c-3.6-2.7-8.1-4.3-12.7-4c-1.2,0.1-2.3,0.3-3.5,0.6c-1.8,0.5-3.2,1.7-4.6,2.8c2.4-0.9,5.1-0.7,7.4,0.3
		c-1.1,0-2.4,0.2-3.2,1c-1.5,1.4-1.7,3.7-1.5,5.6c0.4,3,1.9,6,4.3,7.9c1.3,1,3.1,1.8,4.8,1.1c1.5-0.6,2.3-2.2,2.6-3.7
		c0.5-3.1-0.6-6.1-2.3-8.6c2.9,2.9,4.7,6.7,5.4,10.7c0.4,3,0.2,6.2-1.3,8.9c-1.1,2-3,3.7-5.3,4.2c-2.9,0.7-5.9-0.2-8.3-1.8
		c-4-2.7-6.7-7.1-7.7-11.8c0,1.8,0.4,3.5,1,5.2c1.4,4.2,4.1,7.9,7.5,10.7c-1.1-0.4-1.8-1.4-3-1.4c-2.2-0.2-4.1,1.1-5.3,2.8
		c0.6-2,2.3-3.7,4.3-4.3c-3.1-3-5.3-6.9-6.2-11.2c-3.4,0.7-7.2-0.7-9-3.7c2.3,2.1,5.7,2.9,8.7,1.9c-0.1-1.4-0.1-2.8,0-4.2
		c-3.6,0.3-7.4-1.9-8.4-5.5c0.9,1.3,2.1,2.6,3.7,3.2c1.5,0.7,3.3,0.8,5,0.6c0.2-1.1,0.5-2.1,0.9-3.1c-2-0.6-3.8-1.7-4.9-3.5
		c-0.7-1.1-1-2.5-1-3.8c0.6,1.6,1.6,3.1,3.1,4c1.1,0.7,2.4,1.1,3.6,1.3C165.8,77.1,168.6,74.5,171.9,73.1 M171.3,93.8
		c-1.1,1.1-0.5,3,0.4,4.1c0.6,0.7,1.8,1.3,2.5,0.4c0.8-1.3,0.2-2.9-0.7-3.9C173,93.7,172,93.3,171.3,93.8z"/>
	<path class="st3" d="M169.8,109c0.8-0.9,1.9-1.4,3-1.8c0.4,0.3,0.9,0.7,1.3,1c-1.7,0.5-3.3,1.5-4.4,2.8c-0.7,0.8-1.1,1.7-1.6,2.6
		C168.1,111.9,168.6,110.2,169.8,109z"/>
	<path class="st3" d="M176.7,109.7c0.5,0.2,0.9,0.4,1.4,0.6c-2.1,1.4-3.6,3.5-4.5,5.8C173.7,113.7,174.9,111.3,176.7,109.7z"/>
</g>
<g>
	<path class="st4" d="M211.3,71.4c0.6-0.6,1.5-1.7,2.4-1.1c1.5,0.8,2.6,2.1,3.6,3.4c1.8,2.6,2.8,5.6,3.7,8.5
		c1.1,4.7,1.6,9.7,0.6,14.6c-1.1,0.3-2.1,0.7-3.1,1.1c1.6-4.6,1.3-9.6,0.3-14.3c-0.8-3.5-2.1-7-4.4-9.9
		C213.6,72.7,212.5,72,211.3,71.4z"/>
	<path class="st4" d="M177.4,74c4.5-0.3,9.1,1.3,12.7,4c3.9,2.9,6.9,7,8.4,11.6c1.4,4.5,1.6,9.6-0.5,14c-1.8,4-5.5,6.9-9.8,7.8
		c-3.3,0.8-6.8,0.1-10-1c-0.5-0.2-1-0.4-1.4-0.6c-0.9-0.5-1.8-1-2.6-1.6c-0.5-0.3-0.9-0.6-1.3-1l-0.1,0c-3.4-2.8-6.1-6.5-7.5-10.7
		c1.3,2.6,2.8,5.1,4.8,7.2c2.5,2.6,5.7,4.8,9.4,5.2c2.7,0.3,5.5-0.5,7.5-2.4c2.6-2.4,3.8-6.1,4-9.5c0.3-5.2-1.3-10.5-4.1-14.9
		C184.4,78.4,181.2,75.5,177.4,74z"/>
	<path class="st4" d="M209.7,75.3c0.4-0.6,0.9-1.3,1.6-1.2c1.1,0,1.9,0.9,2.5,1.6c1.9,2.4,2.7,5.5,2.8,8.6c-0.2,1.1-0.5,2.8-2,2.9
		c-1.5-0.2-2.5-1.6-3.3-2.8C209.9,81.7,209,78.4,209.7,75.3z"/>
	<path class="st4" d="M173.5,78.6c0.8-0.8,2-1,3.2-1c1.9,0.6,3.4,1.8,4.7,3.3c1.7,2.5,2.8,5.6,2.3,8.6c-0.2,1.5-1.1,3.1-2.6,3.7
		c-1.6,0.7-3.4-0.1-4.8-1.1c-2.4-1.9-3.9-4.9-4.3-7.9C171.8,82.3,172.1,80.1,173.5,78.6z"/>
	<path class="st4" d="M213.6,91.9c-0.3-1-0.6-2.3,0.3-3c1.2,0.6,1.8,2.1,1.9,3.4c0,0.5,0,1.2-0.5,1.5
		C214.3,93.7,213.9,92.7,213.6,91.9z"/>
	<path class="st4" d="M171.3,93.8c0.7-0.5,1.6,0,2.1,0.5c0.9,1,1.5,2.7,0.7,3.9c-0.6,0.9-1.9,0.4-2.5-0.4
		C170.8,96.8,170.2,94.9,171.3,93.8z"/>
</g>
<g>
	<path class="st5" d="M209.7,75.3c0.3-1.4,0.8-2.7,1.6-3.9c1.2,0.6,2.3,1.3,3.1,2.4c2.3,2.8,3.6,6.3,4.4,9.9c1,4.7,1.3,9.7-0.3,14.3
		c-1.1-0.1-1.6-1.1-2.4-1.7c1.9-3.7,1.7-8.1,0.7-12c-0.1-3-0.9-6.2-2.8-8.6c-0.6-0.8-1.5-1.6-2.5-1.6
		C210.6,74,210.1,74.7,209.7,75.3z"/>
	<path class="st5" d="M173.9,74.5c1.1-0.3,2.3-0.5,3.5-0.6c3.9,1.5,7,4.5,9.3,7.9c2.8,4.4,4.4,9.6,4.1,14.9c-0.2,3.5-1.4,7.1-4,9.5
		c-2,1.9-4.8,2.7-7.5,2.4c-3.7-0.4-6.9-2.6-9.4-5.2c-2-2.1-3.5-4.6-4.8-7.2c-0.6-1.7-1-3.4-1-5.2c1.1,4.7,3.7,9.1,7.7,11.8
		c2.4,1.6,5.4,2.5,8.3,1.8c2.3-0.5,4.2-2.2,5.3-4.2c1.5-2.7,1.7-5.9,1.3-8.9c-0.6-4-2.5-7.9-5.4-10.7c-1.3-1.5-2.8-2.8-4.7-3.3
		c-2.3-1-5-1.1-7.4-0.3C170.7,76.2,172.1,75,173.9,74.5z"/>
	<path class="st5" d="M90.7,160.1c0.7-1.9,1.6-3.8,2.7-5.6c0.1,0.1,0.4,0.2,0.5,0.2c2,1.1,2.7,3.6,2.7,5.7c0.1,1.5-0.6,2.8-1.5,3.9
		c0.3,0.6,0.5,1.3,0.8,1.9c-0.5,0-1,0.1-1.5,0.1c-0.2,0-0.5,0-0.7,0c-0.1,0-0.4,0-0.6,0c0.1-0.6,0.3-1.2,0.4-1.8
		C91.9,163.7,91,161.9,90.7,160.1z"/>
	<path class="st5" d="M101.2,157.9c0.4,0.1,0.7,0.2,1.1,0.3c0.3,1.6,0.9,3.6-0.2,5c-0.8,1.2-2.5,1-3.4,2.1c-0.9,1-1.1,2.5-0.5,3.7
		c0.3,0.6,1.1,0.7,1.6,0.3c0.6-0.4,0.7-1.4,0.1-1.8c-0.5-0.2-1-0.4-1.5-0.7c0.8-0.2,1.8-0.1,2.2,0.8c0.6,1.1-0.5,2.6-1.8,2.3
		c-1-0.1-1.4-1.2-1.5-2.1c-0.2-1.6,0.8-3.3,2.4-3.8c0.9-0.3,1.9-0.7,2.3-1.7c0.5-1.4,0-2.9-0.3-4.2
		C101.7,158,101.4,157.9,101.2,157.9z"/>
	<path class="st5" d="M106.8,159.2c0.9-0.5,2.2-0.7,3,0.2c0.8,1,0.6,2.5,0.3,3.7c-0.8,2.3-2.7,4.6-5.2,4.9c-0.2,0.6-0.4,1.1-0.6,1.7
		c-0.3-0.2-0.6-0.4-0.8-0.6c-0.1-0.1-0.3-0.2-0.4-0.3c-0.2-0.1-0.6-0.4-0.8-0.5c0.4-0.4,0.9-0.7,1.3-1.1c-0.4-0.9-0.6-1.9-0.3-2.9
		C103.7,162.1,105,160.2,106.8,159.2z"/>
</g>
<g>
	<path class="st6" d="M204.7,104.7c0.5,4,3,7.8,6.6,9.7c-1.4,3.2-2.5,6.6-2.9,10c-0.1,0.8,0.1,1.9-0.9,2.1c0.1-2.2-0.1-4.5-1.3-6.5
		c-0.7-1.3-1.8-2.5-3.2-3.1c-0.1-0.1-0.4-0.2-0.5-0.3C202.4,112.6,203.3,108.5,204.7,104.7z"/>
</g>
<g>
	<path class="st7" d="M103.4,148.5c0.8-0.7,2.1-1.1,3-0.4c1,0.8,1.2,2.3,1.1,3.5c-0.3,2.3-1.6,4.7-4,5.4c0,0.5,0,0.9,0.1,1.4
		c-0.4-0.1-0.8-0.2-1.2-0.3c-0.4-0.1-0.7-0.2-1.1-0.3c0.2-0.4,0.5-0.9,0.7-1.3c-0.5-0.7-1-1.5-1-2.4
		C100.9,152.1,101.8,149.9,103.4,148.5z"/>
	<path class="st7" d="M93.7,166.4c0.2,0,0.5,0,0.7,0c0.5,0.9,1.1,1.9,1,2.9c-0.1,1.6-1.2,3-2.3,4.1c-1.2,1.1-2,2.9-1.7,4.5
		c0.1,0.6,0.8,1.2,1.4,1c1.3-0.3,1.9-1.7,2.9-2.6c-0.3,1.4-1.4,2.7-2.8,3.1c-0.9,0.2-1.8-0.5-1.9-1.3c-0.4-1.7,0.3-3.5,1.5-4.7
		c1.1-1.1,2.2-2.2,2.4-3.8C95.1,168.4,94.4,167.3,93.7,166.4z"/>
	<path class="st7" d="M103,168.7c0.1,0.1,0.3,0.2,0.4,0.3c-0.9,1.1-1.5,2.4-1.6,3.8c-0.1,1.1,0.2,2.4-0.8,3.2
		c-1.3,1.3-3.7,0.7-4.2-1.1c-0.6-1.5,0.9-3.8,2.6-3.1c-0.8,0.4-1.8,0.7-2.1,1.6c-0.5,1.2,0.3,2.7,1.6,2.8c1.2,0.3,2.6-0.8,2.4-2.1
		C101.1,172.2,101.7,170.2,103,168.7z"/>
</g>
</svg>
