<?xml version="1.0" encoding="utf-8"?>
<!-- Generator: Adobe Illustrator 23.0.3, SVG Export Plug-In . SVG Version: 6.00 Build 0)  -->
<svg version="1.1" id="Layer_1" xmlns="http://www.w3.org/2000/svg" xmlns:xlink="http://www.w3.org/1999/xlink" x="0px" y="0px"
	 viewBox="0 0 178.7 250" style="enable-background:new 0 0 178.7 250;" xml:space="preserve">
<style type="text/css">
	.st0{fill:#F22E3D;}
	.st1{opacity:0.89;fill:#D73034;enable-background:new    ;}
	.st2{fill:#F26430;}
	.st3{fill:#F2D95C;}
	.st4{opacity:0.91;fill:#97C0AD;enable-background:new    ;}
	.st5{fill:#80D1F2;}
	.st6{opacity:0.91;fill:#96C0AF;enable-background:new    ;}
	.st7{opacity:0.91;fill:#A5C29D;enable-background:new    ;}
	.st8{fill:#0376BF;}
	.st9{opacity:0.91;fill:#B2C28B;enable-background:new    ;}
	.st10{fill:#161616;}
	.st11{opacity:0.91;fill:#B8C383;enable-background:new    ;}
	.st12{fill:#FEFEFE;}
	.st13{fill:#9C43A2;}
	.st14{fill:#42A626;}
	.st15{opacity:0.9;fill:#8AC3DB;enable-background:new    ;}
	.st16{opacity:0.89;fill:#44529D;enable-background:new    ;}
	.st17{opacity:0.87;fill:#694493;enable-background:new    ;}
	.st18{opacity:0.91;fill:#6C4C75;enable-background:new    ;}
	.st19{opacity:0.91;fill:#3C57A2;enable-background:new    ;}
	.st20{opacity:0.91;fill:#4754A0;enable-background:new    ;}
	.st21{opacity:0.91;fill:#52509E;enable-background:new    ;}
	.st22{opacity:0.89;fill:#D86D32;enable-background:new    ;}
</style>
<g>
	<path class="st0" d="M27,9.9C34.3,4,43.6,0.5,53,0.1c12.9-0.7,26,4.5,35,13.8c3.2,3.3,5.9,7,7.9,11.2c-7.7-7.7-17.7-12.9-28.2-15.7
		c-5.1-1.4-10.3-2.1-15.6-2.5c-2.1-0.4-4.3-0.4-6.4,0C40.1,7.2,34.5,8.1,29.2,10c-1.3,0.4-2.6,1.1-4,1.5C25.7,10.8,26.4,10.4,27,9.9
		z"/>
	<path class="st0" d="M50.1,22.7c4-1.6,8.4-2.6,12.7-2.2c-7.6,1.4-15.1,5.2-19.2,11.9c2.1-0.6,4.1-1.2,6.3-1.5
		c-0.8,1.8-2.1,3.3-3.5,4.7c-5.1,5.2-12.2,8.2-19.3,9.3c-1.4,0.2-2.9,0.4-4.3,0.3c-6.7-1.1-13.4-3.9-18.1-8.9
		C3,34.4,1.5,32.4,0.6,30c0-0.1,0-0.4,0-0.6c1.3,0.9,2.4,2,3.6,2.8c5.2,3.6,11.5,5.7,17.9,5.6c4.5,0,9.1-1.1,12.7-3.7
		c1.3-0.9,2.2-2.3,3.3-3.4C41.5,27.2,45.6,24.5,50.1,22.7z"/>
	<path class="st0" d="M100.4,129.8c2.5,0.5,4.9,0.8,7.4,1c2.6,0.3,5.3,0.3,7.9,0c0.1,0,0.4,0,0.6-0.1c0.1-0.2,0.3-0.5,0.4-0.6
		c0.7,0,1.4,0.2,2,0.3c1.2,0.3,2.3,0.7,3.4,1.1c4.3,1.8,7.9,5.3,10.1,9.4c1.8,3.6,2.8,7.5,3.1,11.5c0.2,4.4,0,8.8-1,13.1
		c-0.4,2-1.1,4-1.5,6c1.1-1.2,1.9-2.8,2.7-4.2c0.6-1,1-2.2,1.9-3c0.1,0,0.4,0.1,0.5,0.1c0,1.1-0.7,2.1-1.1,3.1
		c-5.5,12.7-9.7,26-12.1,39.6c-0.3,1.9-0.9,3.7-1.1,5.5c-0.7,4.5-0.9,9-0.2,13.5c0.3,2.4,1.1,4.8,1.1,7.3c-0.8-0.5-1.2-1.3-1.7-2
		c-3-4.6-4.3-10.2-4.7-15.7c-0.5-9,1.4-18.1,5.2-26.2c-3,2.2-6.3,4.2-9.9,5.3c-0.3,0.2-0.8,0.1-0.7-0.3c1.9-2.1,3.5-4.5,5-6.8
		c5.4-9,8.9-19.4,9-29.9c0-5.7-1-11.5-4-16.4c-2.1-3.4-5.5-6.1-9.5-7.1c-2.1-0.6-4.3-0.6-6.5-0.3c-0.6,0.1-0.5-0.4-0.3-0.8
		C104.5,131.7,102.4,130.7,100.4,129.8z"/>
	<path class="st0" d="M90.1,135.4c0.5,0.1,1,0.2,1.5,0.3c-1.2,2.7-2,5.7-1.9,8.7c0.9-0.4,1.8-0.8,2.7-1.2c-0.6,3.3-1,7.2,0.9,10.2
		c0,0.1,0.1,0.4,0.1,0.5c-0.8-0.5-1.3-1.4-1.6-2.3c-0.8-2.2-0.8-4.6-0.5-6.9c-1,0.5-1.9,1.1-2.8,1.6
		C87.8,142.5,88.6,138.8,90.1,135.4z"/>
</g>
<g>
	<path class="st1" d="M45.7,6.8c2.1-0.4,4.3-0.4,6.4,0C50,6.9,47.9,6.9,45.7,6.8z"/>
</g>
<g>
	<path class="st2" d="M29.2,10c5.3-1.9,10.9-2.8,16.5-3.2c2.1,0.1,4.3,0.1,6.4,0c5.2,0.4,10.5,1.1,15.6,2.5
		c10.5,2.8,20.4,8,28.2,15.7c0.9,1.5,1.5,3.2,2.1,4.8c-0.1-0.1-0.4-0.2-0.5-0.2c-9.5-7.8-22.4-11.3-34.6-9.2
		c-4.3-0.4-8.7,0.7-12.7,2.2c-4.5,1.8-8.7,4.5-12.1,8c-1.1,1.1-2,2.5-3.3,3.4c-3.7,2.6-8.3,3.7-12.7,3.7c-6.4,0.1-12.7-2-17.9-5.6
		c-1.3-0.9-2.4-1.9-3.6-2.8c0,0.1,0,0.4,0,0.6l0,0.1c-0.2-0.5-0.4-1-0.6-1.5C7.9,29.6,16,28,23.4,25c4.5-1.9,8.8-4.3,12.7-7.2
		c-7.1,0.3-14.2,2-20.4,5.4C18,19,21,15.2,24.5,12c0.2-0.2,0.4-0.4,0.7-0.5C26.6,11.1,27.8,10.5,29.2,10z"/>
	<path class="st2" d="M124.6,127.1c0.2,0,0.5,0,0.7,0.1c4.8,0.8,9.3,3.4,12.5,7.1c3.3,3.9,5.2,8.9,6.1,13.9
		c0.9,5.4,0.7,10.9-0.2,16.3c-1,6.1-2.9,12-5.4,17.7c-3.5,9.2-5.5,19-6.1,28.8c-0.2,0.9-0.3,1.8-0.3,2.8c0.1,1.6-0.2,3.3,0.3,4.9
		c0.2,2.7,0.5,5.3,0.8,7.9l0,0.6c-0.9-1.6-1.3-3.4-1.9-5.1c-1.3-4.2-2-8.5-2.4-12.8c-2.3,6-3.8,12.3-3.9,18.7
		c-0.1,2,0.2,3.9,0.2,5.9c-0.2,0-0.5,0-0.6,0l0-0.3c0-2.5-0.9-4.8-1.1-7.3c-0.7-4.5-0.5-9,0.2-13.5c0.2-1.9,0.8-3.7,1.1-5.5
		c2.4-13.6,6.5-26.9,12.1-39.6c0.4-1,1.2-2,1.1-3.1c-0.1,0-0.4-0.1-0.5-0.1c-0.9,0.8-1.3,2-1.9,3c-0.8,1.4-1.6,3-2.7,4.2
		c0.4-2,1.1-4,1.5-6c1-4.3,1.3-8.7,1-13.1c-0.2-4-1.2-7.9-3.1-11.5c-2.2-4.1-5.7-7.6-10.1-9.4c-1.1-0.4-2.3-0.8-3.4-1.1
		c2.1-0.5,4.2-1.1,5.9-2.5C124.6,127.7,124.6,127.3,124.6,127.1z"/>
</g>
<g>
	<path class="st3" d="M62.9,20.4c12.1-2.1,25.1,1.4,34.6,9.2c0.3,0.3,0.7,0.6,0.8,1.1c1.3,3.9,2.2,8,2.4,12.2
		c-3.2-2.8-7.3-4.5-11.5-4.8c-3.1-1.2-6.5-1.9-9.8-2.3c-1.1-0.2-2.2-0.3-3.4-0.2c-0.9,0-1.9,0-2.8,0c-1.1-0.1-2.3,0-3.4,0.2
		c-0.2,0-0.5,0-0.7,0.1c-0.4-0.2-0.8-0.1-1.1,0.2c-8.2,1.2-16.3,4.9-21.7,11.3c-0.2-0.1-0.5-0.2-0.6-0.3c0.4-1.9,0.9-3.8,1.7-5.6
		c-4.2,2.2-8.9,3.5-13.6,4c-0.6-0.2-1.3-0.3-1.8,0.2c-0.5,0-1,0.1-1.5,0.1c-1.5,0-3,0.1-4.4-0.1c-0.5-0.1-1-0.1-1.6-0.1
		c-0.6,0-1.1-0.1-1.7-0.3c1.4,0.1,2.9-0.1,4.3-0.3c7.2-1.1,14.2-4.1,19.3-9.3c1.3-1.4,2.7-2.9,3.5-4.7c-2.1,0.3-4.2,0.9-6.3,1.5
		C47.8,25.6,55.3,21.8,62.9,20.4z"/>
	<path class="st3" d="M121.3,121.4c4.9-0.6,10,0.2,14.4,2.3c3.6,1.7,6.8,4.2,9.3,7.3c3.4,4.1,5.5,9,6.8,14.1
		c1.9,7.7,1.8,15.8,0.2,23.6c-1.3,6.2-3.5,12.2-6.5,17.8c-0.8,2.4-2.1,4.5-3.1,6.8c-3.5,7.7-6,15.9-7.2,24.3
		c-0.6,6.2,0.4,12.6,3,18.3c-1-0.8-1.6-2.1-2.3-3.1c-1.1-2-2.3-4.1-2.8-6.3c-0.3-2.6-0.6-5.3-0.8-7.9c0-2.6,0-5.1,0-7.7
		c0.6-9.8,2.6-19.6,6.1-28.8c2.5-5.6,4.4-11.6,5.4-17.7c0.9-5.4,1.1-10.9,0.2-16.3c-0.8-5-2.7-10-6.1-13.9
		c-3.2-3.7-7.6-6.3-12.5-7.1c0.3-0.7,0.9-1.5,0.8-2.3c-0.6-0.7-1.6-1-2.4-1.5c-1.1-0.5-2.2-1.3-3.4-1.3
		C120.1,121.4,120.9,121.5,121.3,121.4z"/>
	<path class="st3" d="M91.6,135.7c0.4,0.1,0.8,0.1,1.2,0.2c-0.5,2.4-1.3,4.7-1.4,7.2c0.8-0.3,1.5-0.6,2.3-0.8
		c-1.2,3.5-1.5,7.4-0.3,11c-1.9-3-1.5-6.8-0.9-10.2c-0.9,0.4-1.8,0.8-2.7,1.2C89.6,141.4,90.3,138.4,91.6,135.7z"/>
</g>
<g>
	<path class="st4" d="M69.8,35.7c1.1-0.2,2.2-0.3,3.4-0.2C72.1,35.7,70.9,35.8,69.8,35.7z"/>
</g>
<g>
	<path class="st5" d="M73.2,35.5c0.9,0,1.9,0,2.8,0c1.1,0.2,2.2,0.3,3.4,0.2c3.3,0.4,6.7,1.1,9.8,2.3c-1.8,0-3.7,0.2-5.4,0.8
		c-0.5,0.1-0.6,0.5-0.5,0.9c0.5,0.2,1,0,1.5-0.2c2.8-0.9,5.9-0.6,8.7,0.3c4.4,1.5,8.2,4.6,10.8,8.5c0.9,1.4,1.7,2.8,2.1,4.4
		c1.2,5.2,4.3,9.9,8.7,13.1c-3.4,2.9-8.1,4-12.5,3.6c-5-0.4-9.8-2.5-13.4-5.9c-2-1.9-3.6-4.1-4.5-6.7c-0.2-0.5-0.3-1-0.8-1.3
		c-0.4,0.1-0.7,0.6-0.4,1c1.1,3.6,3.5,6.6,6.4,8.9c-4.3,6.8-11.3,11.7-19,13.9c-4.1,1.2-8.4,1.6-12.7,1.4c2.4,2.3,5.2,4.2,8.2,5.7
		c-10.2,6.5-18.6,16-23,27.3c-1.4,4-2.4,8.3-1.9,12.6c3.3-7,9.7-12,16.6-15.3c-2.9,4.2-5.3,8.8-6.6,13.7c-0.9,3.6-1.4,7.3-0.7,11
		c0.4,1.8,1,3.5,2.2,4.9c0.1,0.1,0.2,0.2,0.2,0.3c2.6-6,5.7-11.8,9.3-17.3c0.2,0.8,0.6,1.5,1.3,2c2,1.6,4.4,2.7,6.7,3.7
		c6.4,2.6,13,4.5,19.7,5.9c-1.5,3.4-2.3,7.1-1.7,10.8c0.9-0.6,1.9-1.1,2.8-1.6c-0.2,2.3-0.3,4.7,0.5,6.9c0.3,0.9,0.8,1.8,1.6,2.3
		c0.1,0.1,0.3,0.2,0.4,0.3c-1.1-4.2-0.4-8.9,1.7-12.7c-0.6,0.1-1.3,0.2-1.9,0.4c0.2-0.8,0.3-1.6,0.5-2.4c0.5-0.1,1-0.2,1.5-0.3
		c0,1.4,0.7,2.8,2,3.3c1.7,0.8,4-0.2,4.5-2c0.5-1.2,0-2.5-0.8-3.4c1,0,1.9,0,2.9-0.1c-0.2,9.2-3.5,18-7.7,26
		c-0.3,0.6-0.5,1.2-0.6,1.8c2.6,0.8,5.2,1.6,7.8,2.5c4.7,15,6,30.9,4.8,46.5c-0.5,6.9-1.7,13.7-3.3,20.4c-4.7-0.8-9.2-2.1-13.7-3.7
		c-4.7-1.7-9.2-3.8-13.4-6.4c2.8-4.3,5.3-8.8,7.3-13.6c3.3-7.8,5.5-16.3,4.8-24.8c-2-10.9-5.5-21.6-10.7-31.4
		c-0.1-0.6-1-0.8-1.1-0.1c0.2,0.7,0.5,1.2,0.8,1.9c-0.9,2.6-2.1,5-3.1,7.6c1.9,1.4,3.9,2.7,5.8,4.2c-4.8,14.5-13.1,27.6-23.4,38.8
		c-1.8,1.9-3.5,3.7-5.4,5.4c2.5-11.2,3.7-22.6,3.6-34c3.3-3.5,5.9-7.8,6.6-12.5c0.7-4.2-0.3-8.5-2.3-12.2c9.2,0.7,18.6,0.4,27.5-2
		c0-0.2,0-0.7,0-0.9c-1.4,0.1-2.7,0.6-4,0.8c-9.9,2-20.2,1.8-30.2,0.3c-0.7-3.7-1.5-7.4-2.6-11c-0.1-0.5-0.5-0.8-0.9-0.5
		c-0.2,0.4,0,0.8,0.1,1.2c3.3,11.7,4.8,23.9,4.9,36.1c0.1,13.9-1.5,27.8-5.3,41.1c-6.3-0.9-12.6-2.5-18.4-5.2
		c-3.3-1.5-6.5-3.4-9.3-5.8c4.9-5.1,8.4-11.4,11-18c4.3-10.9,6.1-22.6,6.3-34.2c0.1-7-0.5-14.1-1.9-21c0-0.8-1.3-0.7-1,0.1
		c2.4,13.1,2.5,26.7-0.1,39.8c-2,10.2-5.6,20.3-11.8,28.7c-7.7-2-15.4-5.2-21.2-10.8c5.9-5.7,10.6-12.6,14.2-20
		c5.5-11,8.9-23.1,10.3-35.3c1,1.4,1.9,3,3.1,4.2c0.8,0.2,0.8-0.7,0.4-1.1c-2.3-3-4.2-6.3-5.7-9.8c-0.7-1.8-1.4-3.7-1.5-5.6
		c-0.4-4.8,1.2-9.5,3.3-13.7c4.4-8.2,11.4-14.8,19.6-19.2c1.7-1.1,3.9-0.3,5.8-0.9c0.5,0,0.5-1,0-0.9c-0.9,0-1.8,0.2-2.7,0.2
		c-4.3,0.2-8.7-0.7-12.7-2.3c-4.9-1.9-9.5-4.7-13.2-8.5c-2-2.1-3.7-4.6-4.4-7.4c-0.6-2.3-0.4-4.9,1.1-6.9c2.7,0.5,5.6,0.2,8.2-0.6
		c1-0.4,2.1-0.8,2.7-1.7c0.4-0.5,0.1-1.2,0.1-1.8c1.2-3.4,1.8-7.1,1.4-10.8c0.8-0.1,1.4-0.7,1.5-1.5c-2,0.3-3.4-1.3-4.7-2.6
		l-0.1-0.1c0.5,0,1,0,1.5-0.1c0.6,0.2,1.3,0.1,1.8-0.2c4.7-0.5,9.4-1.8,13.6-4c-0.8,1.8-1.3,3.7-1.7,5.6c-0.1,0.3-0.3,0.8,0,1.1
		c0.3-0.2,0.4-0.5,0.6-0.8C51.7,40.9,59.8,37.2,68,36c0.4,0.2,0.8,0.1,1.1-0.2c0.2,0,0.5,0,0.7-0.1C70.9,35.8,72.1,35.7,73.2,35.5
		 M39.8,51.7c0.4,0.9,1.3,1.3,2.2,1.4c-1.7,3.8-1.9,8.4,0,12.1c0.4,2.9,1.4,5.9,3.4,8.2c1.3,1.6,3.2,2.6,5.2,3
		c0.8,0.4,1.9,0.5,2.6,0c1.1-0.2,2.2-0.6,3.2-1.1c1.8-0.7,3.3-2,4.6-3.3c1.5-1.5,2.6-3.3,3.8-5c2.7-2.1,4.5-5.1,5.7-8.3
		c2.2,0.7,4.9,0.6,6.8-0.8c-2.1,0.4-4.3,0.2-6.3-0.7c0.1-0.6,0.3-1.3,0.4-1.9c1.7,0.3,3.5,0.3,5.1-0.4c1.1-0.4,2-1.3,2.3-2.5
		c-2,1.6-4.9,1.7-7.2,0.8c0-0.1,0.1-0.4,0.1-0.6c1.7-0.1,3.5-0.6,4.8-1.7c0.8-0.7,1.3-1.7,1.2-2.8c-1.2,1-2.5,2.2-4.2,2.1
		c-10.6,0.4-21.2,0.8-31.9,1.2c-0.6,0.1-0.9-0.5-1.1-1c-0.4-1.1,0-2.2,0.3-3.2C39.8,48.5,39.1,50.2,39.8,51.7 M26.9,69.1
		c-0.6,0-1.1-0.1-1.7-0.2c-0.1,0.1-0.2,0.4-0.3,0.6c1.2,1.2,3.5,0.6,4.2-0.9c0.3-0.4-0.1-0.7-0.4-0.9C28.2,68.2,27.8,69,26.9,69.1
		 M37.1,70.4c-0.1,0.1-0.2,0.2-0.3,0.3c-0.2,1.4-0.5,2.8-1.4,4c-1.7,2.7-5,4.1-8.1,3.6c-0.7-0.2-0.8,0.9-0.2,1
		c2.3,0.5,4.8-0.1,6.7-1.4c2.3-1.6,3.9-4.2,3.9-7C37.9,70.4,37.4,70.1,37.1,70.4z"/>
	<path class="st5" d="M107.4,51.3c4.7-3.1,10-5.4,15.6-5.9c-1.1,6.8-4.6,13.1-8.8,18.5c-3.6-3-5.9-7.3-7-11.8
		C107.2,51.8,107,51.4,107.4,51.3z"/>
	<path class="st5" d="M151,63c2.5-0.3,5.1-0.7,7.6,0.2c1.1,0.3,2,1.3,1.9,2.5c-0.2,1.8-1.3,3.3-2.4,4.7c-2.9,3.5-6.6,6.4-10.3,9
		c-7.9,5.5-16.6,9.9-25.5,13.5c-0.7,0.2-0.2,1.2,0.3,0.9c6.1-2.3,11.9-5.2,17.6-8.4c2.6-1,5.5-1.5,8.2-2c4.7-0.7,9.6-1.2,14.2,0.4
		c0.1,1.4-0.4,2.8-1.3,4c-2,2.7-4.8,4.6-7.7,6.3c-5.8,3.3-12.1,5.6-18.6,7.1c-4.9,1-10,1.7-15,0.9c-0.4,0-0.8-0.2-1,0.3
		c-0.2,0.6,0.6,0.7,1,0.8c4.1,0.6,8.2,0.2,12.3,0.7c5.3,0.6,11,1.5,15.5,4.6c-0.3,0.9-0.8,1.8-1.5,2.5c-1.9,1.9-4.4,3-6.8,3.9
		c-6.3,2.3-13,3.1-19.7,3.2c-4.6,0.1-9.2-0.3-13.7-1.1c0,0.3-0.1,0.6-0.1,0.8c1,0.5,2.1,0.6,3.1,0.9c5.6,1.6,11,3.6,16,6.5
		c-1,2.2-3.4,3.2-5.5,3.7c-4.6,1.1-9.5,1-14.2,0.5c-4.2-0.5-8.3-1.4-12.3-2.5c-0.7-0.3-1,0.9-0.2,0.9c3.4,1.1,6.7,2.4,9.9,4
		c1.4,0.8,2.9,1.6,3.8,3c-1.2,0.9-2.7,0.9-4,0.9c-2.7,0-5.5-0.3-8.2-0.8c-5.9-1-11.7-2.4-17.4-4.3c-3.7-1.2-7.4-2.6-10.8-4.5
		c-1-0.6-2.2-1.3-2.8-2.4c0-0.1,0.1-0.3,0.2-0.4c0.9-0.6,2.1-0.5,3.1-0.7c0.2-0.3,0.2-0.6,0-0.8c-1.2-0.2-2.4,0.2-3.5,0.6
		c2.6-3.8,5.5-7.4,8.5-10.9c2.1-0.6,4.3-1.2,6.4-2.1c8.5-3.4,15.8-9.7,20.3-17.7c0.4-0.7,1-1.1,1.5-1.7c3.1-3.9,7.2-7,11.2-9.9
		c7.3-5,15.2-9.1,23.4-12.5C139.8,65.8,145.3,63.9,151,63 M113.2,83.2c-3.9,1.3-7.5,3.5-10.2,6.6c-1.8,1.9-2.2,4.6-3.3,6.9
		c-3.3,7-8.5,12.9-14.8,17.3c-3.9,2.6-8.4,4.8-13.1,5.1c-1.2,0.1-2.5-0.2-3.7-0.2c-0.3,0.3-0.3,0.6,0,0.9c2,0.5,4.1,0.4,6.1,0
		c4.5-0.9,8.6-3.1,12.3-5.7c6.4-4.8,11.8-11.2,14.8-18.7c0.6-1.3,0.8-2.8,1.6-4c1.7-2.3,4.1-4.1,6.6-5.4c2.4-1.3,5-2.4,7.7-2.4
		c0.9,0,2.2,0.1,2.2,1.3c0.3,2.6-1.2,5-2.6,7.1c-4.1,5.6-9.9,9.7-16,12.9c-0.5,0.2-0.1,1,0.3,0.8c1.5-0.6,2.8-1.6,4.3-2.2
		c3.2-0.7,6.5-1.1,9.8-0.8c0.7,1.8-0.4,3.7-1.5,5c-2.5,2.8-5.8,4.7-9.1,6.2c-4.4,2-9.1,3.3-13.9,3.9c-0.6-0.1-0.9,0.9-0.2,1
		c1.6,0.1,3.1-0.8,4.7-0.3c1.6,0.4,3.4,0.9,4.8,1.8c0.4,0.3,1,0.9,0.5,1.4c-0.9,1-2.4,1.4-3.7,1.9c-4.7,1.4-9.7,1.9-14.6,2.3
		c-0.7-0.1-0.6,1.1,0,0.9c3.8-0.2,7.5-0.7,11.2-1.4c2.4-0.5,5-1,7.1-2.4c0.9-0.5,1.5-1.7,0.9-2.7c-1.2-1.5-3.2-2-5-2.6
		c4.3-1,8.6-2.7,12.4-4.9c2.5-1.5,5.1-3.3,6.7-5.8c1-1.5,1.4-3.5,0.5-5.1c-2.8-0.6-5.6-0.2-8.4,0.1c3.6-2.5,7-5.5,9.7-9
		c1.5-2,2.8-4.2,3.1-6.7c0.1-1.1,0.1-2.6-1.2-3.2C117.4,82,115.2,82.6,113.2,83.2z"/>
	<path class="st5" d="M124.3,66.4c1.1-0.1,2.4-0.3,3.5,0.4c0.8,0.7,0.3,1.7-0.1,2.5c-0.2,0.8-1,1-1.7,1.3
		c-5.4,2.6-10.6,5.6-15.5,8.9c-3.7,2.6-7.3,5.4-10.4,8.7c2.4-5.5,3.6-11.5,3.5-17.5c1.5,0,3-0.1,4.5-0.4c-1.2,1.1-2.4,2.1-3.6,3.1
		c-0.4,0.3,0.1,0.7,0.3,0.9c2.3-1.5,4.8-2.6,7.3-3.8C116.1,68.8,120.1,67.1,124.3,66.4z"/>
</g>
<g>
	<path class="st6" d="M76,35.5c1.1,0,2.2,0,3.4,0.2C78.2,35.8,77.1,35.7,76,35.5z"/>
</g>
<g>
	<path class="st7" d="M68,36c0.3-0.3,0.7-0.3,1.1-0.2C68.9,36.1,68.4,36.2,68,36z"/>
</g>
<g>
	<path class="st8" d="M83.8,38.9c1.7-0.7,3.6-0.8,5.4-0.8c4.2,0.3,8.3,2.1,11.5,4.8c2.5,2.1,4.5,4.8,6,7.7c4.1-2.8,8.7-4.9,13.6-5.8
		c1.2-0.2,2.5-0.4,3.7-0.3c0.4,0.3,0.1,0.8,0.1,1.2c-1.2,7-4.7,13.4-9.1,18.9c0.5,0.4,1.1,0.8,1.6,1.2c-1.5,1.7-3.6,2.9-5.7,3.7
		c-0.7,0.2-1.2,0.9-1.7,1.4c4.8-2.2,9.6-4.5,14.8-5.4c1.5-0.2,3.3-0.4,4.6,0.6c0.9,0.8,0.7,2.2,0.3,3.2c5.3-2.4,10.7-4.5,16.4-6
		c3.5-0.9,7.2-1.7,10.9-1.5c1.8,0.1,3.8,0.5,4.9,2.1c1,1.6,0.3,3.5-0.5,5c-1.7,2.9-4.2,5.2-6.8,7.4c-3.2,2.7-6.6,5-10.1,7.2
		c5.8-1.3,11.9-2.3,17.9-1c0.8,0.3,2,0.4,2.1,1.4c0.4,2.2-1,4.3-2.5,5.8c-2.9,3.1-6.7,5.3-10.5,7.2c-5.8,2.8-12.1,4.8-18.5,5.9
		c5.8,0.8,12,1.6,16.8,5.2c0,1.9-1.4,3.5-2.9,4.6c-0.4-0.1-0.9-0.1-1.3-0.2c0.1,0.3,0.2,0.6,0.3,0.9c-0.8,0.5-1.6,0.9-2.4,1.3
		c-0.2,0-0.5,0.1-0.6,0.1c-0.4,0.3,0.3,0.5,0.5,0.3c4.7,0.5,9.3,2.4,13,5.3c4.4,3.4,7.6,8.1,9.3,13.3c-0.5,0.1-0.9,0-1.1-0.4
		c-1.2-1.6-2.6-3.1-4.4-4.1c3.3,5,5.2,10.9,5.7,16.9c-0.1,1,0,2.1,0.2,3.1c0.1,2.6,0.1,5.2,0,7.8c-0.2,1.4-0.2,2.8-0.2,4.2
		c0,0.2,0,0.5-0.1,0.6c-0.1,0.8-0.2,1.7-0.2,2.6c-1.4,13.9-5.1,27.6-10.5,40.4c-0.8,1.7-1.2,3.5-1.6,5.4c-1.8,9.8,0.2,20.3,5.2,28.9
		c2.3,3.8,5.3,7.3,8.9,9.8c0.4,0.2,0.3,0.6,0.4,1c-4.7,0.1-9.3-1.5-13.4-3.8c-3.5-1.9-6.6-4.4-9.3-7.3c-3.1-10.8-2-22.6,1.6-33.1
		c1.2-3.7,3-7.1,4.4-10.7c5-12.4,8.1-25.6,8.8-39c0.1-3.9,0.3-7.9-0.2-11.8c-0.7-5.5-2.6-10.9-5.8-15.4c-2.4-3.3-5.5-6.1-9.1-8
		c-5.5-2.9-12-3.7-18.1-2.7c-0.4,0.1-0.6,0.3-0.9,0.5c-3.9,0.4-7.8,0.2-11.7,0.2c2,0.7,4.1,1.4,6,2.3c0.4,0.1,0.7,0.4,0.9,0.8
		c1.3,0,2.3,0.8,3.4,1.3c0.8,0.5,1.7,0.8,2.4,1.5c0.1,0.8-0.5,1.6-0.8,2.3c-0.2,0-0.5-0.1-0.7-0.1c0,0.2-0.1,0.6-0.1,0.8
		c-1.7,1.4-3.8,2-5.9,2.5c-0.7-0.1-1.4-0.3-2-0.3c-0.1,0.2-0.3,0.5-0.4,0.6c-0.1,0-0.4,0-0.6,0.1c-2.6,0.1-5.3,0.1-7.9,0
		c-2.5-0.2-5-0.5-7.4-1c2,0.9,4.1,1.9,5.8,3.3c-0.2,0.4-0.3,0.9,0.3,0.8c0.7-0.1,0.9,0.9,0.8,1.4c-0.2,0.9-1.3,1.2-2.1,1.4
		c-0.3,9.6-3.7,18.9-8.2,27.3c2.5,0.7,5,1.5,7.4,2.4c2.6,8,4.1,16.4,4.9,24.8c1.2,13.1,0.5,26.3-2.3,39.2c-0.4,1.6-0.7,3.3-1.2,4.9
		c-5.7-1.1-11.2-2.6-16.6-4.7c-4.3-1.7-8.6-3.7-12.4-6.4c3.4-5.2,6.4-10.7,8.6-16.5c2.7-7,4.4-14.4,3.8-21.9
		c-1.7-9.7-4.7-19.1-8.9-28c-0.2-0.2-0.2-0.6-0.5-0.6c-0.7,2-1.6,3.9-2.4,5.8c1.8,1.2,3.5,2.4,5.2,3.8c0.4,0.3,0.5,0.9,0.2,1.3
		c-4.6,13.8-12.4,26.4-22.1,37.2c-2.5,2.8-5.1,5.4-7.9,7.9c-0.4,0.3-0.5,0.9-0.6,1.4c-0.4,1.4-0.7,2.8-1.1,4.1
		c-0.1,0.5-0.6,0.3-0.9,0.3c-7.2-1-14.3-3-20.8-6.3c-2.6-1.4-5.2-2.9-7.4-4.9c-0.2-0.3-0.8-0.7-0.4-1c1-1.1,2-2.2,2.9-3.3
		c-7.2-1.9-14.4-4.9-20.1-9.9c-0.7-0.6-1.3-1.2-1.8-2c6.1-5.7,10.9-12.7,14.6-20.2c5.7-11.4,9.1-23.8,10.4-36.5
		c-1.8-3.5-3.7-7.1-3.9-11.1c-0.3-5.2,1.5-10.3,4-14.8c4.5-7.8,11.3-14.2,19.2-18.5c-4.8-0.5-9.6-2-13.8-4.3
		c-3.9-2.1-7.6-4.9-10.4-8.4c-1.7-2.3-3.2-4.9-3.5-7.8c-0.3-2.2,0.3-4.6,1.7-6.3c0.3-0.3,0.8-0.1,1.2-0.1c1.7,0.3,3.5,0.1,5.2-0.1
		c-0.5-1.4-0.9-2.9-1-4.5c0-1.8-0.1-3.7,0.1-5.5c0.3-2.7,1.2-5.2,2.4-7.6c0.2,0.3,0.5,0.5,0.7,0.8C27,52,26.2,58.2,28.3,63.5
		c0.2-0.1,0.5-0.2,0.7-0.2c0.6-0.2,1.2-0.5,1.8-0.8c0.8-0.4,1.2-1.1,1.5-1.9c0,0.6,0.3,1.2-0.1,1.8c-0.6,0.9-1.7,1.4-2.7,1.7
		c-2.6,0.9-5.5,1.1-8.2,0.6c-1.5,1.9-1.7,4.6-1.1,6.9c0.8,2.8,2.5,5.3,4.4,7.4c3.6,3.9,8.3,6.7,13.2,8.5c4.1,1.5,8.4,2.4,12.7,2.3
		c0.9,0,1.8-0.2,2.7-0.2c0.5-0.1,0.5,0.9,0,0.9c-1.9,0.6-4.1-0.2-5.8,0.9c-8.1,4.4-15.2,11-19.6,19.2c-2.2,4.2-3.7,8.9-3.3,13.7
		c0.1,1.9,0.8,3.8,1.5,5.6c1.5,3.5,3.4,6.8,5.7,9.8c0.4,0.4,0.4,1.3-0.4,1.1c-1.2-1.2-2.1-2.8-3.1-4.2c-1.4,12.2-4.8,24.3-10.3,35.3
		c-3.7,7.3-8.4,14.2-14.2,20c5.8,5.6,13.5,8.8,21.2,10.8c6.2-8.4,9.8-18.5,11.8-28.7c2.6-13.1,2.5-26.7,0.1-39.8
		c-0.3-0.8,1-0.9,1-0.1c1.4,6.9,1.9,14,1.9,21c-0.2,11.6-2,23.3-6.3,34.2c-2.6,6.5-6.1,12.8-11,18c2.8,2.4,6,4.2,9.3,5.8
		c5.8,2.7,12.1,4.3,18.4,5.2c3.8-13.4,5.4-27.3,5.3-41.1c-0.2-12.2-1.7-24.4-4.9-36.1c-0.1-0.4-0.2-0.8-0.1-1.2
		c0.5-0.2,0.9,0.1,0.9,0.5c1,3.6,1.9,7.3,2.6,11c10,1.5,20.3,1.7,30.2-0.3c1.4-0.2,2.7-0.7,4-0.8c0,0.2,0,0.7,0,0.9
		c-8.9,2.4-18.3,2.8-27.5,2c2,3.7,3,8,2.3,12.2c-0.7,4.8-3.3,9.1-6.6,12.5c0.1,11.4-1.1,22.8-3.6,34c1.9-1.7,3.7-3.5,5.4-5.4
		c10.3-11.2,18.7-24.3,23.4-38.8c-1.8-1.5-3.8-2.8-5.8-4.2c1-2.5,2.2-5,3.1-7.6c-0.3-0.6-0.6-1.2-0.8-1.9c0.1-0.7,1-0.4,1.1,0.1
		c5.2,9.8,8.6,20.5,10.7,31.4c0.8,8.5-1.5,17-4.8,24.8c-2,4.7-4.5,9.3-7.3,13.6c4.2,2.7,8.8,4.7,13.4,6.4c4.5,1.6,9,2.9,13.7,3.7
		c1.6-6.7,2.7-13.6,3.3-20.4c1.2-15.6-0.2-31.5-4.8-46.5c-2.6-0.9-5.2-1.7-7.8-2.5c0.2-0.6,0.4-1.2,0.6-1.8c4.2-8,7.5-16.9,7.7-26
		c-1,0.1-1.9,0.1-2.9,0.1c0.8,0.9,1.2,2.2,0.8,3.4c-0.5,1.8-2.8,2.8-4.5,2c-1.3-0.5-2-2-2-3.3c-0.5,0.1-1,0.2-1.5,0.3
		c-0.2,0.8-0.4,1.6-0.5,2.4c0.6-0.1,1.3-0.2,1.9-0.4c-2.1,3.8-2.8,8.5-1.7,12.7c-0.1-0.1-0.3-0.2-0.4-0.3c0-0.1-0.1-0.4-0.1-0.5
		c-1.2-3.6-0.9-7.5,0.3-11c-0.8,0.3-1.5,0.5-2.3,0.8c0.1-2.5,0.9-4.8,1.4-7.2c-0.4-0.1-0.8-0.1-1.2-0.2c-0.5-0.1-1-0.2-1.5-0.3
		c-6.7-1.4-13.4-3.3-19.7-5.9c-2.4-1-4.7-2.1-6.7-3.7c-0.7-0.5-1.1-1.2-1.3-2c0.3-0.4,0.5-0.8,0.8-1.2c1.1-0.4,2.3-0.8,3.5-0.6
		c0.3,0.3,0.3,0.5,0,0.8c-1,0.3-2.1,0.2-3.1,0.7c0,0.1-0.1,0.3-0.2,0.4c0.6,1.1,1.8,1.7,2.8,2.4c3.4,1.9,7.1,3.3,10.8,4.5
		c5.7,1.8,11.5,3.3,17.4,4.3c2.7,0.4,5.4,0.8,8.2,0.8c1.4,0,2.9,0,4-0.9c-0.9-1.4-2.4-2.2-3.8-3c-3.1-1.7-6.5-2.9-9.9-4
		c-0.7-0.1-0.4-1.2,0.2-0.9c4,1.1,8.2,2,12.3,2.5c4.7,0.5,9.5,0.7,14.2-0.5c2.2-0.6,4.6-1.5,5.5-3.7c-5-3-10.5-5-16-6.5
		c-1-0.3-2.2-0.4-3.1-0.9c0-0.3,0.1-0.6,0.1-0.8c4.5,0.8,9.1,1.2,13.7,1.1c6.7-0.2,13.4-1,19.7-3.2c2.5-0.9,4.9-2,6.8-3.9
		c0.7-0.7,1.2-1.6,1.5-2.5c-4.5-3.1-10.1-4-15.5-4.6c-4.1-0.5-8.2-0.1-12.3-0.7c-0.4-0.1-1.2-0.2-1-0.8c0.2-0.4,0.7-0.3,1-0.3
		c5,0.8,10.1,0.1,15-0.9c6.5-1.5,12.8-3.7,18.6-7.1c2.8-1.7,5.6-3.6,7.7-6.3c0.9-1.1,1.4-2.5,1.3-4c-4.6-1.6-9.5-1.1-14.2-0.4
		c-2.8,0.5-5.6,1-8.2,2c-5.7,3.2-11.5,6.1-17.6,8.4c-0.6,0.3-1-0.8-0.3-0.9c9-3.6,17.6-8,25.5-13.5c3.7-2.6,7.3-5.5,10.3-9
		c1.1-1.4,2.2-2.9,2.4-4.7c0.1-1.2-0.8-2.2-1.9-2.5c-2.4-0.8-5.1-0.5-7.6-0.2c-5.7,0.9-11.2,2.8-16.6,4.9
		c-8.2,3.3-16.1,7.5-23.4,12.5c-4.1,2.9-8.1,6-11.2,9.9c-0.5,0.6-1.2,1-1.5,1.7c-4.5,8-11.8,14.3-20.3,17.7
		c-2.1,0.9-4.2,1.4-6.4,2.1c2-2.3,4.1-4.6,6.4-6.6c0.1-0.1,0.3-0.3,0.5-0.4c-0.1-0.4-0.6-0.1-0.8,0c-4.6,1.3-8.6,4.2-12,7.6
		c-3.1,3.1-5.5,6.7-7.6,10.5c0.3-2.8,1-5.6,1.8-8.3c-3.1,3.8-5.6,8.1-7.1,12.8c-1.4,4.3-1.9,9.2,0,13.5c-1.2-1.4-1.8-3.1-2.2-4.9
		c-0.7-3.7-0.3-7.4,0.7-11c1.3-4.9,3.7-9.5,6.6-13.7c-6.8,3.3-13.2,8.3-16.6,15.3c-0.5-4.3,0.4-8.6,1.9-12.6c2.3-3.3,5.2-6.2,8.1-9
		c6.4-5.8,13.9-10.6,22.1-13.5c0.8-0.3,1.5-0.5,2.3-0.7c-1.3,2.3-2.8,4.4-4.4,6.5c6.7-4.3,13-9.4,17.9-15.6c3-3.7,5.4-7.9,6.8-12.4
		c-2.2-0.9-4.4-2.1-6.3-3.6c-2.9-2.3-5.3-5.4-6.4-8.9c-0.2-0.4,0-0.8,0.4-1c0.5,0.2,0.6,0.8,0.8,1.3c0.9,2.6,2.6,4.9,4.5,6.7
		c3.6,3.4,8.5,5.5,13.4,5.9c4.4,0.4,9-0.8,12.5-3.6c-4.3-3.1-7.4-7.9-8.7-13.1c-0.3-1.6-1.2-3-2.1-4.4c-2.6-3.9-6.4-7-10.8-8.5
		c-2.8-0.9-5.9-1.2-8.7-0.3c-0.5,0.1-1,0.3-1.5,0.2C83.2,39.4,83.3,39,83.8,38.9 M107.4,51.3c-0.4,0.1-0.2,0.5-0.1,0.8
		c1.1,4.5,3.4,8.8,7,11.8c4.2-5.4,7.7-11.7,8.8-18.5C117.4,45.8,112,48.2,107.4,51.3 M124.3,66.4c-4.3,0.7-8.3,2.4-12.2,4.2
		c-2.5,1.2-5,2.3-7.3,3.8c-0.2-0.2-0.7-0.6-0.3-0.9c1.2-1.1,2.5-2,3.6-3.1c-1.5,0.2-3,0.4-4.5,0.4c0.1,6-1.1,12-3.5,17.5
		c3.1-3.3,6.7-6.1,10.4-8.7c4.9-3.4,10.1-6.3,15.5-8.9c0.6-0.3,1.4-0.5,1.7-1.3c0.3-0.8,0.8-1.8,0.1-2.5
		C126.8,66,125.5,66.2,124.3,66.4 M93.4,136c-0.2,0.4-0.5,0.9-0.4,1.4c0.1,1,1.2,1.6,2.1,1.2c0.6-0.2,0.7-1.1,1.4-1.3
		c0,0.7-0.2,1.3-0.3,1.9c-0.1,1.4,1,2.7,2.4,2.8c1.6,0.3,3.2-1.2,3.1-2.8c0-1-0.7-1.7-1.3-2.4C98,136.7,95.7,136.4,93.4,136
		 M54.2,152.3c1.4,8,2.2,16,2.3,24.1c3.5-3.8,5.9-8.8,5.8-14.1c0-3.3-1.1-6.4-2.7-9.3C57.9,152.8,56.1,152.6,54.2,152.3z"/>
	<path class="st8" d="M26.9,69.1c0.9-0.1,1.3-0.9,1.8-1.5c0.2,0.2,0.7,0.5,0.4,0.9c-0.7,1.5-3,2.2-4.2,0.9c0.1-0.1,0.2-0.4,0.3-0.6
		C25.8,69,26.3,69.1,26.9,69.1z"/>
	<path class="st8" d="M37.1,70.4c0.3-0.3,0.8,0,0.7,0.4c0,2.8-1.6,5.5-3.9,7c-1.9,1.3-4.4,1.8-6.7,1.4c-0.6-0.2-0.5-1.2,0.2-1
		c3.1,0.5,6.4-0.9,8.1-3.6c0.8-1.2,1.1-2.6,1.4-4C36.9,70.6,37,70.4,37.1,70.4z"/>
	<path class="st8" d="M113.2,83.2c1.9-0.6,4.2-1.2,6.1-0.2c1.2,0.5,1.3,2,1.2,3.2c-0.3,2.5-1.7,4.7-3.1,6.7c-2.7,3.5-6.1,6.5-9.7,9
		c2.8-0.3,5.6-0.7,8.4-0.1c0.9,1.6,0.5,3.6-0.5,5.1c-1.7,2.5-4.2,4.3-6.7,5.8c-3.9,2.2-8.1,3.9-12.4,4.9c1.7,0.6,3.8,1,5,2.6
		c0.7,0.9,0,2.1-0.9,2.7c-2.1,1.4-4.6,1.9-7.1,2.4c-3.7,0.7-7.4,1.2-11.2,1.4c-0.7,0.1-0.7-1,0-0.9c4.9-0.4,9.9-0.9,14.6-2.3
		c1.3-0.4,2.7-0.8,3.7-1.9c0.5-0.5-0.1-1.1-0.5-1.4c-1.4-1-3.1-1.4-4.8-1.8c-1.6-0.5-3.1,0.4-4.7,0.3c-0.7-0.1-0.4-1.1,0.2-1
		c4.8-0.6,9.5-1.9,13.9-3.9c3.3-1.5,6.6-3.4,9.1-6.2c1.2-1.3,2.2-3.2,1.5-5c-3.3-0.3-6.6,0.1-9.8,0.8c-1.5,0.6-2.8,1.7-4.3,2.2
		c-0.5,0.2-0.8-0.7-0.3-0.8c6.1-3.2,11.9-7.3,16-12.9c1.4-2.1,2.9-4.4,2.6-7.1c0-1.1-1.3-1.3-2.2-1.3c-2.7,0-5.3,1.1-7.7,2.4
		c-2.5,1.4-4.8,3.2-6.6,5.4c-0.9,1.2-1.1,2.7-1.6,4c-3,7.5-8.3,13.9-14.8,18.7c-3.7,2.7-7.8,4.8-12.3,5.7c-2,0.4-4.1,0.5-6.1,0
		c-0.3-0.3-0.3-0.6,0-0.9c1.2,0,2.5,0.3,3.7,0.2c4.8-0.3,9.2-2.5,13.1-5.1c6.3-4.4,11.5-10.4,14.8-17.3c1.1-2.3,1.5-4.9,3.3-6.9
		C105.7,86.6,109.4,84.5,113.2,83.2z"/>
</g>
<g>
	<path class="st9" d="M32,45.6c0.5-0.4,1.2-0.4,1.8-0.2C33.2,45.8,32.6,45.8,32,45.6z"/>
</g>
<g>
	<path class="st10" d="M24.5,45.5c0.5,0,1,0.1,1.6,0.1c0.5,0.2,0.9,0.5,1.4,0.7c0.8-0.9,2.1-0.5,3.2-0.5c1.2,1.3,2.7,2.9,4.7,2.6
		c-0.1,0.8-0.7,1.4-1.5,1.5c0.4,3.6-0.2,7.3-1.4,10.8c-0.3,0.8-0.7,1.5-1.5,1.9c-1-3.1-1.3-6.4-0.9-9.6c0,1-0.3,2.4,0.6,3.1
		c0.6,0.2,1-0.3,1.3-0.8c0.7-1.1,0.7-2.5,0.6-3.8c0-0.7,0-1.4,0-2.2c-0.8-0.5-1.6-1.1-2.3-1.8c-0.2-0.2-0.4-0.4-0.6-0.6
		c-0.2-0.3-0.5-0.5-0.7-0.8c-1.2,2.4-2,5-2.4,7.6c-0.2,1.8-0.1,3.7-0.1,5.5c-0.4-2-0.1-4.1,0-6.2c0-1.2,0.2-2.5,0.4-3.7
		c-1.5,0.1-3.2-0.3-3.9-1.8c1.4,0.4,3,0.7,4.4,0.1C26.1,47.3,25,46.6,24.5,45.5 M31.2,59.9c0.8-0.8,0.9-2,0.5-3
		C30.8,57.6,30.7,58.9,31.2,59.9z"/>
	<path class="st10" d="M39.8,51.7c-0.6-1.5,0-3.3,0.9-4.5c-0.3,1-0.7,2.2-0.3,3.2c0.2,0.4,0.5,1.1,1.1,1c10.6-0.4,21.2-0.8,31.9-1.2
		c1.7,0.1,3-1.1,4.2-2.1c0,1.1-0.4,2.1-1.2,2.8c-1.3,1.2-3.1,1.7-4.8,1.7c0,0.1-0.1,0.4-0.1,0.6c2.3,0.9,5.2,0.8,7.2-0.8
		c-0.3,1.1-1.2,2-2.3,2.5c-1.6,0.7-3.4,0.7-5.1,0.4c-0.1,0.6-0.3,1.3-0.4,1.9c2,0.9,4.2,1.2,6.3,0.7c-1.9,1.5-4.5,1.5-6.8,0.8
		c-1.1,3.2-3,6.2-5.7,8.3c-1.1,1.7-2.3,3.5-3.8,5c-1.6-0.1-3.2-0.7-4.2-2c-1.9-2.3-2.4-5.4-2.2-8.3c0.1-1.6,0.4-3.2,1.1-4.7
		c-0.4,1.5-0.4,3.2,0.5,4.5c0.6,1,1.9,1.4,3,1.2c1.6-0.3,2.9-1.3,4-2.4c1.9-2.2,3.1-5.4,2.1-8.2c-2.2,0-4.4,0.2-6.6,0.3
		c-0.5,0-0.8,0.5-1.1,0.8c0.1-0.2,0.2-0.6,0.3-0.8c-1.4,0.1-2.7,0.1-4.1,0.2c-3.5,0.1-6.9,0.3-10.4,0.4c-1.3,3.9-2,8.1-1.4,12.2
		c-1.9-3.7-1.7-8.3,0-12.1C41.1,53,40.1,52.6,39.8,51.7 M62.5,63.7c-1.2,0.6-2,2-1.9,3.4c0,0.8,0.8,1.5,1.6,1.2
		c1.6-0.5,2.6-2.4,2.2-4C64.2,63.5,63.2,63.4,62.5,63.7z"/>
</g>
<g>
	<path class="st11" d="M45.7,48.1c-0.3-0.3-0.1-0.7,0-1.1c0.2,0.1,0.5,0.2,0.6,0.3C46.2,47.6,46,47.9,45.7,48.1z"/>
</g>
<g>
	<path class="st12" d="M29.4,46.9c0.2,0.2,0.4,0.4,0.6,0.6c-2.1,4.9-2.7,10.6-1,15.8c-0.2,0.1-0.5,0.2-0.7,0.2
		C26.2,58.2,27,52,29.4,46.9z"/>
	<path class="st12" d="M31.2,50.8c0.6-0.3,0.9,0.3,1.3,0.7c0.1,1.3,0.1,2.6-0.6,3.8c-0.3,0.4-0.7,1-1.3,0.8
		c-0.9-0.7-0.6-2.1-0.6-3.1C30.2,52.1,30.5,51.2,31.2,50.8z"/>
	<path class="st12" d="M58.7,52.4c2.2-0.1,4.4-0.2,6.6-0.3c1,2.9-0.2,6-2.1,8.2c-1,1.2-2.4,2.2-4,2.4c-1.1,0.2-2.4-0.3-3-1.2
		c-0.9-1.3-0.9-3-0.5-4.5c0.6-1.3,1.2-2.6,1.9-3.9C57.9,52.9,58.1,52.3,58.7,52.4z"/>
	<path class="st12" d="M43.4,53c3.5-0.1,6.9-0.3,10.4-0.4c-2.3,4.7-3.5,10.1-2.4,15.3c0.6,3,2.2,6.1,5,7.5c-1,0.5-2.1,0.8-3.2,1.1
		c-0.9,0.1-1.7,0.1-2.6,0c-2-0.4-3.9-1.4-5.2-3c-2-2.3-2.9-5.3-3.4-8.2C41.5,61.1,42.1,56.9,43.4,53z"/>
	<path class="st12" d="M31.2,59.9c-0.5-1-0.3-2.3,0.5-3C32,57.9,31.9,59.1,31.2,59.9z"/>
	<path class="st12" d="M62.5,63.7c0.6-0.4,1.6-0.2,1.8,0.6c0.4,1.6-0.6,3.5-2.2,4c-0.8,0.3-1.5-0.4-1.6-1.2
		C60.5,65.7,61.3,64.3,62.5,63.7z"/>
	<path class="st12" d="M93.4,136c2.3,0.4,4.6,0.7,6.9,0.9c0.7,0.6,1.4,1.4,1.3,2.4c0.1,1.6-1.5,3.1-3.1,2.8
		c-1.4-0.2-2.4-1.5-2.4-2.8c0.1-0.7,0.4-1.3,0.3-1.9c-0.6,0.2-0.7,1.1-1.4,1.3c-0.9,0.4-2-0.2-2.1-1.2
		C92.9,136.9,93.2,136.4,93.4,136z"/>
</g>
<g>
	<path class="st13" d="M29,63.3c-1.7-5.1-1.1-10.8,1-15.8c0.7,0.7,1.5,1.2,2.3,1.8c0.1,0.7,0.1,1.4,0,2.2c-0.3-0.3-0.7-1-1.3-0.7
		c-0.7,0.5-1,1.4-1.2,2.1c-0.4,3.2-0.1,6.5,0.9,9.6C30.3,62.8,29.6,63.1,29,63.3z"/>
	<path class="st13" d="M53.8,52.6c1.4-0.1,2.7-0.1,4.1-0.2c-0.1,0.2-0.2,0.6-0.3,0.8c-0.7,1.2-1.3,2.5-1.9,3.9
		c-0.7,1.5-0.9,3.1-1.1,4.7c-0.2,2.9,0.3,6,2.2,8.3c1,1.3,2.6,1.9,4.2,2c-1.4,1.3-2.8,2.7-4.6,3.3c-2.8-1.5-4.4-4.5-5-7.5
		C50.3,62.7,51.5,57.2,53.8,52.6z"/>
	<path class="st13" d="M65.7,112.3c3.3-3.4,7.3-6.3,12-7.6c0.1,0.1,0.3,0.2,0.3,0.3c-2.3,2.1-4.4,4.3-6.4,6.6
		c-3,3.5-5.9,7.1-8.5,10.9c-0.3,0.4-0.6,0.8-0.8,1.2c-3.6,5.5-6.7,11.2-9.3,17.3c-0.1-0.1-0.2-0.2-0.2-0.3c-1.9-4.3-1.3-9.1,0-13.5
		c1.5-4.7,4-9,7.1-12.8c-0.9,2.7-1.6,5.5-1.8,8.3C60.2,119,62.6,115.4,65.7,112.3z"/>
	<path class="st13" d="M144.8,112.5c0.4,0,0.8,0.1,1.3,0.2c8.2,1.4,15.9,5.5,21.5,11.6c4.7,5.1,7.9,11.5,9.6,18.3
		c1.2,4.9,1.6,9.9,1.5,15c-0.1,1.9-0.1,3.7-0.6,5.6c-0.7-2.1-1.2-4.2-2-6.3c-1.8-4.7-4.1-9.3-7.3-13.2c2.1,6.8,2.5,14.1,1.9,21.1
		c-0.9,10.2-4,20.2-8.5,29.4c-2.1,10.1-3,20.5-2.7,30.8c0,0.3-0.1,0.5-0.4,0.7c-1.3-1.6-2-3.5-2.9-5.3c-1.4-3.2-2.5-6.5-3.3-9.9
		c0.3-1.8,0.8-3.7,1.6-5.4c5.4-12.9,9.1-26.5,10.5-40.4c0.2-0.8,0.2-1.7,0.2-2.6c0-0.2,0-0.5,0.1-0.6c0.2-1.4,0.3-2.8,0.2-4.2
		c0.1-2.6,0.1-5.2,0-7.8c0.1-1,0-2.1-0.2-3.1c-0.5-6-2.4-11.9-5.7-16.9c1.7,1.1,3.1,2.5,4.4,4.1c0.2,0.4,0.6,0.5,1.1,0.4
		c-1.8-5.2-5-9.9-9.3-13.3c-3.8-2.9-8.3-4.7-13-5.3c0-0.1,0.1-0.4,0.1-0.5c0.8-0.4,1.6-0.9,2.4-1.3
		C145,113.1,144.9,112.8,144.8,112.5z"/>
</g>
<g>
	<path class="st14" d="M89.8,65.5c1.9,1.5,4,2.7,6.3,3.6c-1.4,4.5-3.9,8.7-6.8,12.4c-5,6.3-11.2,11.4-17.9,15.6
		c1.6-2.1,3.2-4.2,4.4-6.5c-0.8,0.2-1.6,0.4-2.3,0.7c-8.2,2.9-15.6,7.7-22.1,13.5c-3,2.7-5.8,5.7-8.1,9c4.4-11.3,12.8-20.9,23-27.3
		c-3-1.5-5.7-3.4-8.2-5.7c4.3,0.2,8.6-0.2,12.7-1.4C78.5,77.2,85.5,72.4,89.8,65.5z"/>
	<path class="st14" d="M126,118.3c6.1-1,12.6-0.2,18.1,2.7c3.6,1.9,6.8,4.7,9.1,8c3.2,4.5,5.1,9.9,5.8,15.4
		c0.6,3.9,0.4,7.9,0.2,11.8c-0.6,13.4-3.7,26.6-8.8,39c-1.4,3.6-3.2,7-4.4,10.7c-3.6,10.6-4.7,22.3-1.6,33.1c0.7,2.5,1.7,5,2.9,7.3
		c0.2,0.3,0.3,1.2-0.3,1c-4.1-2.7-7-6.9-9-11.3c-2.6-5.7-3.6-12.1-3-18.3c1.2-8.4,3.7-16.6,7.2-24.3c1-2.3,2.3-4.4,3.1-6.8
		c3-5.6,5.2-11.6,6.5-17.8c1.6-7.8,1.8-15.9-0.2-23.6c-1.3-5.1-3.5-10-6.8-14.1c-2.5-3.1-5.7-5.6-9.3-7.3c-4.5-2.1-9.5-2.9-14.4-2.3
		c-0.4,0.1-1.2,0-0.9,0.7c-0.3-0.3-0.5-0.6-0.9-0.8c-2-0.8-4-1.6-6-2.3c3.9,0,7.8,0.2,11.7-0.2C125.4,118.6,125.7,118.3,126,118.3z"
		/>
</g>
<g>
	<path class="st15" d="M50.5,76.4c0.9,0,1.7,0,2.6,0C52.4,76.9,51.3,76.8,50.5,76.4z"/>
</g>
<g>
	<path class="st16" d="M77.7,104.7c0.2-0.2,0.7-0.5,0.8,0c-0.1,0.1-0.3,0.3-0.5,0.4C77.9,105,77.7,104.8,77.7,104.7z"/>
</g>
<g>
	<path class="st17" d="M142,114.9c0.2,0,0.5-0.1,0.6-0.1c0,0.1-0.1,0.4-0.1,0.5C142.3,115.3,141.6,115.2,142,114.9z"/>
</g>
<g>
	<path class="st18" d="M107.8,130.8c2.6,0,5.3,0.1,7.9,0C113.1,131.1,110.4,131.1,107.8,130.8z"/>
</g>
<g>
	<path class="st19" d="M165.2,146.2c0.2,1,0.2,2.1,0.2,3.1C165.2,148.2,165.1,147.2,165.2,146.2z"/>
</g>
<g>
	<path class="st20" d="M165.1,161.3c0-1.4,0-2.8,0.2-4.2C165.4,158.5,165.4,159.9,165.1,161.3z"/>
</g>
<g>
	<path class="st21" d="M164.9,164.5c0-0.9,0.1-1.7,0.2-2.6C165.1,162.8,165,163.7,164.9,164.5z"/>
</g>
<g>
	<path class="st22" d="M132,213.6c0-0.9,0.1-1.9,0.3-2.8c0,2.6,0,5.1,0,7.7C131.8,216.9,132,215.3,132,213.6z"/>
</g>
</svg>
