<?xml version="1.0" encoding="utf-8"?>
<!-- Generator: Adobe Illustrator 23.0.3, SVG Export Plug-In . SVG Version: 6.00 Build 0)  -->
<svg version="1.1" id="Layer_1" xmlns="http://www.w3.org/2000/svg" xmlns:xlink="http://www.w3.org/1999/xlink" x="0px" y="0px"
	 viewBox="0 0 278.7 250" style="enable-background:new 0 0 278.7 250;" xml:space="preserve">
<style type="text/css">
	.st0{fill:#5A46A6;}
	.st1{fill:#BA78C3;}
	.st2{fill:#0A0E60;}
	.st3{fill:#FF358B;}
	.st4{fill:#161616;}
	.st5{fill:#FEFEFE;}
	.st6{fill:#CA55AF;}
</style>
<g>
	<path class="st0" d="M250.5,1.2c1.3-1.5,4-1.6,5.3,0c2.9,3.1,4.3,7.4,4.7,11.6c0.6,5.4,0,10.8-1.2,16c2.7-4.2,5.6-8.4,9.7-11.2
		c0.5-0.4,1,0,1.2,0.5c2.9,4.7,3,10.5,2.4,15.8c-1.5,10.4-6.1,20.1-12.1,28.7c5.5-2.4,10.7-5.6,15.3-9.5c0.8-0.7,2.1-0.2,2.3,0.8
		c1.2,4.2,0,8.7-1.7,12.6c-3.7,8-9.9,14.5-16.9,19.6c2.8-0.3,5.8-0.4,8.5,0.5c0.9,0.2,1.3,1.3,0.8,2.1c-2.7,6.6-8,11.7-13.9,15.4
		c-3.7,2.4-7.8,4-12,5.4c1.7,0.3,3.6,1.2,4.1,3c0.4,1.7-0.6,3.3-1.7,4.5c-1.9,2-4.4,3.5-6.8,4.7c-4.4,2.2-9.1,3.7-13.9,4.6
		c-0.3,0.2-0.9-0.1-0.8,0.4c2.3,0.7,4.6,1.7,6.5,3.3c0.7,0.8,0.3,1.8-0.4,2.5c-2.6,2.9-6.3,4.6-9.8,6.1c-3.2,1.3-6.6,2.2-10.1,2.5
		c5.9,7.2,9.2,16.1,10.6,25.2c1.7,11.5,0.5,23.5-3.8,34.3c-1.7,0.8-3.7,0.9-5.6,0.6c-4.3-0.8-8.1-3.5-11-6.7
		c-3.7-4.1-6.3-9.5-6.4-15.1c1.3-3.2,2.1-6.6,2.6-10c-2.8,1.7-5.5,3.6-7.9,5.8c-0.7,6.2-3.3,12.6-8.5,16.4
		c12.9,14.5,27.4,27.6,43.7,38.3c1,1.9,0.8,4.3,0,6.2c-1.2,3.1-3.6,5.6-6.2,7.5c-5.3,3.9-11.9,6.3-18.5,6.4c-3.7,0-7.7-0.7-10.4-3.3
		c-7.3-8.6-13.9-17.9-19.8-27.5c-0.8,1.2-1.5,2.5-2.5,3.6c-1.1,2-3.5,3.1-5.8,2.7c-3.3-0.6-6.1-2.8-8.2-5.3
		c-3.1-3.7-5.2-8.4-5.6-13.2c1.8-5.2,2.4-10.8,2-16.3c-1.6-1.1-3.2-2.3-4.6-3.6c-1.8,1-3.8,1.6-5.9,1.4c1.3,5,1.8,10.7-0.4,15.5
		c-1,1.7-2.2,3.7-4.2,4.2c-2.6,0.6-5.2-0.3-7.5-1.5c-3.8-2.1-7.1-5.3-9-9.2c-0.4-1.1-1-2.2-0.8-3.3c0.5-4.1,0.2-8.4-0.2-12.5
		c0-0.1-0.1-0.3-0.2-0.4c-0.6-3.1-1.4-6.2-2.6-9c-0.8,0.2-1.6,0.4-2.4,0.7c-2.2,3.5-4.8,6.8-7.6,9.8c-4-0.4-7.8-2-11.2-4.1
		c-0.5-0.1-0.4-0.8-0.1-1c0.9-0.9,1.9-1.7,2.6-2.7c-1.3,0.9-2.7,2-4.1,2.6c-2.9-2.1-5.5-4.6-7.5-7.6c3-0.7,5.9-1.5,8.8-2.5
		c-1-0.2-1.9,0-2.9,0.1c-2.4,0.2-4.7,0.3-7.1,0.3c-2-0.2-4.1-0.2-6-1.1c-0.9-0.4-1.7-1.5-1.2-2.5c0.7-1.3,2.1-2.1,3.3-2.7
		c-7.5,0.5-15.1,0.5-22.5-0.5c-3.2-0.5-6.4-1-9.3-2.4c-1.1-0.6-2.4-1.4-2.4-2.8c0-1.6,1.5-2.5,2.7-3.2c2.9-1.4,6-2.1,9.1-2.7
		c-7.2-1-14.4-2.6-21.3-5.1c-4.1-1.5-8.2-3.2-11.9-5.7c-1.5-1.1-3.1-2.3-3.8-4.1c-0.5-1.1-0.1-2.5,0.9-3.3c1.3-1.1,3.1-1.4,4.8-1.7
		c3.9-0.5,7.8-0.3,11.7,0.1c-5.2-2.1-10.2-4.5-14.9-7.5c-6-3.9-11.7-8.5-15.9-14.3c-2.4-3.3-4.3-7.1-4.9-11.2
		c-0.3-0.7,0.4-1.3,1-1.6c7.2,3.8,14.6,7.3,22.1,10.5c-3.8-3.2-7.6-6.6-10.7-10.6C9.1,91,6.3,85.9,5.8,80.3c-0.4-3.8,0.6-7.8,2.8-11
		c0.3-0.4,0.9-0.8,1.4-0.4C20,80.1,32.2,89.3,45.4,96.6c8.5,4.7,17.6,8.5,26.9,11.2c1.6,0.7,3.3,0.8,4.9,1.3
		c10,2.8,19.1,8.2,27,14.7c4.5-0.4,8.8-1.8,12.7-4c0.1-1.5-0.6-3-0.4-4.5c0.4-0.1,0.9-0.2,1.3-0.3c0.4,4.5,1.4,8.9,3.3,13
		c0.1,0.1,0.2,0.3,0.3,0.4c-1,0.6-2,1.4-2.5,2.5c1-0.5,1.9-1.1,2.9-1.4c0.6,1.2,1.3,2.3,1.9,3.4c-0.2,0.5-0.3,1-0.5,1.6
		c0.4-0.1,0.6-0.6,0.9-0.9c2.9,4,6.4,7.7,10.5,10.4c5.6,3.7,12.3,5.9,19.1,6.2c-0.1-0.3-0.3-0.6-0.3-0.9c0.2-0.6,1-0.8,1.4-0.3
		c2.5,2.3,5.5,4.3,9,4.2c3,0,5.6-1.8,7.2-4.2c0.5-0.6,0.7-1.4,1.4-1.7c4.4-2.5,8.4-5.7,11.8-9.4c1.3-1.3,2.6-2.7,3.4-4.4
		c2.6-4.2,4.6-9,5.4-13.9c0.5,0.3,1,0.7,1.4,1.1c-0.7,2.6-1.4,5.3-2.5,7.8c-0.4,1.1-1.1,2.1-1.5,3.2c2.4-2,4.5-4.5,6.6-6.9
		c7.9-9.4,13.8-20.5,17.5-32.2c1-3.3,1.9-6.7,2.4-10.1c0.3-1.3,0.5-2.7,1-4c4.7-11.3,10.6-22.1,17.7-32.1c1.5-2.1,3.2-4.1,5.4-5.5
		c1.2-0.9,3.2-0.9,4.2,0.4c1.5,1.9,1.4,4.5,1.4,6.8c-0.5,6.7-2.7,13.2-5.1,19.4c1.5-1,3.2-2,5.1-2.1c1.6,0.2,3.1,1.4,3.4,3
		c0.6,2.4-0.1,4.9-0.8,7.3c-2.2,6.2-6.2,11.7-10.7,16.4c1.7,0,4-0.3,5,1.4c0.8,1.9-0.4,4-1.6,5.5c-3.6,4.3-8.8,6.9-13.9,9
		c1.5,0.4,3.2,1,3.6,2.7c0.3,0.8-0.3,1.4-0.6,2.1c-2,3.1-5,5.5-8.1,7.5c-2.6,1.7-5.4,3.1-8.2,4.3c1.3,0.3,2.9,0.7,3.6,2
		c0.7,1.2,0,2.6-0.9,3.5c-1.6,1.6-3.5,2.6-5.5,3.5c-5,2.2-10.4,3.5-15.8,4c0.6,0.8,1.3,1.7,1,2.7c-0.3,1.8-2,3-3.6,3.7
		c-2.8,1.1-6,1.4-8.8,0.5c-0.6-0.1-0.7-0.9-0.4-1.3c0.6-0.6,1.3,0,2,0.1c2.4,0.4,4.9,0.1,7-1c1-0.5,2-1.2,2.2-2.4
		c0-1.2-1.4-1.9-2.4-2.2c-0.6-0.2-1.7,0-1.5-0.9c-0.1-0.5,0.4-0.7,0.8-0.7c5.9,0,11.8-1.3,17.3-3.4c2.1-0.9,4.3-1.9,6-3.3
		c0.5-0.5,1.2-1.1,1.2-1.9c-0.5-1-1.8-1.2-2.8-1.4c-1.3-0.2-2.7-0.5-3.9,0c-2.8,0.8-5.7,1.6-8.6,1.4c-0.6-0.5-0.2-1.5,0.6-1.4
		c3.4-0.1,6.8-1.1,10-2.2c4.4-1.6,8.6-3.8,12.4-6.7c2.2-1.7,4.3-3.6,5.5-6.2c-0.6-1.1-2.1-1.3-3.2-1.5c-2.6-0.5-5.2,0.6-7.9,0.1
		c-0.5-0.4-0.3-1.4,0.4-1.4c5.2-0.3,10.3-2.2,14.8-4.8c2.6-1.6,5.1-3.4,6.9-5.9c0.7-1,1.4-2.3,0.7-3.5c-1.7-0.4-3.4-0.3-5.1,0
		c-0.6,0.1-1.1,0.7-1.6,1c-1.3,1-2.7,2-4.3,2.6c-0.8,0.2-1.2-1.1-0.5-1.4c4.2-2.2,7.6-5.6,10.5-9.2c2.7-3.4,4.9-7,6.5-11
		c0.8-2.2,1.4-4.5,1.1-6.8c-0.2-0.9-0.6-2-1.7-2c-1.9-0.1-3.6,1.1-5,2.3c-0.7,0.6-1.4,1.2-1.9,1.8c-1.1,2-2,4.2-3.2,6.1
		c-0.2,0.5-0.8,0.3-1.2,0.1c-0.2-0.4-0.2-0.9,0.1-1.3c2.4-4.3,4.5-8.9,6.2-13.5c1.6-4.6,2.9-9.3,3.3-14.1c0-1.9,0.2-3.9-0.6-5.6
		c-0.3-0.7-1.1-1.2-1.8-1c-1.2,0.3-2.2,1-3,2c-8.3,11-15.1,23-20.3,35.7c-0.5,1.1-0.5,2.2-0.7,3.4c-2.1,12.1-7,23.6-13.6,33.9
		c-4.8,7.5-10.7,14.3-17.7,19.8c-2.6,3.3-5.7,6.3-9.2,8.8c1.1,1.3,2.3,2.5,3.3,3.9c1.2,2.2,3.8,3.1,6.2,3.3
		c5.1-5,10.8-9.4,17.2-12.6c0.8-0.3,1.6-1,2.5-0.7c0.7,0.1,1.3,0.9,2,0.7c5.3-0.5,10.5-2.2,15.2-4.9c1.6-1,3.4-2.1,4.5-3.8
		c-2.8-2.1-6.3-3.1-9.6-4c-0.8-0.3-0.6-1.5,0.3-1.5c5.6-0.5,11-2,16.2-4.2c3.1-1.5,6.3-3.1,8.7-5.7c0.7-0.8,1.4-1.9,0.9-3
		c-0.8-1.1-2.2-1.5-3.4-1.8c-1.9-0.3-3.8-0.4-5.6-0.1c-1,0.1-1.1-1.4-0.3-1.7c0.7-0.1,1.4,0,2-0.1c7.9-1.4,15.4-4.9,21.4-10.2
		c3.3-2.9,6.3-6.5,7.8-10.6c-2.1-1-4.6-0.7-6.9-0.6c-1.6,0.3-3.4,0.1-4.8,1.1c-1.6,0.9-3.2,1.8-4.9,2.5c-0.7,0.2-1.1-0.5-0.9-1.1
		c0.8-0.7,1.8-0.9,2.7-1.5c6.5-3.3,12.2-8.1,16.9-13.8c2.9-3.7,5.5-7.7,6.9-12.2c0.8-2.7,1.2-5.6,0.4-8.3c-5.2,4.5-11.2,8-17.6,10.5
		c-2,2.3-3.8,4.7-6,6.8c-0.5,0.5-1.1,0-1.3-0.5c0-0.4,0.3-0.6,0.5-0.9c5.9-6.2,10.7-13.4,14.2-21.1c2.3-5.2,4.1-10.7,4.7-16.4
		c0.4-4.5,0.3-9.4-2-13.5c-2.8,2.1-5,4.9-7,7.7c-1.8,2.7-3.5,5.6-4.9,8.6c-2.4,6.7-5.5,13.1-9.6,18.8c-0.5,0.9-1.9-0.2-1.2-0.9
		c5.5-8.1,9.6-17.2,11.6-26.8c0.8-4.1,1.3-8.4,0.9-12.6c-0.4-4.5-1.6-9.4-5.1-12.5c-0.7-0.8-2.1-0.6-2.4,0.5
		c-2.9,9.6-6.6,19-11.1,28c-5.7,11.4-12.4,22.4-20.6,32.3c-1.8,2.2-3.9,4.2-5.6,6.6c-2.8,3.7-4.7,8-5.6,12.6
		c-1.8,10.2-6.2,20-12.3,28.3c-0.9-0.2-1.9-0.2-2.8,0c-0.4-5.2-1.7-10.3-4-14.9c0.4-0.2,0.9-0.4,1.3-0.7c2.4,4.6,3.7,9.7,4.2,14.9
		c5.5-7.2,9.4-15.7,11.6-24.5c0.6-2.2,0.8-4.4,1.4-6.6c1.2-3.9,3.1-7.5,5.6-10.7c2.3-2.8,4.8-5.4,7-8.3
		c8.2-10.3,14.8-21.8,20.4-33.7C245,17.5,248.1,9.5,250.5,1.2 M9.5,70.6c-1.5,2.2-2.2,4.9-2.4,7.5c-0.1,4.3,1.4,8.5,3.6,12.2
		c3,5.1,7.1,9.4,11.6,13.2c6,5,12.8,9,19.8,12.4c0.6,0.3,0.4,1.1-0.1,1.4c-0.5,0.1-0.8-0.2-1.2-0.4c-4.3-2-8.4-4.3-12.4-7
		c-0.6-0.4-1.3-0.6-1.9-0.9c-8.5-3.4-16.8-7.2-24.8-11.4c0.4,3,1.8,5.8,3.3,8.3c3.7,5.8,8.9,10.4,14.6,14.2
		c9.1,6.2,19.4,10.4,30,12.8c0.6,0.2,0.7,1.2,0,1.4c-1.1,0-2.2-0.4-3.3-0.7c-4.6-1.4-9.4-1.9-14.2-2.3c-3.4,0-6.9-0.3-10.2,0.8
		c-0.9,0.4-2.1,0.8-2.2,2c0.4,1.6,1.7,2.6,2.9,3.5c2.8,2,5.9,3.4,9,4.7c5.9,2.3,12,4,18.2,5.2c4.6,0.8,9.4,1.5,14.1,1.4
		c0.7-0.1,1.1,0.9,0.6,1.4c-1,0.2-2,0-3,0.2c-4.3,0.5-8.7,1.1-12.8,2.6c-1.3,0.5-2.7,1-3.6,2.1c-0.3,0.5,0,1.1,0.4,1.3
		c1.3,1,2.8,1.5,4.3,1.9c5.6,1.5,11.4,1.7,17.1,2c6.2,0,12.4-0.3,18.5-1.2c0.8-0.3,1.3,1,0.5,1.4c-1.2,0.3-2.4,0.3-3.6,0.6
		c-1.8,0.6-3.6,1.3-5.1,2.3c-0.5,0.4-1.2,0.7-1.4,1.4c0.3,0.8,1.4,0.9,2.1,1.1c3.9,0.7,8,0.4,11.9,0.1c6.7-0.8,13.5-2.1,19.7-4.9
		c0.7,0,1.1,0.9,0.6,1.3c-1.7,0.9-3.5,1.4-5.2,2c-1.5,2.1-2.5,4.6-2.6,7.2c2,0.5,4.1,0.4,6.1,0.1c5.7-0.8,10.9-3.4,15.4-6.9
		c0-0.1,0-0.2,0-0.3c-1.6-0.2-3.2-0.4-4.6-1.1c-0.9-1-1-2.5-1.2-3.8c-3.3,0.7-6.7,0.8-10.1,0.6c-4.7-0.4-9.5-1.6-13.3-4.4
		c-0.4-0.3-1-0.6-0.9-1.2c0.4-1.2,1.3-2.2,2.1-3.1c-7.7,0.5-15.9-1.1-22.1-6.1c-0.5-0.5-1.4-0.9-1.3-1.8c0.3-0.9,1.2-1.4,1.5-2.3
		c-3-0.3-6-1-8.9-2.1c-4.2-1.6-8.2-3.9-10.8-7.6c-0.3-0.3-0.2-1,0.3-1.1c3.1-1.1,6.4-1.7,9.7-2.2l-0.2-0.3
		c-7.4-3.1-14.4-7.8-18.9-14.6c-0.2-0.4-0.7-0.9-0.3-1.3c1-0.8,2.5-0.6,3.6-1c-2.2-1.5-4.6-3-6.6-4.8c-0.6-0.6,0.4-1.6,1-1
		c6.6,5.3,14.3,9.1,22.5,11.3c2.6,0.6,5.1,1.3,7.7,2.1c12.3,4,23.3,11.4,32,20.8c6.4,5.7,13.8,10.6,21.9,13.4
		c4.3,1.4,8.9,2.4,13.4,1.6c0.5-0.1,1-0.1,1.4-0.5c-12.2-4.3-22.7-12.4-31.1-22c-6-6.8-13.3-12.3-21.2-16.6
		c-4.8-2.6-10-4.5-15.3-5.9c-6.6-1.6-13.1-4.1-19.3-6.8C37.9,95.2,22.2,84.3,9.5,70.6 M46.9,113.2l0,0.3c2.7,3.9,6.3,7.1,10.3,9.6
		c4.8,3,10.1,5.2,15.7,6.2c0.4,0.1,0.9,0,1.1,0.5c0.4,0.5-0.1,1.2-0.6,1.1c-1.6-0.2-3.1-0.7-4.7-1c-4.2,0-8.4,0.6-12.5,1.9
		c3.3,4,8.2,6.2,13.2,7.5c5.8,1.4,12.1,1.5,17.8-0.3c0.5,0.1,0.7,0.6,0.6,1.1c-0.3,0.4-0.8,0.5-1.2,0.6c-3.3,0.9-6.8,1.2-10.2,1.1
		c-0.8,0.6-1.5,1.3-2.1,2c0.1,0.4,0.5,0.6,0.8,0.9c4.3,3.4,9.8,5,15.2,5.5c3.5,0.2,7,0.1,10.4-0.9c0.8-0.3,1.4,0.8,0.7,1.3
		c-1.2,0.6-2.7,0.3-3.7,1.3c-0.8,0.8-1.6,1.6-2.2,2.5l0.1,0.2c2.4,1.8,5.2,2.8,8.1,3.5c5.8,1.3,11.9,1,17.6-0.9
		c0.6-0.2,1.2-0.6,1.8-0.3c0.4,0.4,0.4,1.2-0.2,1.3c-1,0.5-2.2,0.6-3.1,1.2c0,0.9,0,2.2,0.7,2.9c3.8,1.2,7.9,1,11.7,0
		c3-0.8,5.8-2.2,8.1-4.2c0.8-0.1,1.2,1,0.5,1.4c-4.1,3.5-9.6,5-14.9,5.1c-1,1.6-1.8,3.4-2,5.4c2.4,0.6,4.9,0,7.2-0.8
		c4.5-1.7,8.6-4.8,11.2-8.8c0.2-0.3,0.4-0.8,0.8-0.8c0.6,0,1.1,0.7,0.6,1.2c-2.3,3.7-5.7,6.6-9.5,8.6c-3.2,1.6-6.9,2.8-10.5,1.9
		c-0.3-0.1-0.8-0.1-1-0.5c-0.6-1.1,0.1-2.3,0.1-3.4c-2.4,1.7-5.1,3.1-7.9,4.1l-0.1,0.2c2.9,7.1,3.8,14.9,2.9,22.5
		c0.1,1.5,0.9,2.9,1.7,4.2c2.4,3.6,6,6.6,10.2,7.9c1.8,0.4,4.1,0.9,5.6-0.6c1.6-1.5,1.8-3.8,2.4-5.8c0.7-4,0.3-8.1-0.8-12
		c-6.4-1.5-11.2-7.1-13-13.2c-0.3-0.5,0.3-1.1,0.8-1.1c0.8,0.2,0.8,1.1,1,1.7c1.6,4.4,4.8,8.3,9.1,10.3c2.5,1.1,5.7,1.5,8.1,0
		c-0.2-0.4-0.5-0.6-0.7-0.9c-3.4-3.6-6.3-7.8-7.8-12.5c-0.1-0.9,1.3-1.1,1.5-0.2c3.2,8.5,9.9,15.4,18,19.4l0.2-0.2
		c-2.4-5.2-4.7-10.5-6.8-15.9c-0.3-0.8,1-1.4,1.4-0.6c10.1,25.2,23.4,49.4,40.9,70.2c2.1,2.4,5.4,2.9,8.4,3.2
		c6.9,0.1,13.8-2.2,19.2-6.4c2.5-2,4.8-4.5,5.7-7.6c0.3-1.3,0.4-3-0.7-4c-8.3-5.5-16.2-11.7-23.6-18.3
		c-12.3-11.1-23.6-23.5-33.5-36.8c-0.4-0.8,0.9-1.6,1.4-0.7c4.1,5.4,8.3,10.7,12.8,15.7c1.7-1.1,3.1-2.7,4.2-4.4
		c2.9-4.5,4-9.9,4-15.2c-0.1-5.2-1.3-10.4-3.6-15c-1.6-3.5-3.8-6.8-6.6-9.5c-1.3,0.7-2.6,1.6-3.9,2.4c-1.6,2.7-4.1,5.2-7.3,5.8
		c-3.6,0.8-7.2-0.7-10-2.8c-3.8,0-7.6-0.5-11.2-1.5c2.7,5.3,7,9.7,11.8,13.1c0.9,0.5-0.2,1.9-0.9,1.2c-5.5-3.7-10.1-8.8-13-14.8
		c-0.3-0.2-0.5-0.4-0.8-0.5c-7.2-2.6-13.5-7.5-17.9-13.7l-0.1,0.1c-1-1.4-1.8-2.8-2.6-4.3c-1.7,1.6-3.7,2.9-5.8,3.8
		c1.3,1.4,2.7,2.7,4.2,4c4.8,4.4,10.3,8.1,16.1,11.1c0.4,0.2,0.9,0.6,1.4,0.4c0.1,0.1,0.2,0.3,0.3,0.4c2,0.9,4,1.7,6.1,2.4
		c0.5,0.4,1.3,0.6,1.4,1.3c-0.1,0.3-0.3,0.6-0.6,0.7c-3.7,1.5-7.8,1.5-11.6,0.9c-7.2-1.3-13.8-4.5-19.8-8.6
		c-3.8-2.6-7.5-5.4-10.6-8.8c-9-9-20.2-16-32.6-19.3c-6-1.5-12-3.3-17.5-6.2C50.5,112.1,48.6,113.1,46.9,113.2 M206.2,140.7
		c-7.8,3.8-14.8,9.4-20.4,16c2,5.1,3.2,10.7,2.8,16.2c2.5-1.9,5.1-3.8,7.8-5.4c0.7-4.4,0.4-9.1-0.7-13.4c-0.2-0.5,0.1-1.1,0.6-1.2
		c0.8,0,0.9,0.9,1,1.5c1,3.7,0.9,7.5,0.8,11.3c-0.4,4.4-1.2,8.7-2.6,12.9c-0.2,0.6-0.6,1.2-0.4,1.8c0.5,6.1,4,11.8,8.6,15.6
		c2.8,2.3,6.3,4.1,10.1,3.8c0.6-0.2,1.4,0,1.7-0.6c4.1-10.6,5.1-22.4,3.3-33.6c-1.6-9.2-5.1-18.4-11.6-25.3
		C206.9,140.2,206.6,140.6,206.2,140.7 M183.9,152.8c0.5,0.8,0.8,1.7,1.3,2.4c0.4-0.6,0.9-1.1,1.4-1.6
		C185.7,153.4,184.8,153.2,183.9,152.8 M150.2,191.6c0.3,5.3-0.4,10.6-2,15.7c0.5,4.7,2.6,9.1,5.7,12.5c2,2.1,4.5,4.1,7.5,4.3
		c1.7,0.1,3.2-1.1,4-2.5c0.9-1.2,1.7-2.4,2.3-3.8c-4.3-7.4-8.5-15-12.2-22.8c-0.3-0.5-0.4-1.1-1-1.3
		C153,193.2,151.6,192.4,150.2,191.6z"/>
	<path class="st0" d="M145.9,44.7c0.2-0.6,0.9-0.5,1.4-0.5c0.4,0.2,0.5,0.6,0.7,1c1.2,2.4,2.4,4.7,3.5,7.2c1.2,2.8,2.4,5.7,3.6,8.6
		c0.6,1.4,1,2.9,1.6,4.4c4.9,0.7,9.2,3.7,12.2,7.5c2.6,3.2,4.5,7.2,4.9,11.4c-4.8,2.7-9.1,6.1-12.8,10.2c-0.4,0.7-1.6,0.2-1.4-0.6
		c0.6-2.7,0.8-5.4,0.6-8.2c0-2.7-0.9-5.2-1.5-7.8l-0.2-0.3c-2.1,3.5-5.2,6.4-9,7.9c-0.4,0.2-0.8,0.2-1.1,0.5
		c0.9,4.9,0.7,10-0.5,14.8c-2,1.5-4.1,3-6.3,4.3c-0.5,0.3-1.2,0.4-1.4,0.9c1.3,1.3,2.7,2.7,3.6,4.3c-0.4-0.2-0.9-0.4-1.3-0.5
		c-1.8-0.6-3.8-1-5.6-0.3c-2.7,1-4.4,3.7-4.9,6.4c-1,4.7,0.3,9.7,2.9,13.7c1.9,2.8,4.6,5.3,7.9,6c2.5,0.5,5.1-0.5,6.6-2.5
		c2.4-3.1,2.6-7.4,1.8-11.1c1.4,4.2,1.9,8.6,1.7,13c-7,4.7-17.1,4.2-23.7-1.2c-0.4-0.3-0.7-0.6-1.1-0.9c-0.6-0.5-1.2-1.1-1.7-1.7
		c-0.3-0.4-0.6-0.7-1-1.1c-0.3-0.4-0.6-0.8-0.9-1.3c-0.3-0.5-0.6-1-0.9-1.5c-1.1-1.9-1.8-3.9-2.2-6c-0.4-2.4-0.5-4.9-0.1-7.3
		c0.5-0.2,1-0.3,1.5-0.4c-0.6,3.7-0.3,7.6,1.2,11.1c2.1,5.1,6.4,9.2,11.6,10.9c-3.9-3.6-6.4-8.5-7.4-13.8c-0.6-3.5-0.5-7.3,0.9-10.6
		c2.7-1.2,5.5-2.4,8.1-3.9c1.7-4.1,2.7-8.6,3-13c0.2-3.9,0-7.9-1.7-11.5c-1.4-2-3.7-3.1-6-3.8c-2.5-0.8-5.2-0.7-7.8-0.8
		c5.6-3.3,11.2-6.7,17.2-9.3c0.3-1.3,0.3-2.6,0.5-3.8c0.2-1.5,0.4-3.1,0.6-4.6C144,55.2,144.9,49.9,145.9,44.7 M147.1,46.8
		c-1,5.3-1.8,10.6-2.5,16c3-1,5.8-3.1,7.3-5.9c-1.3-3.4-2.9-6.7-4.6-10L147.1,46.8 M152,59.5c-1.9,2.4-4.7,4.1-7.6,5
		c-0.3,3.3-0.8,6.6-0.9,9.9c5.4-0.4,10.1-4.6,11.4-9.8c-0.6-2-1.4-4-2.2-5.9C152.3,58.9,152.2,59.2,152,59.5 M154.5,69.3
		c-2.4,3.8-6.7,6.4-11.2,6.7c0,0.4-0.3,1,0.2,1.3c2.3,1.6,3.7,4.2,4.5,6.8l0.2,0.2c4.4-1.5,8-5,9.8-9.2c-0.7-2.7-1.5-5.3-2.3-7.9
		C155.2,67.7,155,68.6,154.5,69.3z"/>
	<path class="st0" d="M111,67.3c0.3-0.3,0.7-0.5,1.1-0.2c4.9,2.4,8.6,6.5,11.5,11.1l0.1,0.2c0.3,1.2,0.7,2.5,0.4,3.7
		c-0.6-0.7-1-1.6-1.4-2.4c-2.3-3.9-5.3-7.5-9.1-10c-0.6-0.4-1.2-0.8-1.8-1c-3.7,3.6-5.8,8.5-6.7,13.5c-1.4,8.9,1,18.4,6.8,25.4
		c-0.3,0.4-0.7,0.7-1,1c-6.3-7.3-8.7-17.6-7.1-27C104.6,76.2,107,71.1,111,67.3z"/>
	<path class="st0" d="M110.6,75.4c0.3-0.5,0.9,0.2,0.5,0.5c-1.9,3.4-2,7.5-1.2,11.2c1,4.9,3.7,9.8,8,12.6c-0.3,0.4-0.5,0.8-0.8,1.2
		c-2.2-1.4-3.9-3.3-5.2-5.5c-2.7-4.4-3.8-9.7-3.1-14.8C109.1,78.8,109.6,77,110.6,75.4z"/>
	<path class="st0" d="M114.9,76.3c0.1-0.1,0.4-0.2,0.5-0.2c3.5,3.3,5.5,7.9,6.3,12.6c0.2,0.8,0,1.7,0.5,2.5c-0.3,0.8-0.7,1.5-1,2.3
		c0.2-5.5-1.5-11.2-5-15.5C115.8,77.4,115,77,114.9,76.3z"/>
	<path class="st0" d="M187.9,78.9c0.4-0.1,0.9-0.2,1.3-0.3c0.8,3,0.2,6.3-0.9,9.1c-0.1,0.5-0.7,0.9-0.2,1.4
		c-0.4,0.3-0.7,0.6-1.1,0.9c-0.6-0.8-1.2-1.7-1.8-2.4c0.2-0.5,0.4-1,0.6-1.5c0.4,0.4,0.7,0.9,1.2,1.1
		C188,84.6,188.3,81.7,187.9,78.9z"/>
	<path class="st0" d="M179.1,81.6c0.8-0.3,1.5-0.6,2.3-0.9c-0.2,0.1-0.5,0.3-0.6,0.4c1.5,1.2,2.9,2.6,4.2,4
		c-0.2,0.5-0.5,0.9-0.7,1.4C182.7,84.8,181,83.1,179.1,81.6z"/>
	<path class="st0" d="M185.9,81.7c-0.4-0.7,0.6-0.7,0.3,0L185.9,81.7z"/>
	<path class="st0" d="M187.9,91.2c0.3-0.3,0.7-0.6,1-1c0.7,1,1.3,2,1.8,3.1c-0.4,0.2-0.8,0.4-1.2,0.6
		C188.9,93,188.4,92.1,187.9,91.2z"/>
	<path class="st0" d="M169.4,98.2c1.7-1.9,4.5-2.8,7-2c3.4,1,5.9,3.8,7.5,6.8c3.4,6.2,4.1,14,1.2,20.5c4.9-4,6.9-10.5,6.6-16.6
		c0.3-2.1-0.3-4.3-0.5-6.4c1.3,3,1.4,6.4,1.3,9.6c0,0.5-0.4,1.1,0,1.5c-0.3,0.5-0.3,1.1-0.4,1.6c-0.3,0.5-0.3,1.1-0.4,1.6
		c-0.2,0.6-0.3,1.2-0.6,1.8c-0.2,0.5-0.4,1-0.6,1.6c-1.8,4.3-5,8.2-9.2,10.3c-3.2,1.6-7,2.1-10.4,0.9c-0.5-0.1-0.6-0.6-0.8-1
		c-2.5-5.4-4.4-11.1-5.2-17c0.3,2.1,1,4.2,2,6.1c0.9,3.1,2.4,6.2,5,8.2c1.7,1.3,4,2,6,1.1c2.4-0.9,3.8-3.2,4.7-5.5
		c1.3-3.8,1.3-8.1,0.2-11.9c0.4-3-0.2-6.1-2-8.6c-0.9-1.2-2.3-2.3-4-2.1c-1,0-1.9,0.7-2.5,1.4c-1.6,0-3.1,0.6-4.3,1.6
		c-2.2,2.1-3.2,5.1-3.6,8l-0.5,0c0-2.1,0.1-4.2,0.6-6.2C167.1,101.8,167.9,99.8,169.4,98.2z"/>
	<path class="st0" d="M193.8,111c0.7-0.2,1.3-0.4,2-0.5c-1,1.1-0.2,2.7-0.6,4c-0.5-0.3-0.9-0.5-1.4-0.8
		C193.9,112.9,194,112,193.8,111z"/>
	<path class="st0" d="M193.8,115c0.5,0.1,1,0.3,1.5,0.4c-0.3,1.5-0.3,3-0.8,4.5c-0.6-0.9-1.3-1.7-2.2-2.4c0.3,0.2,0.7,0.5,1,0.7
		C193.6,117.2,193.7,116.1,193.8,115z"/>
	<path class="st0" d="M161.8,129.8c2.1-0.7,4.7-0.8,6.5,0.7c-3.7-0.3-7.4,0.8-10.8,2.4C158.4,131.3,160.2,130.4,161.8,129.8z"/>
	<path class="st0" d="M169,132.4c0.9,0.5,1.2,1.8,0.7,2.6c-0.5,0.9-1.7,1.3-2.6,0.8C168.6,135.6,169.6,133.9,169,132.4z"/>
	<path class="st0" d="M157.1,135.3c0.5,0.5,0.6,1.3,1.2,1.7c0.5,0.5,1.3,0.5,1.9,0.7c-0.8,0.8-2.3,0.6-2.9-0.4
		C156.9,136.7,157,135.9,157.1,135.3z"/>
	<path class="st0" d="M172.5,135.7c0.5,0.1,0.4,0.8,0.3,1.2c-0.7,2.2-2.1,4.1-3.5,5.9c-0.6,2.5-1.4,5.2-3.5,6.8
		c-1.6,1.2-3.9,0.9-5.6-0.1c-3.4-2.1-5.4-5.8-7.4-9.2c-0.2,0-0.7,0-1,0c-0.7-1-0.3-2.5,0.2-3.5c0.3-0.7,1.3-0.6,1.5,0.1
		c0,0.2-0.1,0.7-0.2,0.9c1.4,2.3,3.3,4.4,5.8,5.5c2.1,0.9,4.7,0.9,6.8-0.2c2.4-1.2,4.2-3.4,5.4-5.8
		C171.6,136.7,171.8,136,172.5,135.7 M155.4,143.1c1,1.8,2.3,3.5,4,4.8c1.2,1.1,2.8,1.9,4.5,1.6c0.9-0.2,1.8-0.8,2.3-1.6l0.2,0
		c0.7-1.2,1.6-2.6,1.6-4c-2.5,2-6.2,2.7-9.2,1.4C157.6,144.7,156.6,143.7,155.4,143.1z"/>
</g>
<g>
	<path class="st1" d="M251.8,2.1c0.2-1.1,1.7-1.3,2.4-0.5c3.4,3.2,4.7,8,5.1,12.5c0.3,4.2-0.1,8.4-0.9,12.6
		c-2,9.6-6.1,18.7-11.6,26.8c-0.7,0.8,0.7,1.8,1.2,0.9c4.1-5.8,7.2-12.2,9.6-18.8c1.4-3,3-5.9,4.9-8.6c2-2.8,4.2-5.7,7-7.7
		c2.3,4,2.5,8.9,2,13.5c-0.6,5.7-2.4,11.2-4.7,16.4c-3.5,7.8-8.4,15-14.2,21.1c-0.2,0.3-0.5,0.5-0.5,0.9c0.2,0.5,0.8,1,1.3,0.5
		c2.2-2.1,4-4.6,6-6.8c6.4-2.6,12.4-6.1,17.6-10.5c0.7,2.7,0.4,5.6-0.4,8.3c-1.4,4.5-3.9,8.6-6.9,12.2c-4.6,5.6-10.4,10.4-16.9,13.8
		c-0.9,0.5-1.9,0.8-2.7,1.5c-0.2,0.6,0.3,1.3,0.9,1.1c1.7-0.7,3.3-1.6,4.9-2.5c1.4-1,3.2-0.8,4.8-1.1c2.3,0,4.8-0.4,6.9,0.6
		c-1.6,4.2-4.5,7.7-7.8,10.6c-6,5.3-13.5,8.8-21.4,10.2c-0.7,0.1-1.4,0.1-2,0.1c-0.9,0.3-0.7,1.8,0.3,1.7c1.9-0.4,3.8-0.3,5.6,0.1
		c1.2,0.3,2.7,0.6,3.4,1.8c0.4,1.1-0.3,2.2-0.9,3c-2.3,2.6-5.5,4.3-8.7,5.7c-5.1,2.2-10.6,3.7-16.2,4.2c-0.8,0-1.1,1.2-0.3,1.5
		c3.3,0.9,6.8,1.8,9.6,4c-1,1.7-2.8,2.7-4.5,3.8c-4.7,2.6-9.9,4.4-15.2,4.9c-0.8,0.2-1.3-0.5-2-0.7c-0.9-0.3-1.7,0.3-2.5,0.7
		c-6.4,3.2-12.1,7.6-17.2,12.6c-2.3-0.2-5-1.1-6.2-3.3c-1-1.4-2.2-2.6-3.3-3.9c3.5-2.4,6.6-5.4,9.2-8.8c7-5.5,12.9-12.4,17.7-19.8
		c6.6-10.3,11.5-21.8,13.6-33.9c0.2-1.1,0.3-2.3,0.7-3.4c5.2-12.7,12-24.8,20.3-35.7c0.8-0.9,1.8-1.6,3-2c0.8-0.3,1.5,0.3,1.8,1
		c0.9,1.7,0.6,3.7,0.6,5.6c-0.4,4.8-1.7,9.6-3.3,14.1c-1.7,4.7-3.7,9.2-6.2,13.5c-0.3,0.4-0.3,0.9-0.1,1.3c0.4,0.2,1,0.3,1.2-0.1
		c1.2-2,2.2-4.1,3.2-6.1c0.6-0.7,1.3-1.2,1.9-1.8c1.4-1.1,3.1-2.4,5-2.3c1,0.1,1.5,1.2,1.7,2c0.3,2.3-0.3,4.6-1.1,6.8
		c-1.5,4-3.8,7.7-6.5,11c-2.9,3.6-6.3,7.1-10.5,9.2c-0.7,0.3-0.3,1.6,0.5,1.4c1.6-0.6,2.9-1.6,4.3-2.6c0.5-0.4,0.9-0.9,1.6-1
		c1.7-0.3,3.4-0.4,5.1,0c0.6,1.2-0.1,2.5-0.7,3.5c-1.8,2.5-4.3,4.3-6.9,5.9c-4.5,2.6-9.5,4.6-14.8,4.8c-0.7,0-0.9,1-0.4,1.4
		c2.6,0.5,5.2-0.6,7.9-0.1c1.1,0.2,2.6,0.4,3.2,1.5c-1.2,2.5-3.4,4.4-5.5,6.2c-3.7,2.9-8,5.1-12.4,6.7c-3.2,1.2-6.6,2.1-10,2.2
		c-0.8-0.1-1.1,1-0.6,1.4c2.9,0.2,5.8-0.6,8.6-1.4c1.3-0.5,2.6-0.2,3.9,0c1,0.2,2.2,0.4,2.8,1.4c0,0.8-0.7,1.4-1.2,1.9
		c-1.8,1.5-3.9,2.5-6,3.3c-5.5,2.1-11.4,3.4-17.3,3.4c-0.4,0-0.9,0.3-0.8,0.7c-0.2,0.9,1,0.8,1.5,0.9c1,0.3,2.4,1,2.4,2.2
		c-0.2,1.1-1.3,1.9-2.2,2.4c-2.2,1.1-4.7,1.3-7,1c-0.7,0-1.4-0.7-2-0.1c-0.3,0.4-0.2,1.1,0.4,1.3c2.9,0.9,6.1,0.7,8.8-0.5
		c1.6-0.7,3.3-1.9,3.6-3.7c0.2-1-0.4-2-1-2.7c5.4-0.5,10.8-1.8,15.8-4c2-0.9,4-2,5.5-3.5c0.9-0.9,1.5-2.3,0.9-3.5
		c-0.7-1.3-2.3-1.7-3.6-2c2.8-1.3,5.6-2.6,8.2-4.3c3.1-2,6.1-4.4,8.1-7.5c0.4-0.6,0.9-1.3,0.6-2.1c-0.3-1.7-2.1-2.3-3.6-2.7
		c5.1-2.1,10.3-4.7,13.9-9c1.2-1.5,2.4-3.5,1.6-5.5c-1-1.7-3.3-1.4-5-1.4c4.6-4.7,8.5-10.2,10.7-16.4c0.8-2.3,1.4-4.8,0.8-7.3
		c-0.3-1.6-1.9-2.8-3.4-3c-1.9,0-3.5,1.1-5.1,2.1c2.4-6.2,4.6-12.7,5.1-19.4c0-2.3,0.1-4.9-1.4-6.8c-1-1.3-2.9-1.2-4.2-0.4
		c-2.2,1.4-3.9,3.4-5.4,5.5c-7.1,10-13,20.8-17.7,32.1c-0.5,1.3-0.7,2.6-1,4c-0.5,3.4-1.4,6.8-2.4,10.1
		c-3.7,11.7-9.7,22.7-17.5,32.2c-2.1,2.4-4.2,4.8-6.6,6.9c0.4-1.1,1-2.1,1.5-3.2c1.1-2.5,1.8-5.2,2.5-7.8c0-0.1-0.1-0.4-0.1-0.5
		c0.5-1.4,0.5-3,0.8-4.5c0.5,0.2,1,0.5,1.5,0.7c-0.5-0.6-1-1.1-1.6-1.5c0.4-1.3-0.4-2.9,0.6-4c1.1-0.2,2.1,0,3.1,0.3
		c-0.7-0.5-1.6-0.8-2.4-1c6.2-8.3,10.5-18.1,12.3-28.3c0.8-4.6,2.8-8.9,5.6-12.6c1.7-2.4,3.8-4.3,5.6-6.6
		c8.2-9.8,14.9-20.8,20.6-32.3C245.2,21.1,248.9,11.7,251.8,2.1z"/>
	<path class="st1" d="M147.1,46.8l0.2,0c1.7,3.3,3.3,6.6,4.6,10c-1.6,2.8-4.3,4.9-7.3,5.9C145.2,57.4,146,52.1,147.1,46.8z"/>
	<path class="st1" d="M152,59.5c0.2-0.3,0.4-0.6,0.7-0.8c0.8,1.9,1.6,3.9,2.2,5.9c-1.3,5.2-6,9.4-11.4,9.8c0.1-3.3,0.6-6.6,0.9-9.9
		C147.3,63.6,150,61.9,152,59.5z"/>
	<path class="st1" d="M154.5,69.3c0.5-0.7,0.7-1.5,1.2-2.2c0.8,2.6,1.7,5.2,2.3,7.9c-1.8,4.3-5.4,7.7-9.8,9.2l-0.2-0.2
		c-0.8-2.6-2.2-5.2-4.5-6.8c-0.5-0.2-0.2-0.9-0.2-1.3C147.9,75.7,152.1,73.1,154.5,69.3z"/>
	<path class="st1" d="M105.1,82.2c0.8-5,3-9.9,6.7-13.5c0.7,0.2,1.3,0.6,1.8,1c3.8,2.5,6.8,6.1,9.1,10c0.5,0.8,0.8,1.7,1.4,2.4
		c0,3.1-0.9,6.1-1.9,9.1c-0.5-0.7-0.3-1.6-0.5-2.5c-0.8-4.7-2.8-9.3-6.3-12.6c-0.1,0.1-0.4,0.2-0.5,0.2c0.1,0.7,0.9,1.1,1.3,1.7
		c3.5,4.3,5.3,9.9,5,15.5c-0.9,2.2-2.1,4.3-3.4,6.4c-4.3-2.8-6.9-7.7-8-12.6c-0.7-3.7-0.7-7.8,1.2-11.2c0.4-0.3-0.2-1-0.5-0.5
		c-1,1.6-1.5,3.4-1.8,5.2c-0.8,5.1,0.4,10.4,3.1,14.8c1.3,2.2,3.1,4.1,5.2,5.5c-1.6,2.3-3.3,4.5-5.3,6.5
		C106,100.6,103.7,91.1,105.1,82.2z"/>
	<path class="st1" d="M9.5,70.6c12.7,13.8,28.4,24.6,45.4,32.3c6.2,2.8,12.7,5.2,19.3,6.8c5.3,1.4,10.5,3.3,15.3,5.9
		c8,4.3,15.2,9.8,21.2,16.6c8.5,9.6,19,17.7,31.1,22c-0.4,0.4-0.9,0.4-1.4,0.5c-4.5,0.8-9.1-0.2-13.4-1.6
		c-8.2-2.8-15.5-7.7-21.9-13.4c-8.8-9.4-19.8-16.9-32-20.8c-2.5-0.8-5.1-1.5-7.7-2.1c-8.1-2.2-15.9-6-22.5-11.3
		c-0.6-0.6-1.6,0.4-1,1c2,1.8,4.4,3.3,6.6,4.8c-1.1,0.5-2.6,0.3-3.6,1c-0.4,0.4,0,0.9,0.3,1.3c4.5,6.8,11.5,11.6,18.9,14.6l0.2,0.3
		c-3.3,0.4-6.6,1-9.7,2.2c-0.4,0.1-0.6,0.8-0.3,1.1c2.6,3.7,6.7,6.1,10.8,7.6c2.9,1.1,5.8,1.7,8.9,2.1c-0.4,0.8-1.3,1.4-1.5,2.3
		c-0.2,0.8,0.8,1.3,1.3,1.8c6.1,4.9,14.4,6.5,22.1,6.1c-0.8,0.9-1.7,1.9-2.1,3.1c-0.1,0.6,0.6,0.8,0.9,1.2c3.9,2.8,8.7,4,13.3,4.4
		c3.4,0.2,6.8,0.1,10.1-0.6c0.1,1.3,0.2,2.8,1.2,3.8c1.4,0.7,3,0.9,4.6,1.1c0,0.1,0,0.2,0,0.3c-4.5,3.5-9.8,6.1-15.4,6.9
		c-2,0.3-4.1,0.3-6.1-0.1c0.1-2.6,1.1-5.1,2.6-7.2c1.7-0.6,3.5-1.2,5.2-2c0.5-0.5,0.1-1.3-0.6-1.3c-6.2,2.8-13,4-19.7,4.9
		c-4,0.4-8,0.7-11.9-0.1c-0.7-0.2-1.8-0.3-2.1-1.1c0.3-0.6,0.9-1,1.4-1.4c1.6-1,3.4-1.7,5.1-2.3c1.2-0.3,2.4-0.3,3.6-0.6
		c0.8-0.4,0.3-1.6-0.5-1.4c-6.1,0.9-12.3,1.2-18.5,1.2c-5.7-0.3-11.5-0.5-17.1-2c-1.5-0.4-3.1-0.9-4.3-1.9c-0.4-0.3-0.7-0.9-0.4-1.3
		c0.9-1.1,2.3-1.6,3.6-2.1c4.1-1.4,8.5-2.1,12.8-2.6c1-0.2,2,0.1,3-0.2c0.5-0.5,0.1-1.5-0.6-1.4c-4.7,0.1-9.4-0.5-14.1-1.4
		c-6.2-1.2-12.3-2.9-18.2-5.2c-3.1-1.3-6.3-2.7-9-4.7c-1.2-0.9-2.5-2-2.9-3.5c0.1-1.1,1.3-1.6,2.2-2c3.3-1.1,6.8-0.8,10.2-0.8
		c4.8,0.4,9.6,0.9,14.2,2.3c1.1,0.2,2.2,0.7,3.3,0.7c0.7-0.1,0.6-1.2,0-1.4c-10.7-2.5-21-6.7-30-12.8c-5.6-3.8-10.8-8.5-14.6-14.2
		c-1.6-2.5-3-5.3-3.3-8.3c8.1,4.2,16.4,8.1,24.8,11.4c0.7,0.3,1.3,0.5,1.9,0.9c3.9,2.6,8.1,4.9,12.4,7c0.4,0.2,0.8,0.5,1.2,0.4
		c0.5-0.3,0.7-1,0.1-1.4c-7.1-3.3-13.8-7.3-19.8-12.4c-4.5-3.8-8.6-8.1-11.6-13.2C8.5,86.6,7,82.4,7.1,78.1
		C7.3,75.4,8,72.8,9.5,70.6z"/>
	<path class="st1" d="M149.7,85.3c3.8-1.5,7-4.4,9-7.9l0.2,0.3c0.6,2.6,1.5,5.2,1.5,7.8c0.2,2.7-0.1,5.5-0.6,8.2
		c-0.2,0.8,1,1.2,1.4,0.6c3.7-4.1,8-7.5,12.8-10.2c1.7-1,3.5-1.8,5.3-2.6c1.8,1.5,3.6,3.2,5.2,5c-0.6,1-1.4,2-2.3,2.8
		c-2.7-0.9-5.8-0.6-8.3,0.7c-3.6,1.9-6.2,5.5-7.6,9.3c-1.5,3.9-1.8,8.1-1.2,12.2c0.9,5.9,2.7,11.6,5.2,17c0.2,0.4,0.3,0.9,0.8,1
		c3.4,1.1,7.2,0.7,10.4-0.9c4.2-2.1,7.4-6,9.2-10.3c1,0.1,1.9,0.5,2.7,1c-0.9,4.9-2.8,9.7-5.4,13.9c-0.9,1.7-2.1,3.1-3.4,4.4
		c-3.4,3.8-7.4,6.9-11.8,9.4c-0.7,0.3-0.9,1.1-1.4,1.7c-1.6,2.4-4.3,4.3-7.2,4.2c-3.5,0.1-6.6-2-9-4.2c-0.4-0.5-1.2-0.3-1.4,0.3
		c0.1,0.3,0.2,0.6,0.3,0.9c-6.8-0.3-13.4-2.4-19.1-6.2c-4.2-2.7-7.6-6.3-10.5-10.4c0.7-0.9,1.5-1.7,2.4-2.4c0.5,0.7,1.1,1.2,1.7,1.7
		c-0.6,1.3-1.1,2.7-1.3,4.2c0.7-1.2,1.4-2.4,2.4-3.3c6.6,5.3,16.7,5.9,23.7,1.2c0.3-4.4-0.3-8.9-1.7-13c-1.5-6.4-4.6-12.6-9.7-16.9
		c2.2-1.3,4.3-2.7,6.3-4.3c1.2-4.8,1.4-9.9,0.5-14.8C148.9,85.6,149.3,85.5,149.7,85.3 M161.8,129.8c-1.7,0.6-3.4,1.5-4.3,3.1
		c3.3-1.6,7-2.7,10.8-2.4C166.6,129,163.9,129.2,161.8,129.8 M169,132.4c0.6,1.5-0.4,3.1-1.9,3.4c0.9,0.5,2.1,0.1,2.6-0.8
		C170.2,134.2,169.9,132.9,169,132.4 M157.1,135.3c-0.1,0.6-0.2,1.4,0.2,2c0.6,1,2.1,1.2,2.9,0.4c-0.6-0.2-1.4-0.2-1.9-0.7
		C157.7,136.5,157.6,135.7,157.1,135.3 M172.5,135.7c-0.6,0.3-0.9,1-1.2,1.6c-1.2,2.4-3,4.6-5.4,5.8c-2.1,1.1-4.6,1.1-6.8,0.2
		c-2.5-1.1-4.5-3.2-5.8-5.5c0-0.2,0.1-0.7,0.2-0.9c-0.2-0.7-1.2-0.8-1.5-0.1c-0.5,1-0.9,2.5-0.2,3.5c0.2,0,0.7,0,1,0
		c1.9,3.4,3.9,7.1,7.4,9.2c1.6,1.1,3.9,1.3,5.6,0.1c2.2-1.6,3-4.3,3.5-6.8c1.4-1.8,2.8-3.7,3.5-5.9
		C172.9,136.5,172.9,135.8,172.5,135.7z"/>
	<path class="st1" d="M181.4,80.6c1.7-0.6,3.5-1.1,5.3-1.6c0.4,0,0.8-0.1,1.2-0.2c0.4,2.8,0.1,5.7-1,8.3c-0.5-0.3-0.8-0.8-1.2-1.1
		c0.4-1.4,0.5-2.9,0.4-4.4c0.3-0.7-0.7-0.7-0.3,0c-0.1,1.2-0.4,2.4-0.9,3.5c-1.3-1.5-2.7-2.8-4.2-4C181,81,181.3,80.8,181.4,80.6z"
		/>
	<path class="st1" d="M183.7,90c0.6-0.8,1.1-1.6,1.5-2.5c0.6,0.8,1.2,1.6,1.8,2.4c-0.5,0.4-1.1,0.7-1.8,1
		C184.7,90.7,184.2,90.3,183.7,90z"/>
	<path class="st1" d="M186.5,92.1c0.5-0.3,0.9-0.6,1.4-0.9c0.5,0.9,1,1.8,1.5,2.7c-0.4,0.1-0.7,0.2-1.1,0.3
		C187.7,93.5,187.2,92.8,186.5,92.1z"/>
	<path class="st1" d="M188.9,95.1c0.2-0.1,0.7-0.2,0.9-0.2c2.3,4.7,3.6,9.8,4,14.9c-0.4,0.1-0.9,0.2-1.3,0.3c0.2-3.2,0-6.6-1.3-9.6
		C190.7,98.6,189.8,96.9,188.9,95.1z"/>
	<path class="st1" d="M192.5,111.7c0.4-0.2,0.9-0.4,1.3-0.6c0.1,0.9,0.1,1.9,0,2.8c-0.6-0.2-1.2-0.4-1.7-0.6
		C192.2,112.7,192.2,112.1,192.5,111.7z"/>
	<path class="st1" d="M46.9,113.2c1.7-0.1,3.6-1,5.1,0c5.5,2.9,11.5,4.8,17.5,6.2c12.4,3.2,23.6,10.3,32.6,19.3
		c3.1,3.4,6.8,6.2,10.6,8.8c6,4,12.7,7.3,19.8,8.6c3.9,0.6,7.9,0.6,11.6-0.9c0.3-0.1,0.6-0.4,0.6-0.7c-0.2-0.7-0.9-0.9-1.4-1.3
		c-2.1-0.7-4.1-1.5-6.1-2.4c-0.1-0.1-0.2-0.3-0.3-0.4c1.7-0.3,3.2-1,4.8-1.4c0.3,0.2,0.5,0.3,0.8,0.5c2.9,6,7.5,11.1,13,14.8
		c0.7,0.7,1.9-0.7,0.9-1.2c-4.8-3.4-9.2-7.7-11.8-13.1c3.7,1,7.4,1.5,11.2,1.5c2.8,2.1,6.5,3.6,10,2.8c3.2-0.7,5.7-3.1,7.3-5.8
		c1.3-0.8,2.6-1.7,3.9-2.4c2.8,2.7,5,6,6.6,9.5c2.3,4.7,3.5,9.8,3.6,15c0.1,5.3-1.1,10.7-4,15.2c-1.1,1.7-2.5,3.4-4.2,4.4
		c-4.5-5-8.7-10.3-12.8-15.7c-0.5-0.8-1.8-0.1-1.4,0.7c9.9,13.4,21.2,25.7,33.5,36.8c7.4,6.6,15.3,12.8,23.6,18.3c1.1,1,1,2.7,0.7,4
		c-0.9,3.2-3.2,5.6-5.7,7.6c-5.5,4.2-12.4,6.5-19.2,6.4c-3-0.3-6.3-0.8-8.4-3.2c-17.5-20.8-30.8-45-40.9-70.2
		c-0.4-0.8-1.7-0.3-1.4,0.6c2.1,5.4,4.4,10.7,6.8,15.9l-0.2,0.2c-8.1-4-14.8-10.9-18-19.4c-0.2-0.9-1.6-0.7-1.5,0.2
		c1.5,4.7,4.4,8.9,7.8,12.5c0.3,0.3,0.6,0.5,0.7,0.9c-2.5,1.5-5.6,1.1-8.1,0c-4.3-2-7.5-5.9-9.1-10.3c-0.3-0.6-0.3-1.5-1-1.7
		c-0.5,0-1.1,0.6-0.8,1.1c1.8,6.1,6.7,11.7,13,13.2c1.1,3.9,1.6,8,0.8,12c-0.6,2-0.8,4.3-2.4,5.8c-1.5,1.4-3.8,1-5.6,0.6
		c-4.2-1.3-7.7-4.3-10.2-7.9c-0.8-1.3-1.6-2.7-1.7-4.2c0.9-7.6-0.1-15.4-2.9-22.5l0.1-0.2c2.8-1,5.4-2.4,7.9-4.1
		c0,1.1-0.7,2.3-0.1,3.4c0.1,0.4,0.7,0.4,1,0.5c3.6,0.8,7.3-0.3,10.5-1.9c3.8-2,7.3-4.9,9.5-8.6c0.4-0.5,0-1.3-0.6-1.2
		c-0.5,0-0.6,0.5-0.8,0.8c-2.6,4.1-6.7,7.1-11.2,8.8c-2.3,0.8-4.8,1.4-7.2,0.8c0.2-1.9,1-3.8,2-5.4c5.3-0.2,10.8-1.6,14.9-5.1
		c0.7-0.4,0.3-1.5-0.5-1.4c-2.4,1.9-5.2,3.4-8.1,4.2c-3.8,1-7.9,1.2-11.7,0c-0.8-0.7-0.7-2-0.7-2.9c0.9-0.6,2.1-0.7,3.1-1.2
		c0.6-0.1,0.6-0.9,0.2-1.3c-0.6-0.3-1.2,0.2-1.8,0.3c-5.6,1.9-11.8,2.1-17.6,0.9c-2.9-0.7-5.7-1.7-8.1-3.5l-0.1-0.2
		c0.6-1,1.4-1.8,2.2-2.5c1-1,2.5-0.8,3.7-1.3c0.7-0.5,0-1.6-0.7-1.3c-3.4,1-6.9,1.1-10.4,0.9c-5.4-0.5-10.9-2.1-15.2-5.5
		c-0.3-0.3-0.7-0.5-0.8-0.9c0.6-0.8,1.3-1.5,2.1-2c3.4,0.1,6.9-0.2,10.2-1.1c0.4-0.1,0.9-0.2,1.2-0.6c0.1-0.5-0.1-1-0.6-1.1
		c-5.7,1.8-12,1.7-17.8,0.3c-4.9-1.3-9.9-3.4-13.2-7.5c4-1.2,8.2-1.9,12.5-1.9c1.6,0.3,3.1,0.8,4.7,1c0.6,0,1-0.7,0.6-1.1
		c-0.2-0.4-0.7-0.3-1.1-0.5c-5.6-1-10.9-3.2-15.7-6.2c-4-2.5-7.6-5.7-10.3-9.6L46.9,113.2z"/>
	<path class="st1" d="M117.9,115c0.9-0.2,1.8-0.5,2.7-0.7c-0.1,2.4,0.5,4.7,1.1,7c0.4,2.1,1.1,4.2,2.2,6c-0.8,0.3-1.6,0.6-2.3,1.1
		c-0.1-0.1-0.2-0.3-0.3-0.4C119.3,123.9,118.3,119.5,117.9,115z"/>
	<path class="st1" d="M191.1,116.7c0.2-0.6,0.4-1.2,0.6-1.8c0.7,0,1.4,0,2.1,0.1c-0.1,1.1-0.2,2.2-0.4,3.2c-0.3-0.2-0.7-0.5-1-0.7
		C192,117.2,191.6,117,191.1,116.7z"/>
	<path class="st1" d="M121.9,129.4c0.9-0.3,1.9-0.5,2.9-0.7c0.3,0.4,0.5,0.9,0.9,1.3c-0.7,0.9-1.3,1.8-1.8,2.8
		C123.2,131.7,122.5,130.6,121.9,129.4z"/>
	<path class="st1" d="M206.2,140.7c0.4-0.1,0.7-0.5,1.1-0.4c6.5,6.9,10,16.1,11.6,25.3c1.8,11.2,0.8,23-3.3,33.6
		c-0.3,0.6-1.1,0.4-1.7,0.6c-3.7,0.3-7.2-1.5-10.1-3.8c-4.7-3.9-8.1-9.5-8.6-15.6c-0.2-0.7,0.2-1.2,0.4-1.8
		c1.4-4.2,2.3-8.5,2.6-12.9c0.1-3.8,0.1-7.6-0.8-11.3c-0.2-0.6-0.2-1.5-1-1.5c-0.6,0.1-0.8,0.7-0.6,1.2c1.1,4.4,1.4,9,0.7,13.4
		c-2.7,1.6-5.3,3.5-7.8,5.4c0.4-5.5-0.8-11.1-2.8-16.2C191.5,150,198.4,144.5,206.2,140.7z"/>
	<path class="st1" d="M155.4,143.1c1.1,0.6,2.1,1.6,3.4,2.1c3,1.3,6.6,0.7,9.2-1.4c0,1.4-0.9,2.8-1.6,4l-0.2,0
		c-0.9-0.9-2.1-1.6-3.4-1.5c-1.3-0.1-2.5,0.7-3.4,1.6C157.8,146.6,156.5,144.9,155.4,143.1z"/>
	<path class="st1" d="M150.2,191.6c1.4,0.8,2.9,1.6,4.4,2.2c0.6,0.1,0.7,0.8,1,1.3c3.7,7.8,7.9,15.3,12.2,22.8
		c-0.6,1.4-1.5,2.6-2.3,3.8c-0.8,1.4-2.3,2.6-4,2.5c-3-0.2-5.5-2.2-7.5-4.3c-3.1-3.5-5.2-7.9-5.7-12.5
		C149.7,202.2,150.5,196.9,150.2,191.6z"/>
</g>
<g>
	<path class="st2" d="M168.6,39.3c6-2.2,12.7-2.3,18.8-0.3c5.7,1.8,10.7,5.5,14.2,10.2c0.2,0.3,0.5,0.5,0.7,0.8
		c0.5,4.4,1,8.8,1.5,13.2c0.2,0.5-0.1,1-0.5,1.2c-0.4-0.1-0.9-0.2-1.2-0.6c-3.1-3.7-6.9-6.8-11.1-9.2c-4.5-2.5-9.5-4.1-14.6-4.1
		c-2.4,0.1-4.8,0.4-6.9,1.4c5.9-0.5,11.9,0.8,17.2,3.3c5.5,2.5,10.5,6.2,14.4,10.9c3,3.7,5.4,8.1,6.2,12.8c0.2,0.5-0.4,1.2-0.9,0.9
		c-5.5-1.9-11.5-2.1-17.3-1c-0.4,0.1-0.9,0.2-1.3,0.3c-0.4,0.1-0.8,0.1-1.2,0.2c0.4-0.3,0.5-0.8,0.2-1.3c-1.7-5.1-4.6-9.9-8.4-13.7
		c-3.6-3.6-8.2-6.5-13.3-7.1c-3.7-0.5-7.6,0.7-10.3,3.2c0.1,0.2,0.2,0.5,0.3,0.7c-1.2-2.9-2.4-5.7-3.6-8.6c1.4-1.3,2.9-2.5,4.3-3.8
		C159.2,44.4,163.7,41.1,168.6,39.3z"/>
	<path class="st2" d="M74,65c3.4-7.8,10.3-14.1,18.3-16.9c-2.1,3.5-3.4,7.5-3.5,11.6c-0.2,6.5,2.6,13,7.4,17.4
		c2.1,2,4.7,3.5,7.4,4.6c-1.6,9.4,0.9,19.7,7.1,27c0.4-0.3,0.7-0.7,1-1c1.9-2,3.7-4.2,5.3-6.5c0.3-0.4,0.5-0.8,0.8-1.2
		c1.3-2,2.5-4.1,3.4-6.4c0.3-0.8,0.7-1.5,1-2.3c1-2.9,1.9-6,1.9-9.1c0.3-1.2-0.1-2.5-0.4-3.7c0.5-0.1,1-0.1,1.5-0.2
		c2.6,0.1,5.3-0.1,7.8,0.8c2.2,0.7,4.5,1.9,6,3.8c1.6,3.6,1.9,7.6,1.7,11.5c-0.3,4.5-1.3,8.9-3,13c-2.6,1.4-5.4,2.7-8.1,3.9
		c-2.1,0.9-4.2,1.6-6.4,2.4c-0.5,0.1-1,0.3-1.5,0.4c-0.3,0.1-0.6,0.2-1,0.3c-0.9,0.3-1.8,0.5-2.7,0.7c-0.4,0.1-0.9,0.2-1.3,0.3
		c-0.2,1.5,0.5,3,0.4,4.5c-3.9,2.2-8.3,3.6-12.7,4c-7.9-6.6-17-11.9-27-14.7c-1.6-0.5-3.4-0.7-4.9-1.3c-7.8-10.8-9.4-25.9-3.8-38
		C72,78.9,79.2,86.5,88,90.6C83.7,88,80,84.4,77.6,80C75,75.4,73.8,70.2,74,65z"/>
	<path class="st2" d="M136.3,68.7c2.1-2.9,4.6-5.6,7-8.3c-0.2,1.5-0.4,3.1-0.6,4.6C140.6,66.2,138.5,67.6,136.3,68.7z"/>
	<path class="st2" d="M123.7,135.4L123.7,135.4c4.5,6.1,10.8,11,18,13.6c-1.6,0.4-3.2,1.1-4.8,1.4c-0.5,0.2-1-0.2-1.4-0.4
		c-5.8-3-11.3-6.7-16.1-11.1C120.9,137.9,122.3,136.6,123.7,135.4z"/>
	<path class="st2" d="M88.8,167.4c1-0.1,1.9-0.3,2.9-0.1c-2.9,1-5.8,1.8-8.8,2.5c-0.5-0.6-1-1.3-1.2-2.1
		C84.1,167.7,86.5,167.7,88.8,167.4z"/>
</g>
<g>
	<path class="st3" d="M154.9,60.2c2.7-2.6,6.6-3.7,10.3-3.2c5.1,0.6,9.7,3.5,13.3,7.1c3.8,3.8,6.7,8.6,8.4,13.7
		c0.2,0.4,0.2,0.9-0.2,1.3c-1.8,0.4-3.6,1-5.3,1.6c-0.8,0.3-1.6,0.6-2.3,0.9c-1.8,0.8-3.6,1.6-5.3,2.6c-0.4-4.2-2.3-8.2-4.9-11.4
		c-3.1-3.8-7.4-6.8-12.2-7.5c-0.6-1.4-1-2.9-1.6-4.4C155.1,60.7,155,60.4,154.9,60.2z"/>
	<path class="st3" d="M136.3,68.7c2.2-1.2,4.2-2.6,6.5-3.7c-0.2,1.3-0.2,2.6-0.5,3.8c-6,2.6-11.6,6-17.2,9.3c-0.5,0-1,0.1-1.5,0.2
		l-0.1-0.2C128.3,75.7,132.6,72.5,136.3,68.7z"/>
	<path class="st3" d="M115.2,134.9c2.2-0.9,4.1-2.2,5.8-3.8c0.8,1.5,1.7,2.9,2.6,4.3c-1.4,1.2-2.8,2.5-4.3,3.5
		C118,137.6,116.6,136.3,115.2,134.9z"/>
	<path class="st3" d="M110.9,172.9c0.8-0.3,1.6-0.4,2.4-0.7c1.3,2.9,2.1,5.9,2.6,9c0,0.2,0.1,0.7,0.1,0.9l-0.3-0.2
		c-4,1.2-8.3,1.3-12.4,0.7C106.1,179.6,108.7,176.4,110.9,172.9z"/>
</g>
<g>
	<path class="st4" d="M185.9,81.7l0.3,0c0.1,1.5-0.1,2.9-0.4,4.4c-0.2,0.5-0.3,1-0.6,1.5c-0.4,0.9-0.9,1.7-1.5,2.5
		c0.5,0.3,1.1,0.6,1.6,1c0.6-0.3,1.2-0.6,1.8-1c0.4-0.3,0.7-0.6,1.1-0.9c1.3-0.9,2.1-2.4,3.1-3.6c-0.4,1.7-1.1,3.4-2.3,4.7
		c-0.3,0.3-0.6,0.7-1,1c-0.5,0.3-0.9,0.6-1.4,0.9c0.6,0.7,1.2,1.4,1.8,2.1c0.4-0.1,0.7-0.2,1.1-0.3c0.4-0.2,0.8-0.4,1.2-0.6
		c0.8-0.5,1.5-1.1,2.1-1.9c0.3-0.2,0.3-0.8,0.7-0.8c-0.3,1.4-1.1,2.8-2.3,3.6c-0.4,0.3-0.8,0.5-1.3,0.7c-0.2,0.1-0.7,0.2-0.9,0.2
		c0.9,1.7,1.7,3.5,2.3,5.4c0.3,2.1,0.8,4.3,0.5,6.4c-0.3-4.5-1.9-9.2-5.1-12.5c-2.3-2.3-5.7-3.8-9-3.3c-2.9,0.4-5.4,2.1-7.3,4.3
		c-2,2.4-3.3,5.3-4,8.3c-0.5,2-0.6,4.1-0.6,6.2l0.5,0c0.3-2.9,1.4-6,3.6-8c1.2-1.1,2.7-1.6,4.3-1.6c-1.9,2.7-1.9,6.2-1,9.3
		c0.7,2,1.9,4.1,3.9,5c1.2,0.6,2.6,0.2,3.6-0.6c1.2-1.1,1.8-2.8,2.1-4.4c1.1,3.9,1.2,8.1-0.2,11.9c-0.8,2.3-2.3,4.6-4.7,5.5
		c-2,0.8-4.4,0.2-6-1.1c-2.6-2-4.1-5.1-5-8.2c-0.9-1.9-1.6-4-2-6.1c-0.6-4.1-0.3-8.3,1.2-12.2c1.4-3.8,4-7.3,7.6-9.3
		c2.5-1.4,5.6-1.6,8.3-0.7c0.9-0.8,1.7-1.7,2.3-2.8c0.2-0.5,0.5-0.9,0.7-1.4C185.5,84,185.8,82.9,185.9,81.7 M171.9,115.4
		c-1.4,1.3-1,3.9,0.6,4.9c0.5,0.2,1.1,0,1.4-0.4c0.8-1.2,0.6-2.8-0.1-3.9C173.3,115.4,172.5,115,171.9,115.4z"/>
	<path class="st4" d="M140.4,105.9c0.2-0.5,1-0.6,1.4-0.9c5,4.3,8.1,10.5,9.7,16.9c0.8,3.7,0.6,7.9-1.8,11.1c-1.5,2-4.2,3.1-6.6,2.5
		c-3.4-0.7-6.1-3.2-7.9-6c-2.6-4-3.9-9-2.9-13.7c0.6-2.7,2.2-5.4,4.9-6.4c1.8-0.7,3.8-0.3,5.6,0.3c-1.4-0.4-2.9,0.5-3.5,1.8
		c-1.2,2.3-1,5.1-0.2,7.5c0.8,2.2,2,4.4,4.2,5.5c1.2,0.6,2.8,0.5,3.8-0.6c1.5-1.7,1.6-4.1,1.4-6.2c-0.5-2.9-1.8-5.9-4.3-7.6
		C143,108.5,141.7,107.2,140.4,105.9 M136.6,123.3c-1.1,0.9-0.8,2.7-0.2,3.9c0.4,0.8,1.5,1.9,2.4,1.1c1-1.2,0.6-3-0.2-4.2
		C138.2,123.5,137.3,122.8,136.6,123.3z"/>
	<path class="st4" d="M193.8,109.8c0.9-0.1,1.9-0.1,2.8,0c0.8,0.2,1.7,0.5,2.4,1c-1-0.2-2.1-0.4-3.1-0.3c-0.7,0.1-1.4,0.2-2,0.5
		c-0.5,0.2-0.9,0.4-1.3,0.6c-0.4-0.4,0-1,0-1.5C193,110,193.4,109.9,193.8,109.8z"/>
	<path class="st4" d="M191.7,114.9c0.1-0.5,0.2-1.1,0.4-1.6c0.6,0.1,1.2,0.3,1.7,0.6c0.5,0.2,1,0.5,1.4,0.8c0.5,0.5,1.1,1,1.6,1.5
		c-0.5-0.2-1-0.5-1.5-0.7c-0.5-0.1-1-0.3-1.5-0.4C193.1,114.9,192.4,114.9,191.7,114.9z"/>
	<path class="st4" d="M120.6,114.3c0.3-0.1,0.6-0.2,1-0.3c-0.4,2.4-0.3,4.9,0.1,7.3C121.2,119,120.5,116.7,120.6,114.3z"/>
	<path class="st4" d="M190.5,118.3c0.2-0.5,0.4-1.1,0.6-1.6c0.4,0.2,0.9,0.5,1.3,0.8c0.8,0.7,1.6,1.5,2.2,2.4c0,0.1,0.1,0.4,0.1,0.5
		c-0.5-0.4-0.9-0.8-1.4-1.1C192.4,118.8,191.5,118.4,190.5,118.3z"/>
	<path class="st4" d="M121.6,128.4c0.7-0.5,1.5-0.8,2.3-1.1c0.3,0.5,0.6,1,0.9,1.5c-1,0.2-1.9,0.4-2.9,0.7c-1,0.3-1.9,1-2.9,1.4
		C119.6,129.8,120.6,129,121.6,128.4z"/>
	<path class="st4" d="M125.7,130c0.4,0.3,0.7,0.7,1,1.1c-0.9,0.7-1.7,1.5-2.4,2.4c-0.3,0.3-0.4,0.8-0.9,0.9c0.1-0.5,0.3-1,0.5-1.6
		C124.3,131.8,125,130.9,125.7,130z"/>
	<path class="st4" d="M128.3,132.8c0.4,0.3,0.7,0.6,1.1,0.9c-1,0.9-1.7,2.1-2.4,3.3C127.2,135.5,127.7,134.1,128.3,132.8z"/>
</g>
<g>
	<path class="st5" d="M170.4,95.5c1.8-2.2,4.4-3.9,7.3-4.3c3.3-0.5,6.7,0.9,9,3.3c3.3,3.3,4.8,7.9,5.1,12.5
		c0.3,6.1-1.7,12.6-6.6,16.6c3-6.5,2.2-14.3-1.2-20.5c-1.7-3-4.1-5.8-7.5-6.8c-2.5-0.8-5.3,0.1-7,2c-1.5,1.5-2.3,3.5-3,5.5
		C167.2,100.8,168.4,97.8,170.4,95.5z"/>
	<path class="st5" d="M174.2,100.3c0.7-0.7,1.5-1.4,2.5-1.4c1.6-0.2,3,0.9,4,2.1c1.8,2.4,2.4,5.6,2,8.6c-0.3,1.6-0.8,3.2-2.1,4.4
		c-1,0.9-2.4,1.2-3.6,0.6c-2-0.9-3.2-3-3.9-5C172.3,106.5,172.4,102.9,174.2,100.3z"/>
	<path class="st5" d="M139.2,111.4c0.6-1.3,2.1-2.2,3.5-1.8c0.4,0.1,0.9,0.3,1.3,0.5c2.5,1.7,3.8,4.7,4.3,7.6
		c0.2,2.1,0.1,4.5-1.4,6.2c-0.9,1-2.6,1.2-3.8,0.6c-2.1-1.1-3.4-3.3-4.2-5.5C138.2,116.5,138,113.8,139.2,111.4z"/>
	<path class="st5" d="M123.1,113.6c2.1-0.8,4.3-1.5,6.4-2.4c-1.4,3.3-1.6,7.1-0.9,10.6c0.9,5.2,3.5,10.1,7.4,13.8
		c-5.2-1.8-9.6-5.8-11.6-10.9C122.8,121.2,122.5,117.3,123.1,113.6z"/>
	<path class="st5" d="M171.9,115.4c0.6-0.4,1.4-0.1,1.8,0.5c0.8,1.1,0.9,2.8,0.1,3.9c-0.3,0.5-0.9,0.6-1.4,0.4
		C170.9,119.3,170.5,116.7,171.9,115.4z"/>
	<path class="st5" d="M136.6,123.3c0.7-0.5,1.6,0.2,2,0.8c0.8,1.2,1.2,3,0.2,4.2c-0.9,0.8-2-0.3-2.4-1.1
		C135.8,126,135.5,124.3,136.6,123.3z"/>
</g>
<g>
	<path class="st6" d="M159.4,147.9c0.9-0.9,2-1.7,3.4-1.6c1.3-0.1,2.5,0.6,3.4,1.5c-0.5,0.8-1.4,1.4-2.3,1.6
		C162.3,149.8,160.7,149,159.4,147.9z"/>
</g>
</svg>
